<svg xmlns="http://www.w3.org/2000/svg" xmlns:xlink="http://www.w3.org/1999/xlink" version="1.1">

<defs>
<font id="BasisGrotesquePro-Regular" horiz-adv-x="610" >
  <font-face 
    font-family="BasisGrotesquePro-Regular"
    font-weight="400"
    font-stretch="normal"
    units-per-em="1000"
    panose-1="2 0 5 3 3 0 0 2 0 4"
    ascent="800"
    descent="-200"
    x-height="496"
    cap-height="700"
    bbox="-51 -285 1107 934"
    underline-thickness="50"
    underline-position="-150"
    unicode-range="U+000D-FB04"
  />
<missing-glyph horiz-adv-x="500" 
 />
    <glyph glyph-name="ff" unicode="ff" horiz-adv-x="580" 
d="M179 434v-434h-78v434h-78v62h78v99q0 71 40 113t113 42q28 0 48 -7l-12 -66q-15 5 -33 5q-78 0 -78 -88v-98h186v99q0 71 40 113t113 42q28 0 48 -7l-12 -66q-15 5 -33 5q-78 0 -78 -88v-98h114v-62h-114v-434h-78v434h-186z" />
    <glyph glyph-name="fi" unicode="fi" horiz-adv-x="532" 
d="M378 0v434h-199v-434h-78v434h-78v62h78v99q0 71 40 113t113 42q28 0 48 -7l-12 -66q-15 5 -33 5q-78 0 -78 -88v-98h277v-496h-78zM370 582v98h94v-98h-94z" />
    <glyph glyph-name="fl" unicode="fl" horiz-adv-x="532" 
d="M23 434v62h78v99q0 71 40 113t113 42q28 0 48 -7l-12 -66q-15 5 -33 5q-78 0 -78 -88v-98h114v-62h-114v-434h-78v434h-78zM378 0v700h78v-700h-78z" />
    <glyph glyph-name="f_f_i" unicode="ffi" horiz-adv-x="796" 
d="M642 0v434h-199v-434h-78v434h-186v-434h-78v434h-78v62h78v99q0 71 40 113t113 42q28 0 48 -7l-12 -66q-15 5 -33 5q-78 0 -78 -88v-98h186v95q0 74 41.5 116.5t117.5 42.5q25 0 45 -7l-12 -66q-15 5 -33 5q-81 0 -81 -93v-93h277v-496h-78zM634 582v98h94v-98h-94z" />
    <glyph glyph-name="f_f_l" unicode="ffl" horiz-adv-x="796" 
d="M179 434v-434h-78v434h-78v62h78v99q0 71 40 113t113 42q28 0 48 -7l-12 -66q-15 5 -33 5q-78 0 -78 -88v-98h186v99q0 71 40 113t113 42q28 0 48 -7l-12 -66q-15 5 -33 5q-78 0 -78 -88v-98h114v-62h-114v-434h-78v434h-186zM642 0v700h78v-700h-78z" />
    <glyph glyph-name="f_j" unicode="fj" horiz-adv-x="532" 
d="M273 -203l10 70q19 -8 39 -8q31 0 43.5 16.5t12.5 54.5v504h-199v-434h-78v434h-78v62h78v99q0 71 40 113t113 42q28 0 48 -7l-12 -66q-15 5 -33 5q-78 0 -78 -88v-98h277v-554q0 -153 -135 -153q-19 0 -48 8zM370 582v98h94v-98h-94z" />
    <glyph glyph-name="f_f_j" unicode="ffj" horiz-adv-x="796" 
d="M537 -203l10 70q19 -8 39 -8q31 0 43.5 16t12.5 54v505h-199v-434h-78v434h-186v-434h-78v434h-78v62h78v99q0 71 40 113t113 42q28 0 48 -7l-12 -66q-15 5 -33 5q-78 0 -78 -88v-98h186v99q0 71 40 113t113 42q28 0 48 -7l-12 -66q-15 5 -33 5q-78 0 -78 -88v-98h277
v-554q0 -153 -135 -153q-19 0 -48 8zM634 582v98h94v-98h-94z" />
    <glyph glyph-name=".notdef" horiz-adv-x="500" 
 />
    <glyph glyph-name=".null" horiz-adv-x="0" 
 />
    <glyph glyph-name="nonmarkingreturn" horiz-adv-x="333" 
 />
    <glyph glyph-name="NULL" horiz-adv-x="0" 
 />
    <glyph glyph-name="NULL" horiz-adv-x="0" 
 />
    <glyph glyph-name="CR" unicode="&#xd;" horiz-adv-x="289" 
 />
    <glyph glyph-name="space" unicode=" " horiz-adv-x="276" 
 />
    <glyph glyph-name="exclam" unicode="!" horiz-adv-x="268" 
d="M92 477v223h84v-223l-11 -289h-62zM88 0v100h92v-100h-92z" />
    <glyph glyph-name="quotedbl" unicode="&#x22;" horiz-adv-x="344" 
d="M62 644v56h80v-56l-13 -156h-54zM202 644v56h80v-56l-13 -156h-54z" />
    <glyph glyph-name="numbersign" unicode="#" horiz-adv-x="659" 
d="M553 700l-41 -222h98v-62h-109l-25 -132h114v-62h-125l-42 -222h-76l42 222h-159l-41 -222h-76l41 222h-100v62h111l25 132h-116v62h127l42 222h76l-42 -222h159l41 222h76zM266 416l-25 -132h159l25 132h-159z" />
    <glyph glyph-name="dollar" unicode="$" horiz-adv-x="655" 
d="M295 -100v88q-100 10 -164 69.5t-78 145.5l74 39q12 -79 56 -124t112 -55v268q-205 45 -205 198q0 74 56.5 124.5t148.5 58.5v88h72v-89q78 -9 134.5 -52.5t79.5 -112.5l-68 -40q-19 54 -57 88t-89 45v-246q113 -21 168.5 -69t55.5 -129q0 -82 -62 -140t-162 -67v-88h-72
zM507 189q0 51 -34 80t-106 47v-254q65 7 102.5 42t37.5 85zM170 529q0 -82 125 -119v230q-56 -7 -90.5 -36.5t-34.5 -74.5z" />
    <glyph glyph-name="percent" unicode="%" horiz-adv-x="885" 
d="M251 0l-52 35l435 665l52 -35zM52 539q0 74 48 124.5t122 50.5t122 -50.5t48 -124.5t-48 -124.5t-122 -50.5t-122 50.5t-48 124.5zM118 539q0 -51 28.5 -82t75.5 -31t75.5 31t28.5 82t-28.5 82t-75.5 31t-75.5 -31t-28.5 -82zM493 161q0 74 48 124.5t122 50.5t122 -50.5
t48 -124.5t-48 -124.5t-122 -50.5t-122 50.5t-48 124.5zM559 161q0 -51 28.5 -82t75.5 -31t75.5 31t28.5 82t-28.5 82t-75.5 31t-75.5 -31t-28.5 -82z" />
    <glyph glyph-name="ampersand" unicode="&#x26;" horiz-adv-x="640" 
d="M598 0h-90l-45 59q-73 -73 -182 -73q-97 0 -158.5 60t-61.5 150q0 129 137 212q-49 68 -49 147q0 68 47.5 113.5t114.5 45.5q71 0 113 -37.5t42 -101.5q0 -28 -10 -53t-23.5 -42t-38.5 -35.5t-42.5 -28.5t-48.5 -26l161 -213q35 64 51 152l65 -36q-25 -106 -70 -177z
M286 56q76 0 134 60l-181 238q-98 -67 -98 -159q0 -63 43 -101t102 -38zM223 556q0 -60 40 -114q77 36 104 63t27 65q0 35 -24.5 56.5t-58.5 21.5q-39 0 -63.5 -26t-24.5 -66z" />
    <glyph glyph-name="quotesingle" unicode="'" horiz-adv-x="204" 
d="M62 644v56h80v-56l-13 -156h-54z" />
    <glyph glyph-name="parenleft" unicode="(" horiz-adv-x="350" 
d="M258 -148h-76q-106 182 -106 424t106 424h76q-98 -186 -98 -424t98 -424z" />
    <glyph glyph-name="parenright" unicode=")" horiz-adv-x="350" 
d="M168 -148h-76q98 186 98 424t-98 424h76q106 -182 106 -424t-106 -424z" />
    <glyph glyph-name="asterisk" unicode="*" horiz-adv-x="434" 
d="M178 376l16 124l-102 -72l-36 68l111 42l-111 42l36 68l102 -72l-16 124h78l-16 -124l102 72l36 -68l-111 -42l111 -42l-36 -68l-102 72l16 -124h-78z" />
    <glyph glyph-name="plus" unicode="+" horiz-adv-x="506" 
d="M48 334v62h174v174h62v-174h174v-62h-174v-174h-62v174h-174z" />
    <glyph glyph-name="comma" unicode="," horiz-adv-x="190" 
d="M48 0v98h94v-98l-70 -127l-24 9l33 118h-33z" />
    <glyph glyph-name="hyphen" unicode="-" horiz-adv-x="456" 
d="M48 280v62h360v-62h-360z" />
    <glyph glyph-name="period" unicode="." horiz-adv-x="190" 
d="M48 0v98h94v-98h-94z" />
    <glyph glyph-name="slash" unicode="/" horiz-adv-x="496" 
d="M6 -30l400 760h84l-400 -760h-84z" />
    <glyph glyph-name="zero" unicode="0" horiz-adv-x="716" 
d="M662 350q0 -162 -85 -263t-219 -101t-219 101t-85 263t85 263t219 101t219 -101t85 -263zM358 60q98 0 159 78t61 212t-61 212t-159 78t-159 -78t-61 -212t61 -212t159 -78z" />
    <glyph glyph-name="one" unicode="1" horiz-adv-x="366" 
d="M55 540v72q57 0 91 21t60 67h76v-700h-84v587q-28 -27 -60.5 -37t-82.5 -10z" />
    <glyph glyph-name="two" unicode="2" horiz-adv-x="585" 
d="M57 55l270 271q55 55 76 95t21 88q0 60 -40.5 97.5t-103.5 37.5q-60 0 -100 -39t-40 -101q0 -24 8 -45l-74 -12q-12 31 -12 66q0 80 62.5 140.5t158.5 60.5q100 0 161.5 -55t61.5 -139q0 -63 -27.5 -119.5t-96.5 -125.5l-200 -201h327v-74h-452v55z" />
    <glyph glyph-name="three" unicode="3" horiz-adv-x="590" 
d="M71 244l77 -19q-4 -14 -4 -34q0 -57 44 -94t110 -37q71 0 111.5 37.5t40.5 106.5q0 70 -53.5 104t-141.5 34v68q86 0 124.5 35.5t38.5 89.5q0 49 -36.5 79t-93.5 30q-54 0 -92 -32t-38 -83q0 -17 5 -30l-72 -11q-8 24 -8 51q0 73 59 124t147 51q96 0 153.5 -48t57.5 -121
q0 -53 -30 -98t-87 -63q68 -17 109.5 -62t41.5 -113q0 -102 -67.5 -162.5t-168.5 -60.5q-106 0 -172 60.5t-66 138.5q0 34 11 59z" />
    <glyph glyph-name="four" unicode="4" horiz-adv-x="592" 
d="M49 140v74l345 486h84v-486h79v-74h-79v-140h-84v140h-345zM394 578l-256 -364h256v364z" />
    <glyph glyph-name="five" unicode="5" horiz-adv-x="597" 
d="M63 322l33 378h402v-74h-335l-20 -236q29 42 74.5 65t95.5 23q107 0 168.5 -67.5t61.5 -176.5q0 -108 -69.5 -178t-181.5 -70q-104 0 -168.5 54t-64.5 133q0 29 9 50l77 -18q-4 -14 -4 -28q0 -57 42 -87t109 -30q74 0 120.5 46.5t46.5 127.5t-45.5 127.5t-116.5 46.5
q-54 0 -98 -30.5t-68 -74.5z" />
    <glyph glyph-name="six" unicode="6" horiz-adv-x="607" 
d="M520 496l-79 16q8 21 8 36q0 41 -33 66.5t-90 25.5q-81 0 -131.5 -80.5t-55.5 -211.5q29 52 81 81t109 29q97 0 162.5 -66t65.5 -167q0 -99 -70.5 -169t-175.5 -70q-118 0 -187.5 85.5t-69.5 237.5q0 126 41 230q33 83 94 129t136 46q93 0 148.5 -46t55.5 -121
q0 -25 -9 -51zM311 384q-67 0 -115 -44t-48 -118t48 -118t115 -44t114.5 44t47.5 118t-47.5 118t-114.5 44z" />
    <glyph glyph-name="seven" unicode="7" horiz-adv-x="539" 
d="M495 632l-283 -632h-82l280 626h-367v74h452v-68z" />
    <glyph glyph-name="eight" unicode="8" horiz-adv-x="580" 
d="M290 -14q-101 0 -167.5 57.5t-66.5 150.5q0 61 31.5 107.5t84.5 73.5q-44 24 -69 66t-25 92q0 79 61 130t151 51t151 -51t61 -130q0 -50 -25 -92t-69 -66q53 -27 84.5 -73.5t31.5 -107.5q0 -93 -66.5 -150.5t-167.5 -57.5zM290 54q68 0 110 39.5t42 103.5q0 63 -44.5 103
t-107.5 40t-107.5 -40t-44.5 -103q0 -64 42 -103.5t110 -39.5zM156 526q0 -55 38 -88.5t96 -33.5t96 33.5t38 88.5q0 59 -39 91.5t-95 32.5t-95 -32.5t-39 -91.5z" />
    <glyph glyph-name="nine" unicode="9" horiz-adv-x="607" 
d="M91 204l79 -16q-8 -21 -8 -36q0 -39 33 -65.5t95 -26.5q178 0 178 293q-22 -51 -72 -81t-104 -30q-99 0 -165.5 66t-66.5 167q0 98 68 168.5t174 70.5q127 0 193 -94q57 -82 57 -213q0 -166 -35 -259q-29 -77 -88 -119.5t-139 -42.5q-89 0 -148.5 46.5t-59.5 120.5
q0 30 9 51zM300 316q65 0 111.5 44.5t46.5 117.5t-46.5 117.5t-111.5 44.5t-110.5 -44.5t-45.5 -117.5t45.5 -117.5t110.5 -44.5z" />
    <glyph glyph-name="colon" unicode=":" horiz-adv-x="190" 
d="M48 0v98h94v-98h-94zM48 378v98h94v-98h-94z" />
    <glyph glyph-name="semicolon" unicode=";" horiz-adv-x="190" 
d="M48 0v98h94v-98l-70 -127l-24 9l33 118h-33zM48 378v98h94v-98h-94z" />
    <glyph glyph-name="less" unicode="&#x3c;" horiz-adv-x="517" 
d="M48 272v76l410 201v-80l-334 -159l334 -159v-80z" />
    <glyph glyph-name="equal" unicode="=" horiz-adv-x="506" 
d="M48 224v62h410v-62h-410zM48 414v62h410v-62h-410z" />
    <glyph glyph-name="greater" unicode="&#x3e;" horiz-adv-x="517" 
d="M469 348v-76l-410 -201v80l334 159l-334 159v80z" />
    <glyph glyph-name="question" unicode="?" horiz-adv-x="536" 
d="M301 195h-86v22q0 71 92 148q56 47 74.5 79.5t18.5 81.5q0 51 -37.5 84.5t-98.5 33.5q-57 0 -95.5 -33.5t-38.5 -97.5q0 -20 5 -42l-73 -13q-12 28 -12 69q0 75 61 131t153 56q100 0 159 -52t59 -132q0 -63 -27 -108.5t-98 -105.5q-31 -27 -43.5 -53.5t-12.5 -67.5z
M213 0v100h92v-100h-92z" />
    <glyph glyph-name="at" unicode="@" horiz-adv-x="949" 
d="M640 -32l36 -58q-48 -33 -100 -47.5t-128 -14.5q-72 0 -139.5 24.5t-125.5 73.5t-93.5 132.5t-35.5 190.5q0 187 125 316t316 129q80 0 149.5 -22.5t125 -66.5t87.5 -117t32 -167q0 -136 -71.5 -225t-170.5 -89q-40 0 -62 20t-22 58q0 12 1 18l2 12q-20 -47 -65.5 -77.5
t-95.5 -30.5q-74 0 -122 56t-48 151q0 143 76 224.5t173 81.5q95 0 124 -82l10 66h72l-55 -378q-1 -8 -1 -16q0 -37 36 -37q53 0 100 65t47 178q0 141 -87.5 226.5t-244.5 85.5q-146 0 -252.5 -108.5t-106.5 -270.5q0 -87 27.5 -156t74 -112t105.5 -65t126 -22q105 0 181 54
zM414 93q72 0 125.5 77.5t53.5 177.5q0 63 -28 94.5t-76 31.5q-71 0 -124.5 -64t-53.5 -172q0 -74 30.5 -109.5t72.5 -35.5z" />
    <glyph glyph-name="A" unicode="A" horiz-adv-x="656" 
d="M6 0l278 700h88l278 -700h-86l-81 207h-310l-81 -207h-86zM307 549l-107 -272h255l-106 272q-14 36 -21 58z" />
    <glyph glyph-name="B" unicode="B" horiz-adv-x="645" 
d="M88 0v700h256q99 0 159.5 -47.5t60.5 -121.5q0 -110 -122 -154q69 -23 108 -64.5t39 -111.5q0 -90 -71 -145.5t-172 -55.5h-258zM172 336v-266h161q79 0 127.5 32t48.5 101t-48.5 101t-127.5 32h-161zM172 630v-224h166q66 0 106 27.5t40 84.5t-40 84.5t-106 27.5h-166z
" />
    <glyph glyph-name="C" unicode="C" horiz-adv-x="748" 
d="M626 211l63 -46q-95 -179 -296 -179q-145 0 -241 103.5t-96 260.5q0 155 100 259.5t242 104.5q102 0 178.5 -48.5t113.5 -131.5l-65 -46q-72 152 -229 152q-107 0 -180.5 -83.5t-73.5 -206.5q0 -125 70.5 -207.5t182.5 -82.5q79 0 134.5 35.5t96.5 115.5z" />
    <glyph glyph-name="D" unicode="D" horiz-adv-x="693" 
d="M88 0v700h193q159 0 257.5 -93t98.5 -257t-98.5 -257t-257.5 -93h-193zM276 74q127 0 201 69t74 207t-74 207t-201 69h-104v-552h104z" />
    <glyph glyph-name="E" unicode="E" horiz-adv-x="597" 
d="M88 0v700h438v-74h-354v-227h326v-74h-326v-251h357v-74h-441z" />
    <glyph glyph-name="F" unicode="F" horiz-adv-x="596" 
d="M88 0v700h448v-74h-364v-247h334v-74h-334v-305h-84z" />
    <glyph glyph-name="G" unicode="G" horiz-adv-x="766" 
d="M637 0l-24 121q-31 -62 -88 -98.5t-136 -36.5q-147 0 -240 103t-93 261q0 155 100.5 259.5t241.5 104.5q100 0 175.5 -45.5t116.5 -124.5l-64 -46q-44 76 -99.5 109t-129.5 33q-105 0 -180 -82t-75 -208q0 -129 68.5 -209.5t181.5 -80.5q95 0 149.5 59t69.5 162h-246v70
h330v-351h-58z" />
    <glyph glyph-name="H" unicode="H" horiz-adv-x="690" 
d="M88 0v700h84v-306h346v306h84v-700h-84v320h-346v-320h-84z" />
    <glyph glyph-name="I" unicode="I" horiz-adv-x="260" 
d="M88 0v700h84v-700h-84z" />
    <glyph glyph-name="J" unicode="J" horiz-adv-x="537" 
d="M471 700v-502q0 -96 -56.5 -154t-148.5 -58q-96 0 -155.5 52t-59.5 157l84 -9q2 -66 38 -96t93 -30q53 0 87 36.5t34 102.5v501h84z" />
    <glyph glyph-name="K" unicode="K" horiz-adv-x="619" 
d="M88 0v700h84v-319l58 64l242 255h105l-244 -259l264 -441h-98l-226 378l-101 -107v-271h-84z" />
    <glyph glyph-name="L" unicode="L" horiz-adv-x="573" 
d="M88 0v700h84v-626h351v-74h-435z" />
    <glyph glyph-name="M" unicode="M" horiz-adv-x="860" 
d="M88 0v700h90l252 -630l252 630h90v-700h-80v540l-36 -98l-183 -442h-86l-183 442q-30 80 -36 98v-540h-80z" />
    <glyph glyph-name="N" unicode="N" horiz-adv-x="708" 
d="M88 0v700h89l333 -527q24 -40 30 -55v582h80v-700h-89l-333 527q-24 40 -30 55v-582h-80z" />
    <glyph glyph-name="O" unicode="O" horiz-adv-x="788" 
d="M732 350q0 -161 -97 -262.5t-241 -101.5t-241 101.5t-97 262.5t97 262.5t241 101.5t241 -101.5t97 -262.5zM394 60q109 0 180.5 80.5t71.5 209.5t-71.5 209.5t-180.5 80.5t-180.5 -80.5t-71.5 -209.5t71.5 -209.5t180.5 -80.5z" />
    <glyph glyph-name="P" unicode="P" horiz-adv-x="678" 
d="M88 0v700h294q111 0 176.5 -59.5t65.5 -158.5t-65.5 -158.5t-176.5 -59.5h-210v-264h-84zM172 626v-288h206q77 0 119.5 36.5t42.5 107.5t-42.5 107.5t-119.5 36.5h-206z" />
    <glyph glyph-name="Q" unicode="Q" horiz-adv-x="788" 
d="M599 -91l-62 -54q-64 64 -105 134q-20 -3 -38 -3q-144 0 -241 101.5t-97 262.5t97 262.5t241 101.5t241 -101.5t97 -262.5q0 -123 -59 -213t-156 -128q34 -52 82 -100zM394 60q109 0 180.5 80.5t71.5 209.5t-71.5 209.5t-180.5 80.5t-180.5 -80.5t-71.5 -209.5
t71.5 -209.5t180.5 -80.5z" />
    <glyph glyph-name="R" unicode="R" horiz-adv-x="640" 
d="M502 0l-172 304h-158v-304h-84v700h279q102 0 163.5 -56t61.5 -142q0 -73 -46 -125t-125 -68l175 -309h-94zM172 626v-248h180q75 0 115.5 32t40.5 92t-40.5 92t-115.5 32h-180z" />
    <glyph glyph-name="S" unicode="S" horiz-adv-x="649" 
d="M168 532q0 -51 46.5 -83t144.5 -50q226 -42 226 -204q0 -89 -70.5 -149t-182.5 -60q-115 0 -188.5 61.5t-90.5 155.5l74 39q14 -90 68 -136t137 -46q78 0 123.5 37.5t45.5 91.5q0 59 -45.5 92t-139.5 50q-230 41 -230 201q0 80 66 131t168 51q92 0 159 -45.5t94 -122.5
l-68 -40q-22 65 -70 100.5t-115 35.5t-109.5 -29t-42.5 -81z" />
    <glyph glyph-name="T" unicode="T" horiz-adv-x="558" 
d="M19 626v74h520v-74h-218v-626h-84v626h-218z" />
    <glyph glyph-name="U" unicode="U" horiz-adv-x="670" 
d="M594 700v-465q0 -116 -71.5 -182.5t-187.5 -66.5t-187.5 66.5t-71.5 182.5v465h84v-470q0 -73 46 -121.5t129 -48.5t129 48.5t46 121.5v470h84z" />
    <glyph glyph-name="V" unicode="V" horiz-adv-x="608" 
d="M260 0l-258 700h84l192 -529q15 -46 26 -83l26 83l192 529h84l-258 -700h-88z" />
    <glyph glyph-name="W" unicode="W" horiz-adv-x="892" 
d="M202 0l-197 700h83l142 -527q11 -48 17 -73l17 74l137 526h90l137 -526q12 -49 17 -74l17 73l142 527h83l-197 -700h-87l-157 596l-157 -596h-87z" />
    <glyph glyph-name="X" unicode="X" horiz-adv-x="577" 
d="M135 700l153 -258l159 258h93l-202 -319l235 -381h-95l-190 310l-189 -310h-96l237 376l-202 324h97z" />
    <glyph glyph-name="Y" unicode="Y" horiz-adv-x="552" 
d="M234 0v287l-230 413h91l159 -296q13 -25 22 -49l22 49l159 296h91l-230 -413v-287h-84z" />
    <glyph glyph-name="Z" unicode="Z" horiz-adv-x="598" 
d="M57 626v74h479v-74l-400 -552h417v-74h-511v72l403 554h-388z" />
    <glyph glyph-name="bracketleft" unicode="[" horiz-adv-x="323" 
d="M88 -150v850h181v-70h-103v-710h103v-70h-181z" />
    <glyph glyph-name="backslash" unicode="\" horiz-adv-x="496" 
d="M90 730l400 -760h-84l-400 760h84z" />
    <glyph glyph-name="bracketright" unicode="]" horiz-adv-x="323" 
d="M235 700v-850h-181v70h103v710h-103v70h181z" />
    <glyph glyph-name="asciicircum" unicode="^" horiz-adv-x="456" 
d="M186 700h84l165 -255h-79l-128 197l-128 -197h-79z" />
    <glyph glyph-name="underscore" unicode="_" horiz-adv-x="437" 
d="M8 -69v62h421v-62h-421z" />
    <glyph glyph-name="grave" unicode="`" horiz-adv-x="297" 
d="M170 700l64 -138h-71l-100 138h107z" />
    <glyph glyph-name="a" unicode="a" horiz-adv-x="543" 
d="M496 0h-78q-30 36 -30 98q-23 -54 -67.5 -83t-101.5 -29q-75 0 -121 42.5t-46 108.5q0 68 47.5 109t123.5 53l165 27v22q0 96 -117 96q-56 0 -86.5 -22t-30.5 -55q0 -7 2 -15l-68 -23q-8 19 -8 40q0 58 52.5 99.5t138.5 41.5q96 0 145.5 -42.5t49.5 -119.5v-224
q0 -43 6 -68.5t24 -55.5zM228 56q75 0 117.5 56.5t42.5 136.5v15l-151 -26q-51 -9 -78 -34t-27 -63q0 -39 26 -62t70 -23z" />
    <glyph glyph-name="b" unicode="b" horiz-adv-x="607" 
d="M76 0v700h78v-294q28 48 76.5 76t105.5 28q98 0 163.5 -74t65.5 -188t-67.5 -188t-170.5 -74q-57 0 -103.5 29t-69.5 74v-89h-78zM316 58q72 0 120.5 52.5t48.5 137.5t-48.5 137.5t-120.5 52.5t-120 -52.5t-48 -137.5t48 -137.5t120 -52.5z" />
    <glyph glyph-name="c" unicode="c" horiz-adv-x="557" 
d="M463 165l56 -36q-72 -143 -223 -143q-108 0 -181 74t-73 188q0 113 74.5 187.5t179.5 74.5q79 0 136 -36t84 -100l-59 -39q-49 105 -160 105q-76 0 -126.5 -52.5t-50.5 -139.5t49.5 -139.5t127.5 -52.5q59 0 98 27.5t68 81.5z" />
    <glyph glyph-name="d" unicode="d" horiz-adv-x="607" 
d="M531 700v-700h-78v89q-59 -103 -171 -103q-104 0 -172 73.5t-68 188.5q0 112 70 187t165 75q61 0 107 -27.5t69 -76.5v294h78zM291 58q72 0 120 52.5t48 137.5t-48 137.5t-120 52.5t-120.5 -52.5t-48.5 -137.5t48.5 -137.5t120.5 -52.5z" />
    <glyph glyph-name="e" unicode="e" horiz-adv-x="574" 
d="M530 235h-410q4 -80 50 -131.5t121 -51.5q63 0 101.5 29.5t65.5 83.5l57 -34q-73 -145 -227 -145q-103 0 -174.5 74.5t-71.5 187.5t72 187.5t177 74.5q110 0 174.5 -69t64.5 -179v-27zM291 444q-65 0 -108 -39.5t-57 -105.5h326q-4 67 -52 106t-109 39z" />
    <glyph glyph-name="f" unicode="f" horiz-adv-x="316" 
d="M23 434v62h78v99q0 71 40 113t113 42q28 0 48 -7l-12 -66q-15 5 -33 5q-78 0 -78 -88v-98h114v-62h-114v-434h-78v434h-78z" />
    <glyph glyph-name="g" unicode="g" horiz-adv-x="587" 
d="M80 -23l74 -21q-7 -15 -7 -33q0 -33 35 -52t100 -19q159 0 159 173v85q-25 -48 -68.5 -75t-98.5 -27q-99 0 -165.5 69.5t-66.5 181.5q0 116 66 183.5t163 67.5q59 0 104.5 -27.5t65.5 -75.5v89h78v-470q0 -115 -62 -179.5t-175 -64.5q-103 0 -158 39.5t-55 104.5
q0 31 11 51zM283 440q-71 0 -116 -49t-45 -132t45 -132t116 -49t117.5 49t46.5 132t-46.5 132t-117.5 49z" />
    <glyph glyph-name="h" unicode="h" horiz-adv-x="577" 
d="M501 335v-335h-78v321q0 57 -33.5 88t-87.5 31q-60 0 -104 -45.5t-44 -119.5v-275h-78v700h78v-291q24 46 70 73.5t99 27.5q75 0 126.5 -44.5t51.5 -130.5z" />
    <glyph glyph-name="i" unicode="i" horiz-adv-x="230" 
d="M76 0v496h78v-496h-78zM68 582v98h94v-98h-94z" />
    <glyph glyph-name="j" unicode="j" horiz-adv-x="230" 
d="M-29 -203l10 70q19 -8 39 -8q31 0 43.5 16t12.5 54v567h78v-554q0 -153 -135 -153q-19 0 -48 8zM68 582v98h94v-98h-94z" />
    <glyph glyph-name="k" unicode="k" horiz-adv-x="495" 
d="M154 700v-390l189 186h93l-171 -169l205 -327h-89l-170 272l-57 -57v-215h-78v700h78z" />
    <glyph glyph-name="l" unicode="l" horiz-adv-x="230" 
d="M76 0v700h78v-700h-78z" />
    <glyph glyph-name="m" unicode="m" horiz-adv-x="816" 
d="M740 377v-377h-78v349q0 43 -23.5 67t-69.5 24q-53 0 -87.5 -42.5t-34.5 -129.5v-268h-78v340q0 48 -23 74t-68 26q-53 0 -88.5 -43.5t-35.5 -130.5v-266h-78v496h78v-79q19 39 58.5 66t88.5 27q48 0 84.5 -23.5t50.5 -70.5q53 94 157 94q65 0 106 -36.5t41 -96.5z" />
    <glyph glyph-name="n" unicode="n" horiz-adv-x="571" 
d="M495 337v-337h-78v323q0 57 -32.5 87t-86.5 30q-59 0 -101.5 -45.5t-42.5 -119.5v-275h-78v496h78v-87q27 47 70.5 74t96.5 27q73 0 123.5 -43.5t50.5 -129.5z" />
    <glyph glyph-name="o" unicode="o" horiz-adv-x="602" 
d="M560 248q0 -81 -39.5 -142t-97.5 -90.5t-122 -29.5t-122 29.5t-97.5 90.5t-39.5 142t39.5 142t97.5 90.5t122 29.5t122 -29.5t97.5 -90.5t39.5 -142zM301 56q76 0 127.5 54.5t51.5 137.5t-51.5 137.5t-127.5 54.5t-127.5 -54.5t-51.5 -137.5t51.5 -137.5t127.5 -54.5z
" />
    <glyph glyph-name="p" unicode="p" horiz-adv-x="608" 
d="M76 -204v700h78v-89q23 45 71 74t107 29q100 0 167 -72t67 -190t-69 -190t-170 -72q-116 0 -173 93v-283h-78zM317 438q-73 0 -121 -52.5t-48 -137.5t48 -137.5t121 -52.5t121 52.5t48 137.5t-48 137.5t-121 52.5z" />
    <glyph glyph-name="q" unicode="q" horiz-adv-x="608" 
d="M532 496v-700h-78v289q-24 -44 -69.5 -71.5t-101.5 -27.5q-101 0 -171 73t-70 189q0 117 70 189.5t172 72.5q58 0 104 -28t66 -75v89h78zM291 438q-74 0 -121.5 -52t-47.5 -138t47.5 -138t121.5 -52t121.5 52t47.5 138t-47.5 138t-121.5 52z" />
    <glyph glyph-name="r" unicode="r" horiz-adv-x="348" 
d="M332 505l-13 -73q-18 6 -39 6q-53 0 -89.5 -46.5t-36.5 -120.5v-271h-78v496h78v-90q48 104 144 104q16 0 34 -5z" />
    <glyph glyph-name="s" unicode="s" horiz-adv-x="491" 
d="M148 379q0 -36 33.5 -56t98.5 -32q167 -32 167 -146q0 -67 -50 -113t-138 -46q-78 0 -132.5 40.5t-78.5 103.5l65 40q43 -116 146 -116q51 0 80.5 23.5t29.5 64.5q0 36 -30.5 56.5t-96.5 32.5q-74 14 -120 49.5t-46 95.5q0 61 50 97.5t121 36.5q143 0 193 -120l-60 -35
q-36 89 -132 89q-44 0 -72 -16.5t-28 -48.5z" />
    <glyph glyph-name="t" unicode="t" horiz-adv-x="340" 
d="M29 434v62h83v134h78v-134h114v-62h-114v-300q0 -43 13.5 -61.5t54.5 -18.5q17 0 37 6l7 -65q-26 -9 -66 -9q-54 0 -89 31.5t-35 101.5v315h-83z" />
    <glyph glyph-name="u" unicode="u" horiz-adv-x="571" 
d="M76 169v327h78v-323q0 -57 32 -87t85 -30q61 0 103.5 45t42.5 117v278h78v-496h-78v87q-53 -101 -165 -101q-75 0 -125.5 45t-50.5 138z" />
    <glyph glyph-name="v" unicode="v" horiz-adv-x="494" 
d="M486 496l-200 -496h-78l-200 496h84l155 -406l155 406h84z" />
    <glyph glyph-name="w" unicode="w" horiz-adv-x="682" 
d="M382 496l112 -398l101 398h80l-140 -496h-84l-110 404l-110 -404h-84l-140 496h80l101 -398l112 398h82z" />
    <glyph glyph-name="x" unicode="x" horiz-adv-x="434" 
d="M108 496l109 -173l110 173h89l-154 -230l171 -266h-88l-128 202l-129 -202h-89l176 264l-156 232h89z" />
    <glyph glyph-name="y" unicode="y" horiz-adv-x="493" 
d="M56 -201l12 70q20 -10 40 -10q23 0 36 11t24 38l37 94l-200 494h86l157 -389l155 389h84l-249 -613q-21 -52 -51.5 -73t-78.5 -21q-28 0 -52 10z" />
    <glyph glyph-name="z" unicode="z" horiz-adv-x="484" 
d="M129 70h312v-70h-398v70l295 356h-282v70h370v-70z" />
    <glyph glyph-name="braceleft" unicode="{" horiz-adv-x="368" 
d="M58 240v70q38 0 56.5 20.5t18.5 72.5v117q0 96 36 138t114 42h31v-70h-32q-71 0 -71 -87v-145q0 -55 -15.5 -80.5t-53.5 -42.5q38 -17 53.5 -42.5t15.5 -80.5v-145q0 -87 71 -87h32v-70h-31q-78 0 -114 42t-36 138v117q0 52 -18.5 72.5t-56.5 20.5z" />
    <glyph glyph-name="bar" unicode="|" horiz-adv-x="256" 
d="M88 -110v850h80v-850h-80z" />
    <glyph glyph-name="braceright" unicode="}" horiz-adv-x="368" 
d="M310 310v-70q-38 0 -56.5 -20.5t-18.5 -72.5v-117q0 -96 -36 -138t-114 -42h-31v70h32q71 0 71 87v145q0 55 15.5 80.5t53.5 42.5q-38 17 -53.5 42.5t-15.5 80.5v145q0 87 -71 87h-32v70h31q78 0 114 -42t36 -138v-117q0 -52 18.5 -72.5t56.5 -20.5z" />
    <glyph glyph-name="asciitilde" unicode="~" horiz-adv-x="447" 
d="M148 332q-12 0 -20.5 -8t-8.5 -19q0 -12 7 -26l-66 -12q-12 17 -12 42q0 42 28.5 66t68.5 24q30 0 54.5 -10.5t37.5 -23t29.5 -23t32.5 -10.5q12 0 20.5 8t8.5 19q0 12 -7 26l66 12q12 -17 12 -42q0 -42 -28.5 -66t-68.5 -24q-30 0 -54.5 10.5t-37.5 23t-29.5 23
t-32.5 10.5z" />
    <glyph glyph-name="exclamdown" unicode="&#xa1;" horiz-adv-x="268" 
d="M176 19v-223h-84v223l11 289h62zM180 496v-100h-92v100h92z" />
    <glyph glyph-name="cent" unicode="&#xa2;" horiz-adv-x="569" 
d="M268 -110v99q-95 12 -156.5 83.5t-61.5 175.5q0 102 62.5 174t155.5 85v113h72v-112q66 -8 113.5 -43t70.5 -91l-59 -39q-41 87 -125 102v-378q80 13 131 106l56 -36q-63 -123 -187 -140v-99h-72zM128 248q0 -77 38 -127t102 -62v377q-62 -12 -101 -62.5t-39 -125.5z" />
    <glyph glyph-name="sterling" unicode="&#xa3;" horiz-adv-x="565" 
d="M33 316v64h73q-19 66 -19 118q0 97 64 156.5t156 59.5q95 0 153.5 -48t58.5 -123q0 -35 -16 -70l-74 13q10 30 10 52q0 46 -38 74t-95 28q-63 0 -99 -38.5t-36 -102.5q0 -39 21 -119h191v-64h-178q6 -28 6 -69q0 -93 -58 -173h355v-74h-435v58q56 92 56 185q0 45 -6 73
h-90z" />
    <glyph glyph-name="currency" unicode="&#xa4;" horiz-adv-x="636" 
d="M540 350q0 -76 -40 -130l66 -66l-52 -52l-66 66q-58 -41 -130 -41t-130 41l-66 -66l-52 52l66 66q-40 54 -40 130t40 130l-66 66l52 52l66 -66q58 41 130 41t130 -41l66 66l52 -52l-66 -66q40 -54 40 -130zM318 195q65 0 106.5 43.5t41.5 111.5t-41.5 111.5t-106.5 43.5
t-106.5 -43.5t-41.5 -111.5t41.5 -111.5t106.5 -43.5z" />
    <glyph glyph-name="yen" unicode="&#xa5;" horiz-adv-x="552" 
d="M85 287v62h116l-185 351h90l170 -340l170 340h90l-185 -351h116v-62h-149v-79h149v-62h-149v-146h-84v146h-149v62h149v79h-149z" />
    <glyph glyph-name="brokenbar" unicode="&#xa6;" horiz-adv-x="256" 
d="M168 382h-80v358h80v-358zM88 248h80v-358h-80v358z" />
    <glyph glyph-name="section" unicode="&#xa7;" horiz-adv-x="523" 
d="M460 288q0 -60 -55 -105q51 -46 51 -115q0 -76 -55 -118.5t-135 -42.5q-76 0 -129.5 36.5t-79.5 95.5l65 47q44 -107 146 -107q45 0 76.5 22t31.5 64q0 41 -34.5 70.5t-119.5 47.5q-159 35 -159 150q0 61 54 105q-50 47 -50 115q0 76 55 118.5t135 42.5q76 0 129.5 -36.5
t79.5 -95.5l-65 -47q-44 107 -146 107q-45 0 -76.5 -22t-31.5 -64q0 -41 34.5 -70.5t119.5 -47.5q159 -35 159 -150zM255 373q-50 11 -85 29q-29 -26 -29 -58q0 -34 28.5 -57t98.5 -39q45 -10 84 -29q30 27 30 58q0 34 -28.5 57t-98.5 39z" />
    <glyph glyph-name="dieresis" unicode="&#xa8;" horiz-adv-x="390" 
d="M228 588v92h92v-92h-92zM70 588v92h92v-92h-92z" />
    <glyph glyph-name="copyright" unicode="&#xa9;" horiz-adv-x="848" 
d="M60 350q0 151 107 257.5t257 106.5t257 -106.5t107 -257.5t-107 -257.5t-257 -106.5t-257 106.5t-107 257.5zM120 350q0 -127 88.5 -216.5t215.5 -89.5t215.5 89.5t88.5 216.5t-88.5 216.5t-215.5 89.5t-215.5 -89.5t-88.5 -216.5zM555 285l44 -28q-57 -111 -174 -111
q-84 0 -140.5 57.5t-56.5 146.5q0 88 58 146t139 58q62 0 106.5 -28t64.5 -78l-46 -30q-38 82 -124 82q-59 0 -98.5 -41t-39.5 -109t39 -108.5t99 -40.5q84 0 129 84z" />
    <glyph glyph-name="ordfeminine" unicode="&#xaa;" horiz-adv-x="385" 
d="M364 300h-62q-21 25 -21 67q-30 -74 -115 -74q-52 0 -84 29.5t-32 75.5q0 47 32 75.5t87 37.5l112 18v11q0 69 -77 69q-37 0 -56.5 -14t-19.5 -36q0 -5 1 -10l-55 -18q-5 11 -5 27q0 40 38.5 69.5t96.5 29.5q67 0 103 -30t36 -85v-153q0 -54 21 -89zM174 348
q49 0 78 35.5t29 87.5v10l-102 -16q-30 -5 -48.5 -21t-18.5 -41q0 -26 17 -40.5t45 -14.5z" />
    <glyph glyph-name="guillemotleft" unicode="&#xab;" horiz-adv-x="505" 
d="M376 474h93l-152 -199l152 -199h-93l-156 199zM204 474h93l-152 -199l152 -199h-93l-156 199z" />
    <glyph glyph-name="logicalnot" unicode="&#xac;" horiz-adv-x="534" 
d="M458 200h-78v134h-332v62h410v-196z" />
    <glyph glyph-name="registered" unicode="&#xae;" horiz-adv-x="848" 
d="M60 350q0 151 107 257.5t257 106.5t257 -106.5t107 -257.5t-107 -257.5t-257 -106.5t-257 106.5t-107 257.5zM120 350q0 -127 88.5 -216.5t215.5 -89.5t215.5 89.5t88.5 216.5t-88.5 216.5t-215.5 89.5t-215.5 -89.5t-88.5 -216.5zM510 151l-98 173h-66v-173h-60v398h162
q59 0 93.5 -31.5t34.5 -81.5q0 -43 -27.5 -71.5t-69.5 -37.5l99 -176h-68zM346 496v-121h93q78 0 78 61q0 60 -78 60h-93z" />
    <glyph glyph-name="macron" unicode="&#xaf;" horiz-adv-x="316" 
d="M48 600v70h220v-70h-220z" />
    <glyph glyph-name="degree" unicode="&#xb0;" horiz-adv-x="360" 
d="M44 579q0 57 39 96t97 39t97 -39t39 -96t-39 -96t-97 -39t-97 39t-39 96zM106 579q0 -32 20.5 -53.5t53.5 -21.5t53.5 21.5t20.5 53.5t-20.5 53.5t-53.5 21.5t-53.5 -21.5t-20.5 -53.5z" />
    <glyph glyph-name="plusminus" unicode="&#xb1;" horiz-adv-x="506" 
d="M48 334v62h174v174h62v-174h174v-62h-174v-174h-62v174h-174zM48 0v62h410v-62h-410z" />
    <glyph glyph-name="twosuperior" unicode="&#xb2;" horiz-adv-x="339" 
d="M62 392l129 126q43 42 43 87q0 20 -15 35t-42 15q-26 0 -42.5 -14.5t-16.5 -41.5q0 -12 4 -21l-54 -7q-6 13 -6 33q0 41 32 72t83 31q54 0 85.5 -28t31.5 -72q0 -61 -65 -125l-79 -78h148v-54h-236v42z" />
    <glyph glyph-name="threesuperior" unicode="&#xb3;" horiz-adv-x="346" 
d="M60 477l53 -12q-3 -9 -3 -19q0 -24 19 -37.5t49 -13.5q66 0 66 61q0 29 -26 44t-68 15v45q76 0 76 57q0 19 -15.5 30.5t-38.5 11.5q-24 0 -40.5 -13.5t-16.5 -35.5q0 -6 2 -16l-49 -6q-5 14 -5 31q0 37 30.5 62.5t78.5 25.5q51 0 82 -24.5t31 -60.5q0 -54 -52 -79
q30 -9 49.5 -32.5t19.5 -56.5q0 -51 -35.5 -81t-88.5 -30q-57 0 -91.5 30.5t-34.5 69.5q0 20 8 34z" />
    <glyph glyph-name="acute" unicode="&#xb4;" horiz-adv-x="297" 
d="M63 562l64 138h107l-100 -138h-71z" />
    <glyph glyph-name="mu" unicode="&#xb5;" horiz-adv-x="571" 
d="M76 -204v700h78v-323q0 -57 32 -87t85 -30q61 0 103.5 45t42.5 117v278h78v-496h-78v87q-53 -101 -165 -101q-61 0 -100 32q2 -46 2 -75v-147h-78z" />
    <glyph glyph-name="paragraph" unicode="&#xb6;" horiz-adv-x="623" 
d="M375 626v-746h-84v428h-28q-95 0 -157 54t-62 142t62 142t157 54h323v-74h-51v-746h-84v746h-76z" />
    <glyph glyph-name="periodcentered" unicode="&#xb7;" horiz-adv-x="190" 
d="M48 310v98h94v-98h-94z" />
    <glyph glyph-name="cedilla" unicode="&#xb8;" horiz-adv-x="304" 
d="M100 -104l-31 28l34 92h54l-37 -71q19 11 44 11q32 0 54 -21.5t22 -55.5q0 -39 -26 -61t-65 -22q-33 0 -55.5 16t-29.5 45l48 12q10 -27 37 -27q35 0 35 37q0 16 -10 25.5t-27 9.5q-24 0 -47 -18z" />
    <glyph glyph-name="onesuperior" unicode="&#xb9;" horiz-adv-x="251" 
d="M46 604v53q60 0 79 43h56v-350h-60v273q-21 -19 -75 -19z" />
    <glyph glyph-name="ordmasculine" unicode="&#xba;" horiz-adv-x="458" 
d="M409 475q0 -83 -55 -132.5t-125 -49.5t-125 49.5t-55 132.5t55 132.5t125 49.5t125 -49.5t55 -132.5zM229 349q50 0 84 36t34 90t-34 90t-84 36t-84 -36t-34 -90t34 -90t84 -36z" />
    <glyph glyph-name="guillemotright" unicode="&#xbb;" horiz-adv-x="505" 
d="M36 474h93l156 -199l-156 -199h-93l152 199zM208 474h93l156 -199l-156 -199h-93l152 199z" />
    <glyph glyph-name="onequarter" unicode="&#xbc;" horiz-adv-x="750" 
d="M46 604v53q60 0 79 43h56v-350h-60v273q-21 -19 -75 -19zM175 0l-52 35l435 665l52 -35zM425 66v52l165 232h62v-232h39v-52h-39v-66h-62v66h-165zM590 262l-105 -144h105v144z" />
    <glyph glyph-name="onehalf" unicode="&#xbd;" horiz-adv-x="775" 
d="M46 604v53q60 0 79 43h56v-350h-60v273q-21 -19 -75 -19zM175 0l-52 35l435 665l52 -35zM484 42l129 126q43 42 43 87q0 20 -15 35t-42 15q-26 0 -42.5 -14.5t-16.5 -41.5q0 -12 4 -21l-54 -7q-6 13 -6 33q0 41 32 72t83 31q54 0 85.5 -28t31.5 -72q0 -61 -65 -125
l-79 -78h148v-54h-236v42z" />
    <glyph glyph-name="threequarters" unicode="&#xbe;" horiz-adv-x="819" 
d="M232 0l-52 35l435 665l52 -35zM494 66v52l165 232h62v-232h39v-52h-39v-66h-62v66h-165zM659 262l-105 -144h105v144zM60 477l53 -12q-3 -9 -3 -19q0 -24 19 -37.5t49 -13.5q66 0 66 61q0 29 -26 44t-68 15v45q76 0 76 57q0 19 -15.5 30.5t-38.5 11.5q-24 0 -40.5 -13.5
t-16.5 -35.5q0 -6 2 -16l-49 -6q-5 14 -5 31q0 37 30.5 62.5t78.5 25.5q51 0 82 -24.5t31 -60.5q0 -54 -52 -79q30 -9 49.5 -32.5t19.5 -56.5q0 -51 -35.5 -81t-88.5 -30q-57 0 -91.5 30.5t-34.5 69.5q0 20 8 34z" />
    <glyph glyph-name="questiondown" unicode="&#xbf;" horiz-adv-x="536" 
d="M235 301h86v-22q0 -71 -92 -148q-56 -47 -74.5 -79.5t-18.5 -81.5q0 -51 37.5 -84.5t98.5 -33.5q57 0 95.5 33.5t38.5 97.5q0 20 -5 42l73 13q12 -28 12 -69q0 -75 -61 -131t-153 -56q-100 0 -159 52t-59 132q0 63 27 108.5t98 105.5q31 27 43.5 53.5t12.5 67.5zM323 496
v-100h-92v100h92z" />
    <glyph glyph-name="Agrave" unicode="&#xc0;" horiz-adv-x="656" 
d="M6 0l278 700h88l278 -700h-86l-81 207h-310l-81 -207h-86zM307 549l-107 -272h255l-106 272q-14 36 -21 58zM296 904l64 -138h-71l-100 138h107z" />
    <glyph glyph-name="Aacute" unicode="&#xc1;" horiz-adv-x="656" 
d="M6 0l278 700h88l278 -700h-86l-81 207h-310l-81 -207h-86zM307 549l-107 -272h255l-106 272q-14 36 -21 58zM297 766l64 138h107l-100 -138h-71z" />
    <glyph glyph-name="Acircumflex" unicode="&#xc2;" horiz-adv-x="656" 
d="M6 0l278 700h88l278 -700h-86l-81 207h-310l-81 -207h-86zM307 549l-107 -272h255l-106 272q-14 36 -21 58zM194 766l100 138h68l100 -138h-68l-66 68l-66 -68h-68z" />
    <glyph glyph-name="Atilde" unicode="&#xc3;" horiz-adv-x="656" 
d="M6 0l278 700h88l278 -700h-86l-81 207h-310l-81 -207h-86zM307 549l-107 -272h255l-106 272q-14 36 -21 58zM256 832q-12 0 -20.5 -8t-8.5 -19q0 -12 7 -26l-60 -12q-12 18 -12 46q0 37 27 58.5t63 21.5q31 0 54 -10.5t34.5 -23t27 -23t32.5 -10.5q12 0 20.5 8t8.5 19
q0 12 -7 26l60 12q12 -18 12 -46q0 -38 -27 -59t-63 -21q-31 0 -54 10.5t-34.5 23t-27 23t-32.5 10.5z" />
    <glyph glyph-name="Adieresis" unicode="&#xc4;" horiz-adv-x="656" 
d="M6 0l278 700h88l278 -700h-86l-81 207h-310l-81 -207h-86zM307 549l-107 -272h255l-106 272q-14 36 -21 58zM361 792v92h92v-92h-92zM203 792v92h92v-92h-92z" />
    <glyph glyph-name="Aring" unicode="&#xc5;" horiz-adv-x="656" 
d="M6 0l278 700h88l278 -700h-86l-81 207h-310l-81 -207h-86zM307 549l-107 -272h255l-106 272q-14 36 -21 58zM282 839q0 -20 13 -33.5t33 -13.5t33 13.5t13 33.5t-13 33.5t-33 13.5t-33 -13.5t-13 -33.5zM232 839q0 40 28 67.5t68 27.5t68 -27.5t28 -67.5t-27 -67.5
t-69 -27.5t-69 27.5t-27 67.5z" />
    <glyph glyph-name="AE" unicode="&#xc6;" horiz-adv-x="932" 
d="M423 0v207h-241l-90 -207h-86l308 700h547v-74h-354v-227h326v-74h-326v-251h357v-74h-441zM366 626l-153 -349h210v349h-57z" />
    <glyph glyph-name="Ccedilla" unicode="&#xc7;" horiz-adv-x="748" 
d="M352 -104l-31 28l24 65q-127 17 -208 117.5t-81 243.5q0 155 100 259.5t242 104.5q102 0 178.5 -48.5t113.5 -131.5l-65 -46q-72 152 -229 152q-107 0 -180.5 -83.5t-73.5 -206.5q0 -125 70.5 -207.5t182.5 -82.5q79 0 134.5 35.5t96.5 115.5l63 -46q-95 -179 -296 -179
l-21 -41q19 11 44 11q32 0 54 -21.5t22 -55.5q0 -39 -26 -61t-65 -22q-33 0 -55.5 16t-29.5 45l48 12q10 -27 37 -27q35 0 35 37q0 16 -10.5 25.5t-27.5 9.5q-23 0 -46 -18z" />
    <glyph glyph-name="Egrave" unicode="&#xc8;" horiz-adv-x="597" 
d="M88 0v700h438v-74h-354v-227h326v-74h-326v-251h357v-74h-441zM308 904l64 -138h-71l-100 138h107z" />
    <glyph glyph-name="Eacute" unicode="&#xc9;" horiz-adv-x="597" 
d="M88 0v700h438v-74h-354v-227h326v-74h-326v-251h357v-74h-441zM251 766l64 138h107l-100 -138h-71z" />
    <glyph glyph-name="Ecircumflex" unicode="&#xca;" horiz-adv-x="597" 
d="M88 0v700h438v-74h-354v-227h326v-74h-326v-251h357v-74h-441zM176 766l100 138h68l100 -138h-68l-66 68l-66 -68h-68z" />
    <glyph glyph-name="Edieresis" unicode="&#xcb;" horiz-adv-x="597" 
d="M88 0v700h438v-74h-354v-227h326v-74h-326v-251h357v-74h-441zM343 792v92h92v-92h-92zM185 792v92h92v-92h-92z" />
    <glyph glyph-name="Igrave" unicode="&#xcc;" horiz-adv-x="260" 
d="M88 0v700h84v-700h-84zM108 904l64 -138h-71l-100 138h107z" />
    <glyph glyph-name="Iacute" unicode="&#xcd;" horiz-adv-x="260" 
d="M88 0v700h84v-700h-84zM88 766l64 138h107l-100 -138h-71z" />
    <glyph glyph-name="Icircumflex" unicode="&#xce;" horiz-adv-x="260" 
d="M88 0v700h84v-700h-84zM-4 766l100 138h68l100 -138h-68l-66 68l-66 -68h-68z" />
    <glyph glyph-name="Idieresis" unicode="&#xcf;" horiz-adv-x="260" 
d="M88 0v700h84v-700h-84zM163 792v92h92v-92h-92zM5 792v92h92v-92h-92z" />
    <glyph glyph-name="Eth" unicode="&#xd0;" horiz-adv-x="717" 
d="M40 315v70h72v315h193q159 0 257.5 -93t98.5 -257t-98.5 -257t-257.5 -93h-193v315h-72zM196 74h104q127 0 201 69t74 207t-74 207t-201 69h-104v-241h154v-70h-154v-241z" />
    <glyph glyph-name="Ntilde" unicode="&#xd1;" horiz-adv-x="708" 
d="M88 0v700h89l333 -527q24 -40 30 -55v582h80v-700h-89l-333 527q-24 40 -30 55v-582h-80zM282 832q-12 0 -20.5 -8t-8.5 -19q0 -12 7 -26l-60 -12q-12 18 -12 46q0 37 27 58.5t63 21.5q31 0 54 -10.5t34.5 -23t27 -23t32.5 -10.5q12 0 20.5 8t8.5 19q0 12 -7 26l60 12
q12 -18 12 -46q0 -38 -27 -59t-63 -21q-31 0 -54 10.5t-34.5 23t-27 23t-32.5 10.5z" />
    <glyph glyph-name="Ograve" unicode="&#xd2;" horiz-adv-x="788" 
d="M732 350q0 -161 -97 -262.5t-241 -101.5t-241 101.5t-97 262.5t97 262.5t241 101.5t241 -101.5t97 -262.5zM394 60q109 0 180.5 80.5t71.5 209.5t-71.5 209.5t-180.5 80.5t-180.5 -80.5t-71.5 -209.5t71.5 -209.5t180.5 -80.5zM386 904l64 -138h-71l-100 138h107z" />
    <glyph glyph-name="Oacute" unicode="&#xd3;" horiz-adv-x="788" 
d="M732 350q0 -161 -97 -262.5t-241 -101.5t-241 101.5t-97 262.5t97 262.5t241 101.5t241 -101.5t97 -262.5zM394 60q109 0 180.5 80.5t71.5 209.5t-71.5 209.5t-180.5 80.5t-180.5 -80.5t-71.5 -209.5t71.5 -209.5t180.5 -80.5zM339 766l64 138h107l-100 -138h-71z" />
    <glyph glyph-name="Ocircumflex" unicode="&#xd4;" horiz-adv-x="788" 
d="M732 350q0 -161 -97 -262.5t-241 -101.5t-241 101.5t-97 262.5t97 262.5t241 101.5t241 -101.5t97 -262.5zM394 60q109 0 180.5 80.5t71.5 209.5t-71.5 209.5t-180.5 80.5t-180.5 -80.5t-71.5 -209.5t71.5 -209.5t180.5 -80.5zM260 766l100 138h68l100 -138h-68l-66 68
l-66 -68h-68z" />
    <glyph glyph-name="Otilde" unicode="&#xd5;" horiz-adv-x="788" 
d="M732 350q0 -161 -97 -262.5t-241 -101.5t-241 101.5t-97 262.5t97 262.5t241 101.5t241 -101.5t97 -262.5zM394 60q109 0 180.5 80.5t71.5 209.5t-71.5 209.5t-180.5 80.5t-180.5 -80.5t-71.5 -209.5t71.5 -209.5t180.5 -80.5zM319 832q-12 0 -20.5 -8t-8.5 -19
q0 -12 7 -26l-60 -12q-12 18 -12 46q0 37 27 58.5t63 21.5q31 0 54 -10.5t34.5 -23t27 -23t32.5 -10.5q12 0 20.5 8t8.5 19q0 12 -7 26l60 12q12 -18 12 -46q0 -38 -27 -59t-63 -21q-31 0 -54 10.5t-34.5 23t-27 23t-32.5 10.5z" />
    <glyph glyph-name="Odieresis" unicode="&#xd6;" horiz-adv-x="788" 
d="M732 350q0 -161 -97 -262.5t-241 -101.5t-241 101.5t-97 262.5t97 262.5t241 101.5t241 -101.5t97 -262.5zM394 60q109 0 180.5 80.5t71.5 209.5t-71.5 209.5t-180.5 80.5t-180.5 -80.5t-71.5 -209.5t71.5 -209.5t180.5 -80.5zM427 792v92h92v-92h-92zM269 792v92h92v-92
h-92z" />
    <glyph glyph-name="multiply" unicode="&#xd7;" horiz-adv-x="506" 
d="M130 198l-44 44l123 123l-123 123l44 44l123 -123l123 123l44 -44l-123 -123l123 -123l-44 -44l-123 123z" />
    <glyph glyph-name="Oslash" unicode="&#xd8;" horiz-adv-x="788" 
d="M732 350q0 -161 -97 -262.5t-241 -101.5q-72 0 -136 28l-25 -48l-62 34l26 49q-66 48 -103.5 125.5t-37.5 175.5q0 161 97 262.5t241 101.5q72 0 136 -28l25 48l62 -34l-26 -49q66 -48 103.5 -125.5t37.5 -175.5zM394 60q109 0 180.5 80.5t71.5 209.5q0 148 -92 230
l-261 -499q45 -21 101 -21zM142 350q0 -148 92 -230l261 499q-45 21 -101 21q-109 0 -180.5 -80.5t-71.5 -209.5z" />
    <glyph glyph-name="Ugrave" unicode="&#xd9;" horiz-adv-x="670" 
d="M594 700v-465q0 -116 -71.5 -182.5t-187.5 -66.5t-187.5 66.5t-71.5 182.5v465h84v-470q0 -73 46 -121.5t129 -48.5t129 48.5t46 121.5v470h84zM327 904l64 -138h-71l-100 138h107z" />
    <glyph glyph-name="Uacute" unicode="&#xda;" horiz-adv-x="670" 
d="M594 700v-465q0 -116 -71.5 -182.5t-187.5 -66.5t-187.5 66.5t-71.5 182.5v465h84v-470q0 -73 46 -121.5t129 -48.5t129 48.5t46 121.5v470h84zM280 766l64 138h107l-100 -138h-71z" />
    <glyph glyph-name="Ucircumflex" unicode="&#xdb;" horiz-adv-x="670" 
d="M594 700v-465q0 -116 -71.5 -182.5t-187.5 -66.5t-187.5 66.5t-71.5 182.5v465h84v-470q0 -73 46 -121.5t129 -48.5t129 48.5t46 121.5v470h84zM201 766l100 138h68l100 -138h-68l-66 68l-66 -68h-68z" />
    <glyph glyph-name="Udieresis" unicode="&#xdc;" horiz-adv-x="670" 
d="M594 700v-465q0 -116 -71.5 -182.5t-187.5 -66.5t-187.5 66.5t-71.5 182.5v465h84v-470q0 -73 46 -121.5t129 -48.5t129 48.5t46 121.5v470h84zM368 792v92h92v-92h-92zM210 792v92h92v-92h-92z" />
    <glyph glyph-name="Yacute" unicode="&#xdd;" horiz-adv-x="552" 
d="M234 0v287l-230 413h91l159 -296q13 -25 22 -49l22 49l159 296h91l-230 -413v-287h-84zM211 766l64 138h107l-100 -138h-71z" />
    <glyph glyph-name="Thorn" unicode="&#xde;" horiz-adv-x="678" 
d="M88 0v700h84v-132h210q111 0 176.5 -59.5t65.5 -158.5t-65.5 -158.5t-176.5 -59.5h-210v-132h-84zM172 494v-288h206q77 0 119.5 36.5t42.5 107.5t-42.5 107.5t-119.5 36.5h-206z" />
    <glyph glyph-name="germandbls" unicode="&#xdf;" horiz-adv-x="594" 
d="M249 349v66h23q69 0 110.5 33t41.5 92q0 48 -36 77t-85 29q-51 0 -86.5 -33t-35.5 -99v-514h-78v434h-78v62h78v14q0 99 60 151.5t140 52.5q86 0 140.5 -47t54.5 -119q0 -61 -35.5 -100.5t-89.5 -56.5q171 -47 171 -196q0 -89 -55 -149t-138 -60t-149 53l38 61
q53 -46 109 -46q51 0 84 39.5t33 100.5q0 75 -56 115t-137 40h-24z" />
    <glyph glyph-name="agrave" unicode="&#xe0;" horiz-adv-x="543" 
d="M496 0h-78q-30 36 -30 98q-23 -54 -67.5 -83t-101.5 -29q-75 0 -121 42.5t-46 108.5q0 68 47.5 109t123.5 53l165 27v22q0 96 -117 96q-56 0 -86.5 -22t-30.5 -55q0 -7 2 -15l-68 -23q-8 19 -8 40q0 58 52.5 99.5t138.5 41.5q96 0 145.5 -42.5t49.5 -119.5v-224
q0 -43 6 -68.5t24 -55.5zM228 56q75 0 117.5 56.5t42.5 136.5v15l-151 -26q-51 -9 -78 -34t-27 -63q0 -39 26 -62t70 -23zM253 700l64 -138h-71l-100 138h107z" />
    <glyph glyph-name="aacute" unicode="&#xe1;" horiz-adv-x="543" 
d="M496 0h-78q-30 36 -30 98q-23 -54 -67.5 -83t-101.5 -29q-75 0 -121 42.5t-46 108.5q0 68 47.5 109t123.5 53l165 27v22q0 96 -117 96q-56 0 -86.5 -22t-30.5 -55q0 -7 2 -15l-68 -23q-8 19 -8 40q0 58 52.5 99.5t138.5 41.5q96 0 145.5 -42.5t49.5 -119.5v-224
q0 -43 6 -68.5t24 -55.5zM228 56q75 0 117.5 56.5t42.5 136.5v15l-151 -26q-51 -9 -78 -34t-27 -63q0 -39 26 -62t70 -23zM216 562l64 138h107l-100 -138h-71z" />
    <glyph glyph-name="acircumflex" unicode="&#xe2;" horiz-adv-x="543" 
d="M496 0h-78q-30 36 -30 98q-23 -54 -67.5 -83t-101.5 -29q-75 0 -121 42.5t-46 108.5q0 68 47.5 109t123.5 53l165 27v22q0 96 -117 96q-56 0 -86.5 -22t-30.5 -55q0 -7 2 -15l-68 -23q-8 19 -8 40q0 58 52.5 99.5t138.5 41.5q96 0 145.5 -42.5t49.5 -119.5v-224
q0 -43 6 -68.5t24 -55.5zM228 56q75 0 117.5 56.5t42.5 136.5v15l-151 -26q-51 -9 -78 -34t-27 -63q0 -39 26 -62t70 -23zM137 562l100 138h68l100 -138h-68l-66 68l-66 -68h-68z" />
    <glyph glyph-name="atilde" unicode="&#xe3;" horiz-adv-x="543" 
d="M496 0h-78q-30 36 -30 98q-23 -54 -67.5 -83t-101.5 -29q-75 0 -121 42.5t-46 108.5q0 68 47.5 109t123.5 53l165 27v22q0 96 -117 96q-56 0 -86.5 -22t-30.5 -55q0 -7 2 -15l-68 -23q-8 19 -8 40q0 58 52.5 99.5t138.5 41.5q96 0 145.5 -42.5t49.5 -119.5v-224
q0 -43 6 -68.5t24 -55.5zM228 56q75 0 117.5 56.5t42.5 136.5v15l-151 -26q-51 -9 -78 -34t-27 -63q0 -39 26 -62t70 -23zM193 628q-12 0 -20.5 -8t-8.5 -19q0 -12 7 -26l-60 -12q-12 18 -12 46q0 37 27 58.5t63 21.5q31 0 54 -10.5t34.5 -23t27 -23t32.5 -10.5q12 0 20.5 8
t8.5 19q0 12 -7 26l60 12q12 -18 12 -46q0 -38 -27 -59t-63 -21q-31 0 -54 10.5t-34.5 23t-27 23t-32.5 10.5z" />
    <glyph glyph-name="adieresis" unicode="&#xe4;" horiz-adv-x="543" 
d="M496 0h-78q-30 36 -30 98q-23 -54 -67.5 -83t-101.5 -29q-75 0 -121 42.5t-46 108.5q0 68 47.5 109t123.5 53l165 27v22q0 96 -117 96q-56 0 -86.5 -22t-30.5 -55q0 -7 2 -15l-68 -23q-8 19 -8 40q0 58 52.5 99.5t138.5 41.5q96 0 145.5 -42.5t49.5 -119.5v-224
q0 -43 6 -68.5t24 -55.5zM228 56q75 0 117.5 56.5t42.5 136.5v15l-151 -26q-51 -9 -78 -34t-27 -63q0 -39 26 -62t70 -23zM304 588v92h92v-92h-92zM146 588v92h92v-92h-92z" />
    <glyph glyph-name="aring" unicode="&#xe5;" horiz-adv-x="543" 
d="M496 0h-78q-30 36 -30 98q-23 -54 -67.5 -83t-101.5 -29q-75 0 -121 42.5t-46 108.5q0 68 47.5 109t123.5 53l165 27v22q0 96 -117 96q-56 0 -86.5 -22t-30.5 -55q0 -7 2 -15l-68 -23q-8 19 -8 40q0 58 52.5 99.5t138.5 41.5q96 0 145.5 -42.5t49.5 -119.5v-224
q0 -43 6 -68.5t24 -55.5zM228 56q75 0 117.5 56.5t42.5 136.5v15l-151 -26q-51 -9 -78 -34t-27 -63q0 -39 26 -62t70 -23zM225 635q0 -20 13 -33.5t33 -13.5t33 13.5t13 33.5t-13 33.5t-33 13.5t-33 -13.5t-13 -33.5zM175 635q0 40 28 67.5t68 27.5t68 -27.5t28 -67.5
t-27 -67.5t-69 -27.5t-69 27.5t-27 67.5z" />
    <glyph glyph-name="ae" unicode="&#xe6;" horiz-adv-x="920" 
d="M876 235h-410q4 -80 50 -131.5t121 -51.5q63 0 101.5 29.5t65.5 83.5l57 -34q-73 -145 -227 -145q-68 0 -124.5 35t-85.5 95q-31 -65 -85.5 -97.5t-119.5 -32.5q-72 0 -119.5 43t-47.5 108q0 71 47.5 110.5t138.5 47.5q53 4 106 4h44v31q0 62 -29 88t-88 26
q-56 0 -86.5 -22t-30.5 -55q0 -7 2 -15l-68 -23q-8 19 -8 40q0 58 53 99.5t136 41.5q132 0 176 -95q31 42 83.5 68.5t108.5 26.5q108 0 173.5 -69t65.5 -179v-27zM637 444q-65 0 -108 -39.5t-57 -105.5h326q-4 67 -52 106t-109 39zM227 56q76 0 118.5 51t42.5 123v5h-102
q-154 0 -154 -95q0 -38 26 -61t69 -23z" />
    <glyph glyph-name="ccedilla" unicode="&#xe7;" horiz-adv-x="557" 
d="M255 -104l-31 28l24 66q-91 16 -148.5 86.5t-57.5 171.5q0 113 74.5 187.5t179.5 74.5q79 0 136 -36t84 -100l-59 -39q-49 105 -160 105q-76 0 -126.5 -52.5t-50.5 -139.5t49.5 -139.5t127.5 -52.5q59 0 98 27.5t68 81.5l56 -36q-72 -143 -223 -143l-21 -41q19 11 44 11
q32 0 54 -21.5t22 -55.5q0 -39 -26 -61t-65 -22q-33 0 -55.5 16t-29.5 45l48 12q10 -27 37 -27q35 0 35 37q0 16 -10 25.5t-27 9.5q-24 0 -47 -18z" />
    <glyph glyph-name="egrave" unicode="&#xe8;" horiz-adv-x="574" 
d="M530 235h-410q4 -80 50 -131.5t121 -51.5q63 0 101.5 29.5t65.5 83.5l57 -34q-73 -145 -227 -145q-103 0 -174.5 74.5t-71.5 187.5t72 187.5t177 74.5q110 0 174.5 -69t64.5 -179v-27zM291 444q-65 0 -108 -39.5t-57 -105.5h326q-4 67 -52 106t-109 39zM279 700l64 -138
h-71l-100 138h107z" />
    <glyph glyph-name="eacute" unicode="&#xe9;" horiz-adv-x="574" 
d="M530 235h-410q4 -80 50 -131.5t121 -51.5q63 0 101.5 29.5t65.5 83.5l57 -34q-73 -145 -227 -145q-103 0 -174.5 74.5t-71.5 187.5t72 187.5t177 74.5q110 0 174.5 -69t64.5 -179v-27zM291 444q-65 0 -108 -39.5t-57 -105.5h326q-4 67 -52 106t-109 39zM232 562l64 138
h107l-100 -138h-71z" />
    <glyph glyph-name="ecircumflex" unicode="&#xea;" horiz-adv-x="574" 
d="M530 235h-410q4 -80 50 -131.5t121 -51.5q63 0 101.5 29.5t65.5 83.5l57 -34q-73 -145 -227 -145q-103 0 -174.5 74.5t-71.5 187.5t72 187.5t177 74.5q110 0 174.5 -69t64.5 -179v-27zM291 444q-65 0 -108 -39.5t-57 -105.5h326q-4 67 -52 106t-109 39zM153 562l100 138
h68l100 -138h-68l-66 68l-66 -68h-68z" />
    <glyph glyph-name="edieresis" unicode="&#xeb;" horiz-adv-x="574" 
d="M530 235h-410q4 -80 50 -131.5t121 -51.5q63 0 101.5 29.5t65.5 83.5l57 -34q-73 -145 -227 -145q-103 0 -174.5 74.5t-71.5 187.5t72 187.5t177 74.5q110 0 174.5 -69t64.5 -179v-27zM291 444q-65 0 -108 -39.5t-57 -105.5h326q-4 67 -52 106t-109 39zM320 588v92h92
v-92h-92zM162 588v92h92v-92h-92z" />
    <glyph glyph-name="igrave" unicode="&#xec;" horiz-adv-x="230" 
d="M76 0v496h78v-496h-78zM90 700l64 -138h-71l-100 138h107z" />
    <glyph glyph-name="iacute" unicode="&#xed;" horiz-adv-x="230" 
d="M76 0v496h78v-496h-78zM76 562l64 138h107l-100 -138h-71z" />
    <glyph glyph-name="icircumflex" unicode="&#xee;" horiz-adv-x="230" 
d="M76 0v496h78v-496h-78zM-19 562l100 138h68l100 -138h-68l-66 68l-66 -68h-68z" />
    <glyph glyph-name="idieresis" unicode="&#xef;" horiz-adv-x="230" 
d="M76 0v496h78v-496h-78zM148 588v92h92v-92h-92zM-10 588v92h92v-92h-92z" />
    <glyph glyph-name="eth" unicode="&#xf0;" horiz-adv-x="580" 
d="M223 510l-23 61l93 36q-63 48 -135 77l36 58q102 -50 171 -107l99 38l24 -61l-71 -27q114 -127 114 -311q0 -76 -21 -134t-56.5 -90.5t-76.5 -48t-87 -15.5q-96 0 -168.5 62t-72.5 176q0 113 72 175.5t163 62.5q54 0 100 -25.5t69 -64.5q-23 104 -105 186zM290 56
q65 0 113 44.5t48 123.5t-48 123.5t-113 44.5t-113 -44.5t-48 -123.5t48 -123.5t113 -44.5z" />
    <glyph glyph-name="ntilde" unicode="&#xf1;" horiz-adv-x="571" 
d="M495 337v-337h-78v323q0 57 -32.5 87t-86.5 30q-59 0 -101.5 -45.5t-42.5 -119.5v-275h-78v496h78v-87q27 47 70.5 74t96.5 27q73 0 123.5 -43.5t50.5 -129.5zM213 628q-12 0 -20.5 -8t-8.5 -19q0 -12 7 -26l-60 -12q-12 18 -12 46q0 37 27 58.5t63 21.5q31 0 54 -10.5
t34.5 -23t27 -23t32.5 -10.5q12 0 20.5 8t8.5 19q0 12 -7 26l60 12q12 -18 12 -46q0 -38 -27 -59t-63 -21q-31 0 -54 10.5t-34.5 23t-27 23t-32.5 10.5z" />
    <glyph glyph-name="ograve" unicode="&#xf2;" horiz-adv-x="602" 
d="M560 248q0 -81 -39.5 -142t-97.5 -90.5t-122 -29.5t-122 29.5t-97.5 90.5t-39.5 142t39.5 142t97.5 90.5t122 29.5t122 -29.5t97.5 -90.5t39.5 -142zM301 56q76 0 127.5 54.5t51.5 137.5t-51.5 137.5t-127.5 54.5t-127.5 -54.5t-51.5 -137.5t51.5 -137.5t127.5 -54.5z
M282 700l64 -138h-71l-100 138h107z" />
    <glyph glyph-name="oacute" unicode="&#xf3;" horiz-adv-x="602" 
d="M560 248q0 -81 -39.5 -142t-97.5 -90.5t-122 -29.5t-122 29.5t-97.5 90.5t-39.5 142t39.5 142t97.5 90.5t122 29.5t122 -29.5t97.5 -90.5t39.5 -142zM301 56q76 0 127.5 54.5t51.5 137.5t-51.5 137.5t-127.5 54.5t-127.5 -54.5t-51.5 -137.5t51.5 -137.5t127.5 -54.5z
M257 562l64 138h107l-100 -138h-71z" />
    <glyph glyph-name="ocircumflex" unicode="&#xf4;" horiz-adv-x="602" 
d="M560 248q0 -81 -39.5 -142t-97.5 -90.5t-122 -29.5t-122 29.5t-97.5 90.5t-39.5 142t39.5 142t97.5 90.5t122 29.5t122 -29.5t97.5 -90.5t39.5 -142zM301 56q76 0 127.5 54.5t51.5 137.5t-51.5 137.5t-127.5 54.5t-127.5 -54.5t-51.5 -137.5t51.5 -137.5t127.5 -54.5z
M167 562l100 138h68l100 -138h-68l-66 68l-66 -68h-68z" />
    <glyph glyph-name="otilde" unicode="&#xf5;" horiz-adv-x="602" 
d="M560 248q0 -81 -39.5 -142t-97.5 -90.5t-122 -29.5t-122 29.5t-97.5 90.5t-39.5 142t39.5 142t97.5 90.5t122 29.5t122 -29.5t97.5 -90.5t39.5 -142zM301 56q76 0 127.5 54.5t51.5 137.5t-51.5 137.5t-127.5 54.5t-127.5 -54.5t-51.5 -137.5t51.5 -137.5t127.5 -54.5z
M229 628q-12 0 -20.5 -8t-8.5 -19q0 -12 7 -26l-60 -12q-12 18 -12 46q0 37 27 58.5t63 21.5q31 0 54 -10.5t34.5 -23t27 -23t32.5 -10.5q12 0 20.5 8t8.5 19q0 12 -7 26l60 12q12 -18 12 -46q0 -38 -27 -59t-63 -21q-31 0 -54 10.5t-34.5 23t-27 23t-32.5 10.5z" />
    <glyph glyph-name="odieresis" unicode="&#xf6;" horiz-adv-x="602" 
d="M560 248q0 -81 -39.5 -142t-97.5 -90.5t-122 -29.5t-122 29.5t-97.5 90.5t-39.5 142t39.5 142t97.5 90.5t122 29.5t122 -29.5t97.5 -90.5t39.5 -142zM301 56q76 0 127.5 54.5t51.5 137.5t-51.5 137.5t-127.5 54.5t-127.5 -54.5t-51.5 -137.5t51.5 -137.5t127.5 -54.5z
M334 588v92h92v-92h-92zM176 588v92h92v-92h-92z" />
    <glyph glyph-name="divide" unicode="&#xf7;" horiz-adv-x="506" 
d="M206 0v98h94v-98h-94zM206 378v98h94v-98h-94zM48 207v62h410v-62h-410z" />
    <glyph glyph-name="oslash" unicode="&#xf8;" horiz-adv-x="602" 
d="M560 248q0 -81 -39.5 -142t-97.5 -90.5t-122 -29.5q-51 0 -100 20l-23 -40l-61 34l24 41q-99 75 -99 207q0 81 39.5 142t97.5 90.5t122 29.5q51 0 100 -20l23 40l61 -34l-24 -41q99 -75 99 -207zM122 248q0 -84 56 -142l187 322q-30 12 -64 12q-76 0 -127.5 -54.5
t-51.5 -137.5zM301 56q76 0 127.5 54.5t51.5 137.5q0 84 -56 142l-187 -322q30 -12 64 -12z" />
    <glyph glyph-name="ugrave" unicode="&#xf9;" horiz-adv-x="571" 
d="M76 169v327h78v-323q0 -57 32 -87t85 -30q61 0 103.5 45t42.5 117v278h78v-496h-78v87q-53 -101 -165 -101q-75 0 -125.5 45t-50.5 138zM277 700l64 -138h-71l-100 138h107z" />
    <glyph glyph-name="uacute" unicode="&#xfa;" horiz-adv-x="571" 
d="M76 169v327h78v-323q0 -57 32 -87t85 -30q61 0 103.5 45t42.5 117v278h78v-496h-78v87q-53 -101 -165 -101q-75 0 -125.5 45t-50.5 138zM230 562l64 138h107l-100 -138h-71z" />
    <glyph glyph-name="ucircumflex" unicode="&#xfb;" horiz-adv-x="571" 
d="M76 169v327h78v-323q0 -57 32 -87t85 -30q61 0 103.5 45t42.5 117v278h78v-496h-78v87q-53 -101 -165 -101q-75 0 -125.5 45t-50.5 138zM151 562l100 138h68l100 -138h-68l-66 68l-66 -68h-68z" />
    <glyph glyph-name="udieresis" unicode="&#xfc;" horiz-adv-x="571" 
d="M76 169v327h78v-323q0 -57 32 -87t85 -30q61 0 103.5 45t42.5 117v278h78v-496h-78v87q-53 -101 -165 -101q-75 0 -125.5 45t-50.5 138zM318 588v92h92v-92h-92zM160 588v92h92v-92h-92z" />
    <glyph glyph-name="yacute" unicode="&#xfd;" horiz-adv-x="493" 
d="M56 -201l12 70q20 -10 40 -10q23 0 36 11t24 38l37 94l-200 494h86l157 -389l155 389h84l-249 -613q-21 -52 -51.5 -73t-78.5 -21q-28 0 -52 10zM192 562l64 138h107l-100 -138h-71z" />
    <glyph glyph-name="thorn" unicode="&#xfe;" horiz-adv-x="608" 
d="M76 -204v904h78v-293q23 45 71 74t107 29q100 0 167 -72t67 -190t-69 -190t-170 -72q-116 0 -173 93v-283h-78zM317 438q-73 0 -121 -52.5t-48 -137.5t48 -137.5t121 -52.5t121 52.5t48 137.5t-48 137.5t-121 52.5z" />
    <glyph glyph-name="ydieresis" unicode="&#xff;" horiz-adv-x="493" 
d="M56 -201l12 70q20 -10 40 -10q23 0 36 11t24 38l37 94l-200 494h86l157 -389l155 389h84l-249 -613q-21 -52 -51.5 -73t-78.5 -21q-28 0 -52 10zM280 588v92h92v-92h-92zM122 588v92h92v-92h-92z" />
    <glyph glyph-name="Amacron" unicode="&#x100;" horiz-adv-x="656" 
d="M6 0l278 700h88l278 -700h-86l-81 207h-310l-81 -207h-86zM307 549l-107 -272h255l-106 272q-14 36 -21 58zM218 804v70h220v-70h-220z" />
    <glyph glyph-name="amacron" unicode="&#x101;" horiz-adv-x="543" 
d="M496 0h-78q-30 36 -30 98q-23 -54 -67.5 -83t-101.5 -29q-75 0 -121 42.5t-46 108.5q0 68 47.5 109t123.5 53l165 27v22q0 96 -117 96q-56 0 -86.5 -22t-30.5 -55q0 -7 2 -15l-68 -23q-8 19 -8 40q0 58 52.5 99.5t138.5 41.5q96 0 145.5 -42.5t49.5 -119.5v-224
q0 -43 6 -68.5t24 -55.5zM228 56q75 0 117.5 56.5t42.5 136.5v15l-151 -26q-51 -9 -78 -34t-27 -63q0 -39 26 -62t70 -23zM161 600v70h220v-70h-220z" />
    <glyph glyph-name="Abreve" unicode="&#x102;" horiz-adv-x="656" 
d="M6 0l278 700h88l278 -700h-86l-81 207h-310l-81 -207h-86zM307 549l-107 -272h255l-106 272q-14 36 -21 58zM367 876h64q0 -46 -29 -75t-74 -29t-74 29t-29 75h64q0 -44 39 -44t39 44z" />
    <glyph glyph-name="abreve" unicode="&#x103;" horiz-adv-x="543" 
d="M496 0h-78q-30 36 -30 98q-23 -54 -67.5 -83t-101.5 -29q-75 0 -121 42.5t-46 108.5q0 68 47.5 109t123.5 53l165 27v22q0 96 -117 96q-56 0 -86.5 -22t-30.5 -55q0 -7 2 -15l-68 -23q-8 19 -8 40q0 58 52.5 99.5t138.5 41.5q96 0 145.5 -42.5t49.5 -119.5v-224
q0 -43 6 -68.5t24 -55.5zM228 56q75 0 117.5 56.5t42.5 136.5v15l-151 -26q-51 -9 -78 -34t-27 -63q0 -39 26 -62t70 -23zM310 672h64q0 -46 -29 -75t-74 -29t-74 29t-29 75h64q0 -44 39 -44t39 44z" />
    <glyph glyph-name="Aogonek" unicode="&#x104;" horiz-adv-x="656" 
d="M508 -105q0 54 56 105l-81 207h-310l-81 -207h-86l278 700h88l278 -700q-71 -38 -71 -83q0 -21 13 -33t36 -12q5 0 19 2l9 -66q-21 -6 -45 -6q-42 0 -72.5 24.5t-30.5 68.5zM307 549l-107 -272h255l-106 272q-14 36 -21 58z" />
    <glyph glyph-name="aogonek" unicode="&#x105;" horiz-adv-x="543" 
d="M354 -105q0 63 64 105q-30 36 -30 98q-23 -54 -67.5 -83t-101.5 -29q-75 0 -121 42.5t-46 108.5q0 68 47.5 109t123.5 53l165 27v22q0 96 -117 96q-56 0 -86.5 -22t-30.5 -55q0 -7 2 -15l-68 -23q-8 19 -8 40q0 58 52.5 99.5t138.5 41.5q96 0 145.5 -42.5t49.5 -119.5
v-224q0 -43 6 -68.5t24 -55.5q-71 -38 -71 -83q0 -21 13 -33t36 -12q5 0 19 2l9 -66q-21 -6 -45 -6q-42 0 -72.5 24.5t-30.5 68.5zM228 56q75 0 117.5 56.5t42.5 136.5v15l-151 -26q-51 -9 -78 -34t-27 -63q0 -39 26 -62t70 -23z" />
    <glyph glyph-name="Cacute" unicode="&#x106;" horiz-adv-x="748" 
d="M626 211l63 -46q-95 -179 -296 -179q-145 0 -241 103.5t-96 260.5q0 155 100 259.5t242 104.5q102 0 178.5 -48.5t113.5 -131.5l-65 -46q-72 152 -229 152q-107 0 -180.5 -83.5t-73.5 -206.5q0 -125 70.5 -207.5t182.5 -82.5q79 0 134.5 35.5t96.5 115.5zM329 766l64 138
h107l-100 -138h-71z" />
    <glyph glyph-name="cacute" unicode="&#x107;" horiz-adv-x="557" 
d="M463 165l56 -36q-72 -143 -223 -143q-108 0 -181 74t-73 188q0 113 74.5 187.5t179.5 74.5q79 0 136 -36t84 -100l-59 -39q-49 105 -160 105q-76 0 -126.5 -52.5t-50.5 -139.5t49.5 -139.5t127.5 -52.5q59 0 98 27.5t68 81.5zM233 562l64 138h107l-100 -138h-71z" />
    <glyph glyph-name="Ccircumflex" unicode="&#x108;" horiz-adv-x="748" 
d="M626 211l63 -46q-95 -179 -296 -179q-145 0 -241 103.5t-96 260.5q0 155 100 259.5t242 104.5q102 0 178.5 -48.5t113.5 -131.5l-65 -46q-72 152 -229 152q-107 0 -180.5 -83.5t-73.5 -206.5q0 -125 70.5 -207.5t182.5 -82.5q79 0 134.5 35.5t96.5 115.5zM260 766
l100 138h68l100 -138h-68l-66 68l-66 -68h-68z" />
    <glyph glyph-name="ccircumflex" unicode="&#x109;" horiz-adv-x="557" 
d="M463 165l56 -36q-72 -143 -223 -143q-108 0 -181 74t-73 188q0 113 74.5 187.5t179.5 74.5q79 0 136 -36t84 -100l-59 -39q-49 105 -160 105q-76 0 -126.5 -52.5t-50.5 -139.5t49.5 -139.5t127.5 -52.5q59 0 98 27.5t68 81.5zM159 562l100 138h68l100 -138h-68l-66 68
l-66 -68h-68z" />
    <glyph glyph-name="Cdotaccent" unicode="&#x10a;" horiz-adv-x="748" 
d="M626 211l63 -46q-95 -179 -296 -179q-145 0 -241 103.5t-96 260.5q0 155 100 259.5t242 104.5q102 0 178.5 -48.5t113.5 -131.5l-65 -46q-72 152 -229 152q-107 0 -180.5 -83.5t-73.5 -206.5q0 -125 70.5 -207.5t182.5 -82.5q79 0 134.5 35.5t96.5 115.5zM347 786v98h94
v-98h-94z" />
    <glyph glyph-name="cdotaccent" unicode="&#x10b;" horiz-adv-x="557" 
d="M463 165l56 -36q-72 -143 -223 -143q-108 0 -181 74t-73 188q0 113 74.5 187.5t179.5 74.5q79 0 136 -36t84 -100l-59 -39q-49 105 -160 105q-76 0 -126.5 -52.5t-50.5 -139.5t49.5 -139.5t127.5 -52.5q59 0 98 27.5t68 81.5zM246 582v98h94v-98h-94z" />
    <glyph glyph-name="Ccaron" unicode="&#x10c;" horiz-adv-x="748" 
d="M626 211l63 -46q-95 -179 -296 -179q-145 0 -241 103.5t-96 260.5q0 155 100 259.5t242 104.5q102 0 178.5 -48.5t113.5 -131.5l-65 -46q-72 152 -229 152q-107 0 -180.5 -83.5t-73.5 -206.5q0 -125 70.5 -207.5t182.5 -82.5q79 0 134.5 35.5t96.5 115.5zM360 766
l-100 138h68l66 -68l66 68h68l-100 -138h-68z" />
    <glyph glyph-name="ccaron" unicode="&#x10d;" horiz-adv-x="557" 
d="M463 165l56 -36q-72 -143 -223 -143q-108 0 -181 74t-73 188q0 113 74.5 187.5t179.5 74.5q79 0 136 -36t84 -100l-59 -39q-49 105 -160 105q-76 0 -126.5 -52.5t-50.5 -139.5t49.5 -139.5t127.5 -52.5q59 0 98 27.5t68 81.5zM259 562l-100 138h68l66 -68l66 68h68
l-100 -138h-68z" />
    <glyph glyph-name="Dcaron" unicode="&#x10e;" horiz-adv-x="693" 
d="M88 0v700h193q159 0 257.5 -93t98.5 -257t-98.5 -257t-257.5 -93h-193zM276 74q127 0 201 69t74 207t-74 207t-201 69h-104v-552h104zM222 766l-100 138h68l66 -68l66 68h68l-100 -138h-68z" />
    <glyph glyph-name="dcaron" unicode="&#x10f;" horiz-adv-x="693" 
d="M628 505l-22 13l36 94h-35v88h86v-88zM531 700v-700h-78v89q-59 -103 -171 -103q-104 0 -172 73.5t-68 188.5q0 112 70 187t165 75q61 0 107 -27.5t69 -76.5v294h78zM291 58q72 0 120 52.5t48 137.5t-48 137.5t-120 52.5t-120.5 -52.5t-48.5 -137.5t48.5 -137.5
t120.5 -52.5z" />
    <glyph glyph-name="Dcroat" unicode="&#x110;" horiz-adv-x="717" 
d="M40 315v70h72v315h193q159 0 257.5 -93t98.5 -257t-98.5 -257t-257.5 -93h-193v315h-72zM196 74h104q127 0 201 69t74 207t-74 207t-201 69h-104v-241h154v-70h-154v-241z" />
    <glyph glyph-name="dcroat" unicode="&#x111;" horiz-adv-x="605" 
d="M531 700v-68h66v-64h-66v-568h-78v89q-59 -103 -171 -103q-104 0 -172 73.5t-68 188.5q0 112 70 187t165 75q61 0 107 -27.5t69 -76.5v162h-162v64h162v68h78zM291 58q72 0 120 52.5t48 137.5t-48 137.5t-120 52.5t-120.5 -52.5t-48.5 -137.5t48.5 -137.5t120.5 -52.5z
" />
    <glyph glyph-name="Emacron" unicode="&#x112;" horiz-adv-x="597" 
d="M88 0v700h438v-74h-354v-227h326v-74h-326v-251h357v-74h-441zM198 804v70h220v-70h-220z" />
    <glyph glyph-name="emacron" unicode="&#x113;" horiz-adv-x="574" 
d="M530 235h-410q4 -80 50 -131.5t121 -51.5q63 0 101.5 29.5t65.5 83.5l57 -34q-73 -145 -227 -145q-103 0 -174.5 74.5t-71.5 187.5t72 187.5t177 74.5q110 0 174.5 -69t64.5 -179v-27zM291 444q-65 0 -108 -39.5t-57 -105.5h326q-4 67 -52 106t-109 39zM179 600v70h220
v-70h-220z" />
    <glyph glyph-name="Ebreve" unicode="&#x114;" horiz-adv-x="597" 
d="M88 0v700h438v-74h-354v-227h326v-74h-326v-251h357v-74h-441zM347 876h64q0 -46 -29 -75t-74 -29t-74 29t-29 75h64q0 -44 39 -44t39 44z" />
    <glyph glyph-name="ebreve" unicode="&#x115;" horiz-adv-x="574" 
d="M530 235h-410q4 -80 50 -131.5t121 -51.5q63 0 101.5 29.5t65.5 83.5l57 -34q-73 -145 -227 -145q-103 0 -174.5 74.5t-71.5 187.5t72 187.5t177 74.5q110 0 174.5 -69t64.5 -179v-27zM291 444q-65 0 -108 -39.5t-57 -105.5h326q-4 67 -52 106t-109 39zM328 672h64
q0 -46 -29 -75t-74 -29t-74 29t-29 75h64q0 -44 39 -44t39 44z" />
    <glyph glyph-name="Edotaccent" unicode="&#x116;" horiz-adv-x="597" 
d="M88 0v700h438v-74h-354v-227h326v-74h-326v-251h357v-74h-441zM261 786v98h94v-98h-94z" />
    <glyph glyph-name="edotaccent" unicode="&#x117;" horiz-adv-x="574" 
d="M530 235h-410q4 -80 50 -131.5t121 -51.5q63 0 101.5 29.5t65.5 83.5l57 -34q-73 -145 -227 -145q-103 0 -174.5 74.5t-71.5 187.5t72 187.5t177 74.5q110 0 174.5 -69t64.5 -179v-27zM291 444q-65 0 -108 -39.5t-57 -105.5h326q-4 67 -52 106t-109 39zM242 582v98h94
v-98h-94z" />
    <glyph glyph-name="Eogonek" unicode="&#x118;" horiz-adv-x="597" 
d="M88 0v700h438v-74h-354v-227h326v-74h-326v-251h357v-74q-71 -38 -71 -83q0 -21 13 -33t36 -12q5 0 19 2l9 -66q-21 -6 -45 -6q-42 0 -72.5 24.5t-30.5 68.5q0 63 62 105h-361z" />
    <glyph glyph-name="eogonek" unicode="&#x119;" horiz-adv-x="574" 
d="M235 -105q0 52 45 91q-100 3 -169 77t-69 185q0 113 72 187.5t177 74.5q110 0 174.5 -69t64.5 -179v-27h-410q4 -80 50 -131.5t121 -51.5q63 0 101.5 29.5t65.5 83.5l57 -34q-26 -50 -57.5 -80.5t-80.5 -50.5q-32 -13 -51.5 -34t-19.5 -46q0 -23 13 -35.5t36 -12.5
q5 0 19 2l9 -66q-21 -6 -45 -6q-42 0 -72.5 24.5t-30.5 68.5zM291 444q-65 0 -108 -39.5t-57 -105.5h326q-4 67 -52 106t-109 39z" />
    <glyph glyph-name="Ecaron" unicode="&#x11a;" horiz-adv-x="597" 
d="M88 0v700h438v-74h-354v-227h326v-74h-326v-251h357v-74h-441zM274 766l-100 138h68l66 -68l66 68h68l-100 -138h-68z" />
    <glyph glyph-name="ecaron" unicode="&#x11b;" horiz-adv-x="574" 
d="M530 235h-410q4 -80 50 -131.5t121 -51.5q63 0 101.5 29.5t65.5 83.5l57 -34q-73 -145 -227 -145q-103 0 -174.5 74.5t-71.5 187.5t72 187.5t177 74.5q110 0 174.5 -69t64.5 -179v-27zM291 444q-65 0 -108 -39.5t-57 -105.5h326q-4 67 -52 106t-109 39zM255 562l-100 138
h68l66 -68l66 68h68l-100 -138h-68z" />
    <glyph glyph-name="Gcircumflex" unicode="&#x11c;" horiz-adv-x="766" 
d="M637 0l-24 121q-31 -62 -88 -98.5t-136 -36.5q-147 0 -240 103t-93 261q0 155 100.5 259.5t241.5 104.5q100 0 175.5 -45.5t116.5 -124.5l-64 -46q-44 76 -99.5 109t-129.5 33q-105 0 -180 -82t-75 -208q0 -129 68.5 -209.5t181.5 -80.5q95 0 149.5 59t69.5 162h-246v70
h330v-351h-58zM259 766l100 138h68l100 -138h-68l-66 68l-66 -68h-68z" />
    <glyph glyph-name="gcircumflex" unicode="&#x11d;" horiz-adv-x="587" 
d="M80 -23l74 -21q-7 -15 -7 -33q0 -33 35 -52t100 -19q159 0 159 173v85q-25 -48 -68.5 -75t-98.5 -27q-99 0 -165.5 69.5t-66.5 181.5q0 116 66 183.5t163 67.5q59 0 104.5 -27.5t65.5 -75.5v89h78v-470q0 -115 -62 -179.5t-175 -64.5q-103 0 -158 39.5t-55 104.5
q0 31 11 51zM283 440q-71 0 -116 -49t-45 -132t45 -132t116 -49t117.5 49t46.5 132t-46.5 132t-117.5 49zM169 562l100 138h68l100 -138h-68l-66 68l-66 -68h-68z" />
    <glyph glyph-name="Gbreve" unicode="&#x11e;" horiz-adv-x="766" 
d="M637 0l-24 121q-31 -62 -88 -98.5t-136 -36.5q-147 0 -240 103t-93 261q0 155 100.5 259.5t241.5 104.5q100 0 175.5 -45.5t116.5 -124.5l-64 -46q-44 76 -99.5 109t-129.5 33q-105 0 -180 -82t-75 -208q0 -129 68.5 -209.5t181.5 -80.5q95 0 149.5 59t69.5 162h-246v70
h330v-351h-58zM437 876h64q0 -46 -29 -75t-74 -29t-74 29t-29 75h64q0 -44 39 -44t39 44z" />
    <glyph glyph-name="gbreve" unicode="&#x11f;" horiz-adv-x="587" 
d="M80 -23l74 -21q-7 -15 -7 -33q0 -33 35 -52t100 -19q159 0 159 173v85q-25 -48 -68.5 -75t-98.5 -27q-99 0 -165.5 69.5t-66.5 181.5q0 116 66 183.5t163 67.5q59 0 104.5 -27.5t65.5 -75.5v89h78v-470q0 -115 -62 -179.5t-175 -64.5q-103 0 -158 39.5t-55 104.5
q0 31 11 51zM283 440q-71 0 -116 -49t-45 -132t45 -132t116 -49t117.5 49t46.5 132t-46.5 132t-117.5 49zM332 672h64q0 -46 -29 -75t-74 -29t-74 29t-29 75h64q0 -44 39 -44t39 44z" />
    <glyph glyph-name="Gdotaccent" unicode="&#x120;" horiz-adv-x="766" 
d="M637 0l-24 121q-31 -62 -88 -98.5t-136 -36.5q-147 0 -240 103t-93 261q0 155 100.5 259.5t241.5 104.5q100 0 175.5 -45.5t116.5 -124.5l-64 -46q-44 76 -99.5 109t-129.5 33q-105 0 -180 -82t-75 -208q0 -129 68.5 -209.5t181.5 -80.5q95 0 149.5 59t69.5 162h-246v70
h330v-351h-58zM351 786v98h94v-98h-94z" />
    <glyph glyph-name="gdotaccent" unicode="&#x121;" horiz-adv-x="587" 
d="M80 -23l74 -21q-7 -15 -7 -33q0 -33 35 -52t100 -19q159 0 159 173v85q-25 -48 -68.5 -75t-98.5 -27q-99 0 -165.5 69.5t-66.5 181.5q0 116 66 183.5t163 67.5q59 0 104.5 -27.5t65.5 -75.5v89h78v-470q0 -115 -62 -179.5t-175 -64.5q-103 0 -158 39.5t-55 104.5
q0 31 11 51zM283 440q-71 0 -116 -49t-45 -132t45 -132t116 -49t117.5 49t46.5 132t-46.5 132t-117.5 49zM246 582v98h94v-98h-94z" />
    <glyph glyph-name="uni0122" unicode="&#x122;" horiz-adv-x="766" 
d="M346 -158v98h94v-98l-70 -127l-24 9l33 118h-33zM637 0l-24 121q-31 -62 -88 -98.5t-136 -36.5q-147 0 -240 103t-93 261q0 155 100.5 259.5t241.5 104.5q100 0 175.5 -45.5t116.5 -124.5l-64 -46q-44 76 -99.5 109t-129.5 33q-105 0 -180 -82t-75 -208
q0 -129 68.5 -209.5t181.5 -80.5q95 0 149.5 59t69.5 162h-246v70h330v-351h-58z" />
    <glyph glyph-name="uni0123" unicode="&#x123;" horiz-adv-x="587" 
d="M324 772l20 -15l-49 -96h37v-98h-94v98zM80 -23l74 -21q-7 -15 -7 -33q0 -33 35 -52t100 -19q159 0 159 173v85q-25 -48 -68.5 -75t-98.5 -27q-99 0 -165.5 69.5t-66.5 181.5q0 116 66 183.5t163 67.5q59 0 104.5 -27.5t65.5 -75.5v89h78v-470q0 -115 -62 -179.5
t-175 -64.5q-103 0 -158 39.5t-55 104.5q0 31 11 51zM283 440q-71 0 -116 -49t-45 -132t45 -132t116 -49t117.5 49t46.5 132t-46.5 132t-117.5 49z" />
    <glyph glyph-name="Hcircumflex" unicode="&#x124;" horiz-adv-x="690" 
d="M88 0v700h84v-306h346v306h84v-700h-84v320h-346v-320h-84zM211 766l100 138h68l100 -138h-68l-66 68l-66 -68h-68z" />
    <glyph glyph-name="hcircumflex" unicode="&#x125;" horiz-adv-x="577" 
d="M501 335v-335h-78v321q0 57 -33.5 88t-87.5 31q-60 0 -104 -45.5t-44 -119.5v-275h-78v700h78v-291q24 46 70 73.5t99 27.5q75 0 126.5 -44.5t51.5 -130.5zM56 766l100 138h68l100 -138h-68l-66 68l-66 -68h-68z" />
    <glyph glyph-name="Hbar" unicode="&#x126;" horiz-adv-x="736" 
d="M11 496v70h100v134h84v-134h346v134h84v-134h100v-70h-100v-496h-84v320h-346v-320h-84v496h-100zM195 394h346v102h-346v-102z" />
    <glyph glyph-name="hbar" unicode="&#x127;" horiz-adv-x="577" 
d="M10 568v64h66v68h78v-68h163v-64h-163v-159q24 46 70 73.5t99 27.5q75 0 126.5 -44.5t51.5 -130.5v-335h-78v321q0 57 -33.5 88t-87.5 31q-60 0 -104 -45.5t-44 -119.5v-275h-78v568h-66z" />
    <glyph glyph-name="Itilde" unicode="&#x128;" horiz-adv-x="260" 
d="M88 0v700h84v-700h-84zM58 832q-12 0 -20.5 -8t-8.5 -19q0 -12 7 -26l-60 -12q-12 18 -12 46q0 37 27 58.5t63 21.5q31 0 54 -10.5t34.5 -23t27 -23t32.5 -10.5q12 0 20.5 8t8.5 19q0 12 -7 26l60 12q12 -18 12 -46q0 -38 -27 -59t-63 -21q-31 0 -54 10.5t-34.5 23
t-27 23t-32.5 10.5z" />
    <glyph glyph-name="itilde" unicode="&#x129;" horiz-adv-x="230" 
d="M76 0v496h78v-496h-78zM43 628q-12 0 -20.5 -8t-8.5 -19q0 -12 7 -26l-60 -12q-12 18 -12 46q0 37 27 58.5t63 21.5q31 0 54 -10.5t34.5 -23t27 -23t32.5 -10.5q12 0 20.5 8t8.5 19q0 12 -7 26l60 12q12 -18 12 -46q0 -38 -27 -59t-63 -21q-31 0 -54 10.5t-34.5 23
t-27 23t-32.5 10.5z" />
    <glyph glyph-name="Imacron" unicode="&#x12a;" horiz-adv-x="260" 
d="M88 0v700h84v-700h-84zM20 804v70h220v-70h-220z" />
    <glyph glyph-name="imacron" unicode="&#x12b;" horiz-adv-x="230" 
d="M76 0v496h78v-496h-78zM5 600v70h220v-70h-220z" />
    <glyph glyph-name="Ibreve" unicode="&#x12c;" horiz-adv-x="260" 
d="M88 0v700h84v-700h-84zM169 876h64q0 -46 -29 -75t-74 -29t-74 29t-29 75h64q0 -44 39 -44t39 44z" />
    <glyph glyph-name="ibreve" unicode="&#x12d;" horiz-adv-x="230" 
d="M76 0v496h78v-496h-78zM154 672h64q0 -46 -29 -75t-74 -29t-74 29t-29 75h64q0 -44 39 -44t39 44z" />
    <glyph glyph-name="Iogonek" unicode="&#x12e;" horiz-adv-x="260" 
d="M88 0v700h84v-700q-71 -38 -71 -83q0 -21 13 -33t36 -12q5 0 19 2l9 -66q-21 -6 -45 -6q-42 0 -72.5 24.5t-30.5 68.5q0 61 58 105z" />
    <glyph glyph-name="iogonek" unicode="&#x12f;" horiz-adv-x="230" 
d="M12 -105q0 62 64 105v496h78v-496q-71 -38 -71 -83q0 -21 13 -33t36 -12q5 0 19 2l9 -66q-21 -6 -45 -6q-42 0 -72.5 24.5t-30.5 68.5zM68 582v98h94v-98h-94z" />
    <glyph glyph-name="Idotaccent" unicode="&#x130;" horiz-adv-x="260" 
d="M88 0v700h84v-700h-84zM83 786v98h94v-98h-94z" />
    <glyph glyph-name="dotlessi" unicode="&#x131;" horiz-adv-x="230" 
d="M76 0v496h78v-496h-78z" />
    <glyph glyph-name="IJ" unicode="&#x132;" horiz-adv-x="782" 
d="M88 0v700h84v-700h-84zM716 700v-502q0 -96 -56.5 -154t-148.5 -58q-96 0 -155.5 52t-59.5 157l84 -9q2 -66 38 -96t93 -30q53 0 87 36.5t34 102.5v501h84z" />
    <glyph glyph-name="ij" unicode="&#x133;" horiz-adv-x="472" 
d="M76 0v496h78v-496h-78zM68 582v98h94v-98h-94zM213 -203l10 70q19 -8 39 -8q31 0 43.5 16t12.5 54v567h78v-554q0 -153 -135 -153q-19 0 -48 8zM310 582v98h94v-98h-94z" />
    <glyph glyph-name="Jcircumflex" unicode="&#x134;" horiz-adv-x="537" 
d="M471 700v-502q0 -96 -56.5 -154t-148.5 -58q-96 0 -155.5 52t-59.5 157l84 -9q2 -66 38 -96t93 -30q53 0 87 36.5t34 102.5v501h84zM243 766l100 138h68l100 -138h-68l-66 68l-66 -68h-68z" />
    <glyph glyph-name="jcircumflex" unicode="&#x135;" horiz-adv-x="230" 
d="M-29 -203l10 70q19 -8 39 -8q31 0 43.5 16.5t12.5 54.5v566h78v-554q0 -153 -135 -153q-19 0 -48 8zM-18 562l100 138h68l100 -138h-68l-66 68l-66 -68h-68z" />
    <glyph glyph-name="uni0136" unicode="&#x136;" horiz-adv-x="619" 
d="M274 -158v98h94v-98l-70 -127l-24 9l33 118h-33zM88 0v700h84v-319l58 64l242 255h105l-244 -259l264 -441h-98l-226 378l-101 -107v-271h-84z" />
    <glyph glyph-name="uni0137" unicode="&#x137;" horiz-adv-x="495" 
d="M212 -158v98h94v-98l-70 -127l-24 9l33 118h-33zM154 700v-390l189 186h93l-171 -169l205 -327h-89l-170 272l-57 -57v-215h-78v700h78z" />
    <glyph glyph-name="kgreenlandic" unicode="&#x138;" horiz-adv-x="495" 
d="M154 496v-219l189 219h91l-171 -196l208 -300h-93l-168 239l-56 -65v-174h-78v496h78z" />
    <glyph glyph-name="Lacute" unicode="&#x139;" horiz-adv-x="573" 
d="M88 0v700h84v-626h351v-74h-435zM88 766l64 138h107l-100 -138h-71z" />
    <glyph glyph-name="lacute" unicode="&#x13a;" horiz-adv-x="230" 
d="M76 0v700h78v-700h-78zM76 766l64 138h107l-100 -138h-71z" />
    <glyph glyph-name="uni013B" unicode="&#x13b;" horiz-adv-x="573" 
d="M263 -158v98h94v-98l-70 -127l-24 9l33 118h-33zM88 0v700h84v-626h351v-74h-435z" />
    <glyph glyph-name="uni013C" unicode="&#x13c;" horiz-adv-x="230" 
d="M68 -158v98h94v-98l-70 -127l-24 9l33 118h-33zM76 0v700h78v-700h-78z" />
    <glyph glyph-name="Lcaron" unicode="&#x13d;" horiz-adv-x="573" 
d="M406 474l-20 15l60 113h-37v98h94v-98zM88 0v700h84v-626h351v-74h-435z" />
    <glyph glyph-name="lcaron" unicode="&#x13e;" horiz-adv-x="316" 
d="M251 505l-22 13l36 94h-35v88h86v-88zM76 0v700h78v-700h-78z" />
    <glyph glyph-name="Ldot" unicode="&#x13f;" horiz-adv-x="573" 
d="M88 0v700h84v-626h351v-74h-435zM369 301v98h94v-98h-94z" />
    <glyph glyph-name="ldot" unicode="&#x140;" horiz-adv-x="324" 
d="M76 0v700h78v-700h-78zM230 301v98h94v-98h-94z" />
    <glyph glyph-name="Lslash" unicode="&#x141;" horiz-adv-x="580" 
d="M11 158v84l84 53v405h84v-352l163 104v-84l-163 -104v-190h351v-74h-435v211z" />
    <glyph glyph-name="lslash" unicode="&#x142;" horiz-adv-x="262" 
d="M18 164v78l74 47v411h78v-362l74 47v-78l-74 -47v-260h-78v211z" />
    <glyph glyph-name="Nacute" unicode="&#x143;" horiz-adv-x="708" 
d="M88 0v700h89l333 -527q24 -40 30 -55v582h80v-700h-89l-333 527q-24 40 -30 55v-582h-80zM299 766l64 138h107l-100 -138h-71z" />
    <glyph glyph-name="nacute" unicode="&#x144;" horiz-adv-x="571" 
d="M495 337v-337h-78v323q0 57 -32.5 87t-86.5 30q-59 0 -101.5 -45.5t-42.5 -119.5v-275h-78v496h78v-87q27 47 70.5 74t96.5 27q73 0 123.5 -43.5t50.5 -129.5zM230 562l64 138h107l-100 -138h-71z" />
    <glyph glyph-name="uni0145" unicode="&#x145;" horiz-adv-x="708" 
d="M307 -158v98h94v-98l-70 -127l-24 9l33 118h-33zM88 0v700h89l333 -527q24 -40 30 -55v582h80v-700h-89l-333 527q-24 40 -30 55v-582h-80z" />
    <glyph glyph-name="uni0146" unicode="&#x146;" horiz-adv-x="571" 
d="M241 -158v98h94v-98l-70 -127l-24 9l33 118h-33zM495 337v-337h-78v323q0 57 -32.5 87t-86.5 30q-59 0 -101.5 -45.5t-42.5 -119.5v-275h-78v496h78v-87q27 47 70.5 74t96.5 27q73 0 123.5 -43.5t50.5 -129.5z" />
    <glyph glyph-name="Ncaron" unicode="&#x147;" horiz-adv-x="708" 
d="M88 0v700h89l333 -527q24 -40 30 -55v582h80v-700h-89l-333 527q-24 40 -30 55v-582h-80zM320 766l-100 138h68l66 -68l66 68h68l-100 -138h-68z" />
    <glyph glyph-name="ncaron" unicode="&#x148;" horiz-adv-x="571" 
d="M495 337v-337h-78v323q0 57 -32.5 87t-86.5 30q-59 0 -101.5 -45.5t-42.5 -119.5v-275h-78v496h78v-87q27 47 70.5 74t96.5 27q73 0 123.5 -43.5t50.5 -129.5zM261 562l-100 138h68l66 -68l66 68h68l-100 -138h-68z" />
    <glyph glyph-name="napostrophe" unicode="&#x149;" horiz-adv-x="637" 
d="M75 524l-21 14l50 94h-37v98h94v-98zM561 337v-337h-78v323q0 57 -32.5 87t-86.5 30q-59 0 -101.5 -45.5t-42.5 -119.5v-275h-78v496h78v-87q27 47 70.5 74t96.5 27q73 0 123.5 -43.5t50.5 -129.5z" />
    <glyph glyph-name="Eng" unicode="&#x14a;" horiz-adv-x="708" 
d="M88 0v700h86l336 -514q24 -40 30 -55v569h80v-717q0 -96 -44.5 -148.5t-131.5 -52.5q-57 0 -91 18l30 71q24 -15 65 -15q92 0 92 119v25l-342 520q-24 40 -30 55v-575h-80z" />
    <glyph glyph-name="eng" unicode="&#x14b;" horiz-adv-x="571" 
d="M495 337v-395q0 -153 -135 -153q-19 0 -48 8l10 70q19 -8 39 -8q31 0 43.5 16.5t12.5 54.5v393q0 57 -32.5 87t-86.5 30q-59 0 -101.5 -45.5t-42.5 -119.5v-275h-78v496h78v-87q27 47 70.5 74t96.5 27q73 0 123.5 -43.5t50.5 -129.5z" />
    <glyph glyph-name="Omacron" unicode="&#x14c;" horiz-adv-x="788" 
d="M732 350q0 -161 -97 -262.5t-241 -101.5t-241 101.5t-97 262.5t97 262.5t241 101.5t241 -101.5t97 -262.5zM394 60q109 0 180.5 80.5t71.5 209.5t-71.5 209.5t-180.5 80.5t-180.5 -80.5t-71.5 -209.5t71.5 -209.5t180.5 -80.5zM284 804v70h220v-70h-220z" />
    <glyph glyph-name="omacron" unicode="&#x14d;" horiz-adv-x="602" 
d="M560 248q0 -81 -39.5 -142t-97.5 -90.5t-122 -29.5t-122 29.5t-97.5 90.5t-39.5 142t39.5 142t97.5 90.5t122 29.5t122 -29.5t97.5 -90.5t39.5 -142zM301 56q76 0 127.5 54.5t51.5 137.5t-51.5 137.5t-127.5 54.5t-127.5 -54.5t-51.5 -137.5t51.5 -137.5t127.5 -54.5z
M191 600v70h220v-70h-220z" />
    <glyph glyph-name="Obreve" unicode="&#x14e;" horiz-adv-x="788" 
d="M732 350q0 -161 -97 -262.5t-241 -101.5t-241 101.5t-97 262.5t97 262.5t241 101.5t241 -101.5t97 -262.5zM394 60q109 0 180.5 80.5t71.5 209.5t-71.5 209.5t-180.5 80.5t-180.5 -80.5t-71.5 -209.5t71.5 -209.5t180.5 -80.5zM433 876h64q0 -46 -29 -75t-74 -29t-74 29
t-29 75h64q0 -44 39 -44t39 44z" />
    <glyph glyph-name="obreve" unicode="&#x14f;" horiz-adv-x="602" 
d="M560 248q0 -81 -39.5 -142t-97.5 -90.5t-122 -29.5t-122 29.5t-97.5 90.5t-39.5 142t39.5 142t97.5 90.5t122 29.5t122 -29.5t97.5 -90.5t39.5 -142zM301 56q76 0 127.5 54.5t51.5 137.5t-51.5 137.5t-127.5 54.5t-127.5 -54.5t-51.5 -137.5t51.5 -137.5t127.5 -54.5z
M340 672h64q0 -46 -29 -75t-74 -29t-74 29t-29 75h64q0 -44 39 -44t39 44z" />
    <glyph glyph-name="Ohungarumlaut" unicode="&#x150;" horiz-adv-x="788" 
d="M732 350q0 -161 -97 -262.5t-241 -101.5t-241 101.5t-97 262.5t97 262.5t241 101.5t241 -101.5t97 -262.5zM394 60q109 0 180.5 80.5t71.5 209.5t-71.5 209.5t-180.5 80.5t-180.5 -80.5t-71.5 -209.5t71.5 -209.5t180.5 -80.5zM261 766l64 138h107l-100 -138h-71z
M417 766l64 138h107l-100 -138h-71z" />
    <glyph glyph-name="ohungarumlaut" unicode="&#x151;" horiz-adv-x="602" 
d="M560 248q0 -81 -39.5 -142t-97.5 -90.5t-122 -29.5t-122 29.5t-97.5 90.5t-39.5 142t39.5 142t97.5 90.5t122 29.5t122 -29.5t97.5 -90.5t39.5 -142zM301 56q76 0 127.5 54.5t51.5 137.5t-51.5 137.5t-127.5 54.5t-127.5 -54.5t-51.5 -137.5t51.5 -137.5t127.5 -54.5z
M168 562l64 138h107l-100 -138h-71zM324 562l64 138h107l-100 -138h-71z" />
    <glyph glyph-name="OE" unicode="&#x152;" horiz-adv-x="1157" 
d="M648 0v126q-91 -140 -254 -140q-144 0 -241 101.5t-97 262.5t97 262.5t241 101.5q178 0 254 -134v120h438v-74h-354v-227h326v-74h-326v-251h357v-74h-441zM394 60q109 0 180.5 80.5t71.5 209.5t-71.5 209.5t-180.5 80.5t-180.5 -80.5t-71.5 -209.5t71.5 -209.5
t180.5 -80.5z" />
    <glyph glyph-name="oe" unicode="&#x153;" horiz-adv-x="1014" 
d="M970 235h-410q4 -80 50 -131.5t121 -51.5q63 0 101.5 29.5t65.5 83.5l57 -34q-73 -145 -227 -145q-65 0 -120.5 31.5t-87.5 87.5q-36 -57 -95.5 -88t-123.5 -31t-122 29.5t-97.5 90.5t-39.5 142t39.5 142t97.5 90.5t122 29.5q63 0 123 -31.5t96 -87.5q33 55 89 87t122 32
q110 0 174.5 -69t64.5 -179v-27zM301 56q76 0 127.5 54.5t51.5 137.5t-51.5 137.5t-127.5 54.5t-127.5 -54.5t-51.5 -137.5t51.5 -137.5t127.5 -54.5zM731 444q-65 0 -108 -39.5t-57 -105.5h326q-4 67 -52 106t-109 39z" />
    <glyph glyph-name="Racute" unicode="&#x154;" horiz-adv-x="640" 
d="M502 0l-172 304h-158v-304h-84v700h279q102 0 163.5 -56t61.5 -142q0 -73 -46 -125t-125 -68l175 -309h-94zM172 626v-248h180q75 0 115.5 32t40.5 92t-40.5 92t-115.5 32h-180zM245 766l64 138h107l-100 -138h-71z" />
    <glyph glyph-name="racute" unicode="&#x155;" horiz-adv-x="348" 
d="M332 505l-13 -73q-18 6 -39 6q-53 0 -89.5 -46.5t-36.5 -120.5v-271h-78v496h78v-90q48 104 144 104q16 0 34 -5zM143 562l64 138h107l-100 -138h-71z" />
    <glyph glyph-name="uni0156" unicode="&#x156;" horiz-adv-x="640" 
d="M278 -158v98h94v-98l-70 -127l-24 9l33 118h-33zM502 0l-172 304h-158v-304h-84v700h279q102 0 163.5 -56t61.5 -142q0 -73 -46 -125t-125 -68l175 -309h-94zM172 626v-248h180q75 0 115.5 32t40.5 92t-40.5 92t-115.5 32h-180z" />
    <glyph glyph-name="uni0157" unicode="&#x157;" horiz-adv-x="348" 
d="M332 505l-13 -73q-18 6 -39 6q-53 0 -89.5 -46.5t-36.5 -120.5v-271h-78v496h78v-90q48 104 144 104q16 0 34 -5zM68 -158v98h94v-98l-70 -127l-24 9l33 118h-33z" />
    <glyph glyph-name="Rcaron" unicode="&#x158;" horiz-adv-x="640" 
d="M502 0l-172 304h-158v-304h-84v700h279q102 0 163.5 -56t61.5 -142q0 -73 -46 -125t-125 -68l175 -309h-94zM172 626v-248h180q75 0 115.5 32t40.5 92t-40.5 92t-115.5 32h-180zM276 766l-100 138h68l66 -68l66 68h68l-100 -138h-68z" />
    <glyph glyph-name="rcaron" unicode="&#x159;" horiz-adv-x="348" 
d="M332 505l-13 -73q-18 6 -39 6q-53 0 -89.5 -46.5t-36.5 -120.5v-271h-78v496h78v-90q48 104 144 104q16 0 34 -5zM160 562l-100 138h68l66 -68l66 68h68l-100 -138h-68z" />
    <glyph glyph-name="Sacute" unicode="&#x15a;" horiz-adv-x="649" 
d="M168 532q0 -51 46.5 -83t144.5 -50q226 -42 226 -204q0 -89 -70.5 -149t-182.5 -60q-115 0 -188.5 61.5t-90.5 155.5l74 39q14 -90 68 -136t137 -46q78 0 123.5 37.5t45.5 91.5q0 59 -45.5 92t-139.5 50q-230 41 -230 201q0 80 66 131t168 51q92 0 159 -45.5t94 -122.5
l-68 -40q-22 65 -70 100.5t-115 35.5t-109.5 -29t-42.5 -81zM264 766l64 138h107l-100 -138h-71z" />
    <glyph glyph-name="sacute" unicode="&#x15b;" horiz-adv-x="491" 
d="M148 379q0 -36 33.5 -56t98.5 -32q167 -32 167 -146q0 -67 -50 -113t-138 -46q-78 0 -132.5 40.5t-78.5 103.5l65 40q43 -116 146 -116q51 0 80.5 23.5t29.5 64.5q0 36 -30.5 56.5t-96.5 32.5q-74 14 -120 49.5t-46 95.5q0 61 50 97.5t121 36.5q143 0 193 -120l-60 -35
q-36 89 -132 89q-44 0 -72 -16.5t-28 -48.5zM190 562l64 138h107l-100 -138h-71z" />
    <glyph glyph-name="Scircumflex" unicode="&#x15c;" horiz-adv-x="649" 
d="M168 532q0 -51 46.5 -83t144.5 -50q226 -42 226 -204q0 -89 -70.5 -149t-182.5 -60q-115 0 -188.5 61.5t-90.5 155.5l74 39q14 -90 68 -136t137 -46q78 0 123.5 37.5t45.5 91.5q0 59 -45.5 92t-139.5 50q-230 41 -230 201q0 80 66 131t168 51q92 0 159 -45.5t94 -122.5
l-68 -40q-22 65 -70 100.5t-115 35.5t-109.5 -29t-42.5 -81zM190 766l100 138h68l100 -138h-68l-66 68l-66 -68h-68z" />
    <glyph glyph-name="scircumflex" unicode="&#x15d;" horiz-adv-x="491" 
d="M148 379q0 -36 33.5 -56t98.5 -32q167 -32 167 -146q0 -67 -50 -113t-138 -46q-78 0 -132.5 40.5t-78.5 103.5l65 40q43 -116 146 -116q51 0 80.5 23.5t29.5 64.5q0 36 -30.5 56.5t-96.5 32.5q-74 14 -120 49.5t-46 95.5q0 61 50 97.5t121 36.5q143 0 193 -120l-60 -35
q-36 89 -132 89q-44 0 -72 -16.5t-28 -48.5zM111 562l100 138h68l100 -138h-68l-66 68l-66 -68h-68z" />
    <glyph glyph-name="Scedilla" unicode="&#x15e;" horiz-adv-x="649" 
d="M291 -104l-31 28l24 66q-96 12 -156.5 70.5t-74.5 142.5l74 39q14 -90 68 -136t137 -46q78 0 123.5 37.5t45.5 91.5q0 59 -45.5 92t-139.5 50q-230 41 -230 201q0 80 66 131t168 51q92 0 159 -45.5t94 -122.5l-68 -40q-22 65 -70 100.5t-115 35.5t-109.5 -29t-42.5 -81
q0 -51 46.5 -83t144.5 -50q226 -42 226 -204q0 -89 -70.5 -149t-182.5 -60l-21 -41q19 11 44 11q32 0 54 -21.5t22 -55.5q0 -39 -26 -61t-65 -22q-33 0 -55.5 16t-29.5 45l48 12q10 -27 37 -27q35 0 35 37q0 16 -10 25.5t-27 9.5q-24 0 -47 -18z" />
    <glyph glyph-name="scedilla" unicode="&#x15f;" horiz-adv-x="491" 
d="M218 -104l-31 28l24 67q-59 11 -101 49t-62 90l65 40q43 -116 146 -116q51 0 80.5 23.5t29.5 64.5q0 36 -30.5 56.5t-96.5 32.5q-74 14 -120 49.5t-46 95.5q0 61 50 97.5t121 36.5q143 0 193 -120l-60 -35q-36 89 -132 89q-44 0 -72 -16.5t-28 -48.5q0 -36 33.5 -56
t98.5 -32q167 -32 167 -146q0 -67 -50 -113t-138 -46l-21 -41q19 11 44 11q32 0 54 -21.5t22 -55.5q0 -39 -26 -61t-65 -22q-33 0 -55.5 16t-29.5 45l48 12q10 -27 37 -27q35 0 35 37q0 16 -10 25.5t-27 9.5q-24 0 -47 -18z" />
    <glyph glyph-name="Scaron" unicode="&#x160;" horiz-adv-x="649" 
d="M168 532q0 -51 46.5 -83t144.5 -50q226 -42 226 -204q0 -89 -70.5 -149t-182.5 -60q-115 0 -188.5 61.5t-90.5 155.5l74 39q14 -90 68 -136t137 -46q78 0 123.5 37.5t45.5 91.5q0 59 -45.5 92t-139.5 50q-230 41 -230 201q0 80 66 131t168 51q92 0 159 -45.5t94 -122.5
l-68 -40q-22 65 -70 100.5t-115 35.5t-109.5 -29t-42.5 -81zM290 766l-100 138h68l66 -68l66 68h68l-100 -138h-68z" />
    <glyph glyph-name="scaron" unicode="&#x161;" horiz-adv-x="491" 
d="M148 379q0 -36 33.5 -56t98.5 -32q167 -32 167 -146q0 -67 -50 -113t-138 -46q-78 0 -132.5 40.5t-78.5 103.5l65 40q43 -116 146 -116q51 0 80.5 23.5t29.5 64.5q0 36 -30.5 56.5t-96.5 32.5q-74 14 -120 49.5t-46 95.5q0 61 50 97.5t121 36.5q143 0 193 -120l-60 -35
q-36 89 -132 89q-44 0 -72 -16.5t-28 -48.5zM211 562l-100 138h68l66 -68l66 68h68l-100 -138h-68z" />
    <glyph glyph-name="uni0162" unicode="&#x162;" horiz-adv-x="558" 
d="M232 -158v98h94v-98l-70 -127l-24 9l33 118h-33zM19 626v74h520v-74h-218v-626h-84v626h-218z" />
    <glyph glyph-name="uni0163" unicode="&#x163;" horiz-adv-x="340" 
d="M166 -158v98h94v-98l-70 -127l-24 9l33 118h-33zM29 434v62h83v134h78v-134h114v-62h-114v-300q0 -43 13.5 -61.5t54.5 -18.5q17 0 37 6l7 -65q-26 -9 -66 -9q-54 0 -89 31.5t-35 101.5v315h-83z" />
    <glyph glyph-name="Tcaron" unicode="&#x164;" horiz-adv-x="558" 
d="M19 626v74h520v-74h-218v-626h-84v626h-218zM245 766l-100 138h68l66 -68l66 68h68l-100 -138h-68z" />
    <glyph glyph-name="tcaron" unicode="&#x165;" horiz-adv-x="340" 
d="M292 546l-22 13l36 95h-35v87h86v-89zM29 434v62h83v134h78v-134h114v-62h-114v-300q0 -43 13.5 -61.5t54.5 -18.5q17 0 37 6l7 -65q-26 -9 -66 -9q-54 0 -89 31.5t-35 101.5v315h-83z" />
    <glyph glyph-name="Tbar" unicode="&#x166;" horiz-adv-x="558" 
d="M19 626v74h520v-74h-218v-200h148v-70h-148v-356h-84v356h-148v70h148v200h-218z" />
    <glyph glyph-name="tbar" unicode="&#x167;" horiz-adv-x="340" 
d="M29 434v62h83v134h78v-134h114v-62h-114v-141h104v-62h-104v-97q0 -43 13.5 -61.5t54.5 -18.5q17 0 37 6l7 -65q-26 -9 -66 -9q-54 0 -89 31.5t-35 101.5v112h-73v62h73v141h-83z" />
    <glyph glyph-name="Utilde" unicode="&#x168;" horiz-adv-x="670" 
d="M594 700v-465q0 -116 -71.5 -182.5t-187.5 -66.5t-187.5 66.5t-71.5 182.5v465h84v-470q0 -73 46 -121.5t129 -48.5t129 48.5t46 121.5v470h84zM263 832q-12 0 -20.5 -8t-8.5 -19q0 -12 7 -26l-60 -12q-12 18 -12 46q0 37 27 58.5t63 21.5q31 0 54 -10.5t34.5 -23t27 -23
t32.5 -10.5q12 0 20.5 8t8.5 19q0 12 -7 26l60 12q12 -18 12 -46q0 -38 -27 -59t-63 -21q-31 0 -54 10.5t-34.5 23t-27 23t-32.5 10.5z" />
    <glyph glyph-name="utilde" unicode="&#x169;" horiz-adv-x="571" 
d="M76 169v327h78v-323q0 -57 32 -87t85 -30q61 0 103.5 45t42.5 117v278h78v-496h-78v87q-53 -101 -165 -101q-75 0 -125.5 45t-50.5 138zM213 628q-12 0 -20.5 -8t-8.5 -19q0 -12 7 -26l-60 -12q-12 18 -12 46q0 37 27 58.5t63 21.5q31 0 54 -10.5t34.5 -23t27 -23
t32.5 -10.5q12 0 20.5 8t8.5 19q0 12 -7 26l60 12q12 -18 12 -46q0 -38 -27 -59t-63 -21q-31 0 -54 10.5t-34.5 23t-27 23t-32.5 10.5z" />
    <glyph glyph-name="Umacron" unicode="&#x16a;" horiz-adv-x="670" 
d="M594 700v-465q0 -116 -71.5 -182.5t-187.5 -66.5t-187.5 66.5t-71.5 182.5v465h84v-470q0 -73 46 -121.5t129 -48.5t129 48.5t46 121.5v470h84zM225 804v70h220v-70h-220z" />
    <glyph glyph-name="umacron" unicode="&#x16b;" horiz-adv-x="571" 
d="M76 169v327h78v-323q0 -57 32 -87t85 -30q61 0 103.5 45t42.5 117v278h78v-496h-78v87q-53 -101 -165 -101q-75 0 -125.5 45t-50.5 138zM175 600v70h220v-70h-220z" />
    <glyph glyph-name="Ubreve" unicode="&#x16c;" horiz-adv-x="670" 
d="M594 700v-465q0 -116 -71.5 -182.5t-187.5 -66.5t-187.5 66.5t-71.5 182.5v465h84v-470q0 -73 46 -121.5t129 -48.5t129 48.5t46 121.5v470h84zM374 876h64q0 -46 -29 -75t-74 -29t-74 29t-29 75h64q0 -44 39 -44t39 44z" />
    <glyph glyph-name="ubreve" unicode="&#x16d;" horiz-adv-x="571" 
d="M76 169v327h78v-323q0 -57 32 -87t85 -30q61 0 103.5 45t42.5 117v278h78v-496h-78v87q-53 -101 -165 -101q-75 0 -125.5 45t-50.5 138zM324 672h64q0 -46 -29 -75t-74 -29t-74 29t-29 75h64q0 -44 39 -44t39 44z" />
    <glyph glyph-name="Uring" unicode="&#x16e;" horiz-adv-x="670" 
d="M594 700v-465q0 -116 -71.5 -182.5t-187.5 -66.5t-187.5 66.5t-71.5 182.5v465h84v-470q0 -73 46 -121.5t129 -48.5t129 48.5t46 121.5v470h84zM289 839q0 -20 13 -33.5t33 -13.5t33 13.5t13 33.5t-13 33.5t-33 13.5t-33 -13.5t-13 -33.5zM239 839q0 40 28 67.5t68 27.5
t68 -27.5t28 -67.5t-27 -67.5t-69 -27.5t-69 27.5t-27 67.5z" />
    <glyph glyph-name="uring" unicode="&#x16f;" horiz-adv-x="571" 
d="M76 169v327h78v-323q0 -57 32 -87t85 -30q61 0 103.5 45t42.5 117v278h78v-496h-78v87q-53 -101 -165 -101q-75 0 -125.5 45t-50.5 138zM239 635q0 -20 13 -33.5t33 -13.5t33 13.5t13 33.5t-13 33.5t-33 13.5t-33 -13.5t-13 -33.5zM189 635q0 40 28 67.5t68 27.5
t68 -27.5t28 -67.5t-27 -67.5t-69 -27.5t-69 27.5t-27 67.5z" />
    <glyph glyph-name="Uhungarumlaut" unicode="&#x170;" horiz-adv-x="670" 
d="M594 700v-465q0 -116 -71.5 -182.5t-187.5 -66.5t-187.5 66.5t-71.5 182.5v465h84v-470q0 -73 46 -121.5t129 -48.5t129 48.5t46 121.5v470h84zM212 766l64 138h107l-100 -138h-71zM368 766l64 138h107l-100 -138h-71z" />
    <glyph glyph-name="uhungarumlaut" unicode="&#x171;" horiz-adv-x="571" 
d="M76 169v327h78v-323q0 -57 32 -87t85 -30q61 0 103.5 45t42.5 117v278h78v-496h-78v87q-53 -101 -165 -101q-75 0 -125.5 45t-50.5 138zM152 562l64 138h107l-100 -138h-71zM308 562l64 138h107l-100 -138h-71z" />
    <glyph glyph-name="Uogonek" unicode="&#x172;" horiz-adv-x="670" 
d="M289 -105q0 52 45 91q-116 1 -187 67t-71 182v465h84v-470q0 -73 46 -121.5t129 -48.5t129 48.5t46 121.5v470h84v-465q0 -90 -43.5 -150.5t-120.5 -84.5q-32 -10 -51 -33t-19 -45q0 -23 13 -36.5t36 -13.5q5 0 19 2l9 -66q-21 -6 -45 -6q-42 0 -72.5 24.5t-30.5 68.5z
" />
    <glyph glyph-name="uogonek" unicode="&#x173;" horiz-adv-x="571" 
d="M353 -105q0 63 64 105v87q-53 -101 -165 -101q-75 0 -125.5 45t-50.5 138v327h78v-323q0 -57 32 -87t85 -30q61 0 103.5 45t42.5 117v278h78v-496q-71 -38 -71 -83q0 -21 13 -33t36 -12q5 0 19 2l9 -66q-21 -6 -45 -6q-42 0 -72.5 24.5t-30.5 68.5z" />
    <glyph glyph-name="Wcircumflex" unicode="&#x174;" horiz-adv-x="892" 
d="M5 700l197 -700h87l157 596l157 -596h87l197 700h-83l-142 -527q-11 -48 -17 -73l-17 74l-137 526h-90l-137 -526q-12 -49 -17 -74l-17 73l-142 527h-83zM312 766l100 138h68l100 -138h-68l-66 68l-66 -68h-68z" />
    <glyph glyph-name="wcircumflex" unicode="&#x175;" horiz-adv-x="682" 
d="M382 496l112 -398l101 398h80l-140 -496h-84l-110 404l-110 -404h-84l-140 496h80l101 -398l112 398h82zM207 562l100 138h68l100 -138h-68l-66 68l-66 -68h-68z" />
    <glyph glyph-name="Ycircumflex" unicode="&#x176;" horiz-adv-x="552" 
d="M234 0v287l-230 413h91l159 -296q13 -25 22 -49l22 49l159 296h91l-230 -413v-287h-84zM142 766l100 138h68l100 -138h-68l-66 68l-66 -68h-68z" />
    <glyph glyph-name="ycircumflex" unicode="&#x177;" horiz-adv-x="493" 
d="M56 -201l12 70q20 -10 40 -10q23 0 36 11t24 38l37 94l-200 494h86l157 -389l155 389h84l-249 -613q-21 -52 -51.5 -73t-78.5 -21q-28 0 -52 10zM113 562l100 138h68l100 -138h-68l-66 68l-66 -68h-68z" />
    <glyph glyph-name="Ydieresis" unicode="&#x178;" horiz-adv-x="552" 
d="M234 0v287l-230 413h91l159 -296q13 -25 22 -49l22 49l159 296h91l-230 -413v-287h-84zM309 792v92h92v-92h-92zM151 792v92h92v-92h-92z" />
    <glyph glyph-name="Zacute" unicode="&#x179;" horiz-adv-x="598" 
d="M57 626v74h479v-74l-400 -552h417v-74h-511v72l403 554h-388zM234 766l64 138h107l-100 -138h-71z" />
    <glyph glyph-name="zacute" unicode="&#x17a;" horiz-adv-x="484" 
d="M129 70h312v-70h-398v70l295 356h-282v70h370v-70zM177 562l64 138h107l-100 -138h-71z" />
    <glyph glyph-name="Zdotaccent" unicode="&#x17b;" horiz-adv-x="598" 
d="M57 626v74h479v-74l-400 -552h417v-74h-511v72l403 554h-388zM252 786v98h94v-98h-94z" />
    <glyph glyph-name="zdotaccent" unicode="&#x17c;" horiz-adv-x="484" 
d="M129 70h312v-70h-398v70l295 356h-282v70h370v-70zM195 582v98h94v-98h-94z" />
    <glyph glyph-name="Zcaron" unicode="&#x17d;" horiz-adv-x="598" 
d="M57 626v74h479v-74l-400 -552h417v-74h-511v72l403 554h-388zM265 766l-100 138h68l66 -68l66 68h68l-100 -138h-68z" />
    <glyph glyph-name="zcaron" unicode="&#x17e;" horiz-adv-x="484" 
d="M129 70h312v-70h-398v70l295 356h-282v70h370v-70zM208 562l-100 138h68l66 -68l66 68h68l-100 -138h-68z" />
    <glyph glyph-name="longs" unicode="&#x17f;" horiz-adv-x="319" 
d="M23 434v62h78v95q0 74 41.5 116.5t117.5 42.5q25 0 45 -7l-12 -66q-15 5 -33 5q-81 0 -81 -93v-589h-78v434h-78z" />
    <glyph glyph-name="uni018E" unicode="&#x18e;" horiz-adv-x="597" 
d="M509 700v-700h-438v74h354v227h-326v74h326v251h-357v74h441z" />
    <glyph glyph-name="uni018F" unicode="&#x18f;" horiz-adv-x="574" 
d="M44 261h410q-4 80 -50 131.5t-121 51.5q-63 0 -101.5 -29.5t-65.5 -83.5l-57 34q73 145 227 145q103 0 174.5 -74.5t71.5 -187.5t-72 -187.5t-177 -74.5q-110 0 -174.5 69t-64.5 179v27zM283 52q65 0 108 39.5t57 105.5h-326q4 -67 52 -106t109 -39z" />
    <glyph glyph-name="florin" unicode="&#x192;" horiz-adv-x="316" 
d="M179 434v-508q0 -70 -34 -107t-98 -37q-33 0 -53 7l12 66q15 -5 31 -5q32 0 48 18t16 59v507h-78v62h78v99q0 71 40 113t113 42q28 0 48 -7l-12 -66q-15 5 -33 5q-78 0 -78 -88v-98h114v-62h-114z" />
    <glyph glyph-name="uni01B5" unicode="&#x1b5;" horiz-adv-x="598" 
d="M57 626v74h479v-74l-172 -237h156v-70h-207l-177 -245h417v-74h-511v72l179 247h-151v70h202l173 237h-388z" />
    <glyph glyph-name="uni01B6" unicode="&#x1b6;" horiz-adv-x="484" 
d="M76 226v64h149l113 136h-282v70h370v-70l-113 -136h97v-64h-151l-130 -156h312v-70h-398v70l129 156h-96z" />
    <glyph glyph-name="AEacute" unicode="&#x1fc;" horiz-adv-x="932" 
d="M519 766l64 138h107l-100 -138h-71zM423 0v207h-241l-90 -207h-86l308 700h547v-74h-354v-227h326v-74h-326v-251h357v-74h-441zM366 626l-153 -349h210v349h-57z" />
    <glyph glyph-name="aeacute" unicode="&#x1fd;" horiz-adv-x="920" 
d="M420 562l64 138h107l-100 -138h-71zM876 235h-410q4 -80 50 -131.5t121 -51.5q63 0 101.5 29.5t65.5 83.5l57 -34q-73 -145 -227 -145q-68 0 -124.5 35t-85.5 95q-31 -65 -85.5 -97.5t-119.5 -32.5q-72 0 -119.5 43t-47.5 108q0 71 47.5 110.5t138.5 47.5q53 4 106 4h44
v31q0 62 -29 88t-88 26q-56 0 -86.5 -22t-30.5 -55q0 -7 2 -15l-68 -23q-8 19 -8 40q0 58 53 99.5t136 41.5q132 0 176 -95q31 42 83.5 68.5t108.5 26.5q108 0 173.5 -69t65.5 -179v-27zM637 444q-65 0 -108 -39.5t-57 -105.5h326q-4 67 -52 106t-109 39zM227 56
q76 0 118.5 51t42.5 123v5h-102q-154 0 -154 -95q0 -38 26 -61t69 -23z" />
    <glyph glyph-name="circumflex" unicode="&#x2c6;" horiz-adv-x="378" 
d="M55 562l100 138h68l100 -138h-68l-66 68l-66 -68h-68z" />
    <glyph glyph-name="caron" unicode="&#x2c7;" horiz-adv-x="378" 
d="M155 562l-100 138h68l66 -68l66 68h68l-100 -138h-68z" />
    <glyph glyph-name="breve" unicode="&#x2d8;" horiz-adv-x="286" 
d="M182 672h64q0 -46 -29 -75t-74 -29t-74 29t-29 75h64q0 -44 39 -44t39 44z" />
    <glyph glyph-name="dotaccent" unicode="&#x2d9;" horiz-adv-x="230" 
d="M68 582v98h94v-98h-94z" />
    <glyph glyph-name="ring" unicode="&#x2da;" horiz-adv-x="292" 
d="M100 635q0 -20 13 -33.5t33 -13.5t33 13.5t13 33.5t-13 33.5t-33 13.5t-33 -13.5t-13 -33.5zM50 635q0 40 28 67.5t68 27.5t68 -27.5t28 -67.5t-27 -67.5t-69 -27.5t-69 27.5t-27 67.5z" />
    <glyph glyph-name="ogonek" unicode="&#x2db;" horiz-adv-x="208" 
d="M34 -105q0 69 77 114l65 -9q-71 -38 -71 -83q0 -21 13 -33t36 -12q5 0 19 2l9 -66q-21 -6 -45 -6q-42 0 -72.5 24.5t-30.5 68.5z" />
    <glyph glyph-name="tilde" unicode="&#x2dc;" horiz-adv-x="472" 
d="M164 628q-12 0 -20.5 -8t-8.5 -19q0 -12 7 -26l-60 -12q-12 18 -12 46q0 37 27 58.5t63 21.5q31 0 54 -10.5t34.5 -23t27 -23t32.5 -10.5q12 0 20.5 8t8.5 19q0 12 -7 26l60 12q12 -18 12 -46q0 -38 -27 -59t-63 -21q-31 0 -54 10.5t-34.5 23t-27 23t-32.5 10.5z" />
    <glyph glyph-name="hungarumlaut" unicode="&#x2dd;" horiz-adv-x="455" 
d="M64 562l64 138h107l-100 -138h-71zM220 562l64 138h107l-100 -138h-71z" />
    <glyph glyph-name="uni0374" unicode="&#x374;" horiz-adv-x="274" 
d="M60 460l57 240h97l-93 -240h-61z" />
    <glyph glyph-name="uni0375" unicode="&#x375;" horiz-adv-x="274" 
d="M214 130l-57 -240h-97l93 240h61z" />
    <glyph glyph-name="uni037A" unicode="&#x37a;" horiz-adv-x="210" 
d="M43 -98v78h70v-64q0 -44 49 -44q12 0 23 3v-68q-22 -5 -43 -5q-46 0 -72.5 25t-26.5 75z" />
    <glyph glyph-name="uni037E" unicode="&#x37e;" horiz-adv-x="190" 
d="M48 0v98h94v-98l-70 -127l-24 9l33 118h-33zM48 378v98h94v-98h-94z" />
    <glyph glyph-name="tonos" unicode="&#x384;" horiz-adv-x="283" 
d="M66 562l44 138h107l-80 -138h-71z" />
    <glyph glyph-name="dieresistonos" unicode="&#x385;" horiz-adv-x="412" 
d="M300 588v92h92v-92h-92zM20 588v92h92v-92h-92zM137 562l42 138h100l-78 -138h-64z" />
    <glyph glyph-name="Alphatonos" unicode="&#x386;" horiz-adv-x="656" 
d="M6 0l278 700h88l278 -700h-86l-81 207h-310l-81 -207h-86zM307 549l-107 -272h255l-106 272q-14 36 -21 58zM49 562l44 138h107l-80 -138h-71z" />
    <glyph glyph-name="anoteleia" unicode="&#x387;" horiz-adv-x="190" 
d="M48 310v98h94v-98h-94z" />
    <glyph glyph-name="Epsilontonos" unicode="&#x388;" horiz-adv-x="700" 
d="M191 0v700h438v-74h-354v-227h326v-74h-326v-251h357v-74h-441zM0 562l44 138h107l-80 -138h-71z" />
    <glyph glyph-name="Etatonos" unicode="&#x389;" horiz-adv-x="793" 
d="M191 0v700h84v-306h346v306h84v-700h-84v320h-346v-320h-84zM0 562l44 138h107l-80 -138h-71z" />
    <glyph glyph-name="Iotatonos" unicode="&#x38a;" horiz-adv-x="363" 
d="M191 0v700h84v-700h-84zM0 562l44 138h107l-80 -138h-71z" />
    <glyph glyph-name="Omicrontonos" unicode="&#x38c;" horiz-adv-x="825" 
d="M769 350q0 -161 -97 -262.5t-241 -101.5t-241 101.5t-97 262.5t97 262.5t241 101.5t241 -101.5t97 -262.5zM431 60q109 0 180.5 80.5t71.5 209.5t-71.5 209.5t-180.5 80.5t-180.5 -80.5t-71.5 -209.5t71.5 -209.5t180.5 -80.5zM0 562l44 138h107l-80 -138h-71z" />
    <glyph glyph-name="Upsilontonos" unicode="&#x38e;" horiz-adv-x="719" 
d="M401 0v287l-230 413h91l159 -296q13 -25 22 -49l22 49l159 296h91l-230 -413v-287h-84zM0 562l44 138h107l-80 -138h-71z" />
    <glyph glyph-name="Omegatonos" unicode="&#x38f;" horiz-adv-x="833" 
d="M756 74v-74h-257v88q77 32 134.5 107.5t57.5 182.5q0 113 -70.5 187.5t-181.5 74.5t-181.5 -74.5t-70.5 -187.5q0 -107 57.5 -182.5t134.5 -107.5v-88h-257v74h157q-72 41 -125 125.5t-53 183.5q0 143 97 237t241 94t241 -94t97 -237q0 -99 -53 -183.5t-125 -125.5h157z
M0 562l44 138h107l-80 -138h-71z" />
    <glyph glyph-name="iotadieresistonos" unicode="&#x390;" horiz-adv-x="288" 
d="M238 588v92h92v-92h-92zM-42 588v92h92v-92h-92zM75 562l42 138h100l-78 -138h-64zM68 496h78v-372q0 -70 61 -70q17 0 37 6l7 -65q-31 -9 -66 -9q-117 0 -117 133v377z" />
    <glyph glyph-name="Alpha" unicode="&#x391;" horiz-adv-x="656" 
d="M6 0l278 700h88l278 -700h-86l-81 207h-310l-81 -207h-86zM307 549l-107 -272h255l-106 272q-14 36 -21 58z" />
    <glyph glyph-name="Beta" unicode="&#x392;" horiz-adv-x="645" 
d="M88 0v700h256q99 0 159.5 -47.5t60.5 -121.5q0 -110 -122 -154q69 -23 108 -64.5t39 -111.5q0 -90 -71 -145.5t-172 -55.5h-258zM172 336v-266h161q79 0 127.5 32t48.5 101t-48.5 101t-127.5 32h-161zM172 630v-224h166q66 0 106 27.5t40 84.5t-40 84.5t-106 27.5h-166z
" />
    <glyph glyph-name="Gamma" unicode="&#x393;" horiz-adv-x="555" 
d="M88 0v700h448v-74h-364v-626h-84z" />
    <glyph glyph-name="uni0394" unicode="&#x394;" horiz-adv-x="656" 
d="M6 0l278 700h88l278 -700h-644zM307 549l-188 -479h417l-187 479l-21 58q-7 -22 -21 -58z" />
    <glyph glyph-name="Epsilon" unicode="&#x395;" horiz-adv-x="597" 
d="M88 0v700h438v-74h-354v-227h326v-74h-326v-251h357v-74h-441z" />
    <glyph glyph-name="Zeta" unicode="&#x396;" horiz-adv-x="598" 
d="M57 626v74h479v-74l-400 -552h417v-74h-511v72l403 554h-388z" />
    <glyph glyph-name="Eta" unicode="&#x397;" horiz-adv-x="690" 
d="M88 0v700h84v-306h346v306h84v-700h-84v320h-346v-320h-84z" />
    <glyph glyph-name="Theta" unicode="&#x398;" horiz-adv-x="692" 
d="M636 350q0 -159 -80 -261.5t-210 -102.5t-210 102.5t-80 261.5t80 261.5t210 102.5t210 -102.5t80 -261.5zM346 60q91 0 144 68t60 187h-408q7 -119 60 -187t144 -68zM346 640q-91 0 -144 -68t-60 -187h408q-7 119 -60 187t-144 68z" />
    <glyph glyph-name="Iota" unicode="&#x399;" horiz-adv-x="260" 
d="M88 0v700h84v-700h-84z" />
    <glyph glyph-name="Kappa" unicode="&#x39a;" horiz-adv-x="619" 
d="M88 0v700h84v-319l58 64l242 255h105l-244 -259l264 -441h-98l-226 378l-101 -107v-271h-84z" />
    <glyph glyph-name="Lambda" unicode="&#x39b;" horiz-adv-x="608" 
d="M6 0l252 700h92l252 -700h-86l-186 529q-15 45 -26 82l-26 -82l-186 -529h-86z" />
    <glyph glyph-name="Mu" unicode="&#x39c;" horiz-adv-x="860" 
d="M88 0v700h90l252 -630l252 630h90v-700h-80v540l-36 -98l-183 -442h-86l-183 442q-30 80 -36 98v-540h-80z" />
    <glyph glyph-name="Nu" unicode="&#x39d;" horiz-adv-x="708" 
d="M88 0v700h86l336 -520q24 -40 30 -55v575h80v-700h-86l-336 520q-24 40 -30 55v-575h-80z" />
    <glyph glyph-name="Xi" unicode="&#x39e;" horiz-adv-x="597" 
d="M526 626h-455v74h455v-74zM68 74h461v-74h-461v74zM498 325h-399v74h399v-74z" />
    <glyph glyph-name="Omicron" unicode="&#x39f;" horiz-adv-x="788" 
d="M732 350q0 -161 -97 -262.5t-241 -101.5t-241 101.5t-97 262.5t97 262.5t241 101.5t241 -101.5t97 -262.5zM394 60q109 0 180.5 80.5t71.5 209.5t-71.5 209.5t-180.5 80.5t-180.5 -80.5t-71.5 -209.5t71.5 -209.5t180.5 -80.5z" />
    <glyph glyph-name="Pi" unicode="&#x3a0;" horiz-adv-x="670" 
d="M88 0v700h494v-700h-84v626h-326v-626h-84z" />
    <glyph glyph-name="Rho" unicode="&#x3a1;" horiz-adv-x="678" 
d="M88 0v700h294q111 0 176.5 -59.5t65.5 -158.5t-65.5 -158.5t-176.5 -59.5h-210v-264h-84zM172 626v-288h206q77 0 119.5 36.5t42.5 107.5t-42.5 107.5t-119.5 36.5h-206z" />
    <glyph glyph-name="Sigma" unicode="&#x3a3;" horiz-adv-x="585" 
d="M269 350l-213 276v74h475v-74h-378l209 -276l-220 -276h401v-74h-495v74z" />
    <glyph glyph-name="Tau" unicode="&#x3a4;" horiz-adv-x="558" 
d="M19 626v74h520v-74h-218v-626h-84v626h-218z" />
    <glyph glyph-name="Upsilon" unicode="&#x3a5;" horiz-adv-x="552" 
d="M234 0v287l-230 413h91l159 -296q13 -25 22 -49l22 49l159 296h91l-230 -413v-287h-84z" />
    <glyph glyph-name="Phi" unicode="&#x3a6;" horiz-adv-x="766" 
d="M425 76v-76h-84v76h-8q-121 0 -202.5 75.5t-81.5 198.5t81.5 198.5t202.5 75.5h8v76h84v-76h8q121 0 202.5 -75.5t81.5 -198.5t-81.5 -198.5t-202.5 -75.5h-8zM425 550v-400h9q86 0 142.5 53.5t56.5 146.5t-56.5 146.5t-142.5 53.5h-9zM341 150v400h-9
q-86 0 -142.5 -53.5t-56.5 -146.5t56.5 -146.5t142.5 -53.5h9z" />
    <glyph glyph-name="Chi" unicode="&#x3a7;" horiz-adv-x="577" 
d="M135 700l153 -258l159 258h93l-202 -319l235 -381h-95l-190 310l-189 -310h-96l237 376l-202 324h97z" />
    <glyph glyph-name="Psi" unicode="&#x3a8;" horiz-adv-x="744" 
d="M330 0v172q-119 0 -187.5 69.5t-68.5 190.5v268h84v-263q0 -88 43.5 -139.5t128.5 -51.5v454h84v-454q85 0 128.5 51.5t43.5 139.5v263h84v-268q0 -121 -68.5 -190.5t-187.5 -69.5v-172h-84z" />
    <glyph glyph-name="uni03A9" unicode="&#x3a9;" horiz-adv-x="788" 
d="M711 74v-74h-257v88q77 32 134.5 107.5t57.5 182.5q0 113 -70.5 187.5t-181.5 74.5t-181.5 -74.5t-70.5 -187.5q0 -107 57.5 -182.5t134.5 -107.5v-88h-257v74h157q-72 41 -125 125.5t-53 183.5q0 143 97 237t241 94t241 -94t97 -237q0 -99 -53 -183.5t-125 -125.5h157z
" />
    <glyph glyph-name="Iotadieresis" unicode="&#x3aa;" horiz-adv-x="260" 
d="M88 0v700h84v-700h-84zM163 792v92h92v-92h-92zM5 792v92h92v-92h-92z" />
    <glyph glyph-name="Upsilondieresis" unicode="&#x3ab;" horiz-adv-x="552" 
d="M309 792v92h92v-92h-92zM151 792v92h92v-92h-92zM234 0v287l-230 413h91l159 -296q13 -25 22 -49l22 49l159 296h91l-230 -413v-287h-84z" />
    <glyph glyph-name="alphatonos" unicode="&#x3ac;" horiz-adv-x="649" 
d="M493 496h78l-58 -295q11 -143 75 -143q15 0 26 5l13 -68q-26 -9 -50 -9q-39 0 -69 25.5t-45 72.5q-64 -98 -184 -98q-101 0 -169 74t-68 188t68 188t169 74q70 0 121 -35t73 -93zM281 58q67 0 113.5 53t46.5 137t-46.5 137t-113.5 53t-113 -53t-46 -137t46 -137t113 -53z
M249 562l44 138h107l-80 -138h-71z" />
    <glyph glyph-name="epsilontonos" unicode="&#x3ad;" horiz-adv-x="471" 
d="M253 233v60q-118 0 -118 83q0 32 26.5 51t74.5 19q44 0 73.5 -18t29.5 -49q0 -11 -3 -21l62 -24q11 20 11 44q0 61 -45.5 96.5t-127.5 35.5q-81 0 -128 -38.5t-47 -92.5q0 -81 86 -114q-39 -12 -68 -43.5t-29 -80.5q0 -64 48.5 -109.5t142.5 -45.5q85 0 133.5 41.5
t48.5 106.5q0 30 -10 53l-67 -23q5 -15 5 -30q0 -39 -32.5 -59.5t-79.5 -20.5q-55 0 -83 24.5t-28 66.5q0 43 34.5 65.5t90.5 22.5zM200 562l44 138h107l-80 -138h-71z" />
    <glyph glyph-name="etatonos" unicode="&#x3ae;" horiz-adv-x="571" 
d="M495 337v-541h-78v527q0 57 -32.5 87t-86.5 30q-59 0 -101.5 -45.5t-42.5 -119.5v-275h-78v496h78v-87q27 47 70.5 74t96.5 27q73 0 123.5 -43.5t50.5 -129.5zM250 562l44 138h107l-80 -138h-71z" />
    <glyph glyph-name="iotatonos" unicode="&#x3af;" horiz-adv-x="288" 
d="M76 496h78v-372q0 -70 61 -70q17 0 37 6l7 -65q-31 -9 -66 -9q-117 0 -117 133v377zM81 562l44 138h107l-80 -138h-71z" />
    <glyph glyph-name="upsilondieresistonos" unicode="&#x3b0;" horiz-adv-x="562" 
d="M486 496v-312q0 -95 -57.5 -146.5t-147.5 -51.5t-147.5 51.5t-57.5 146.5v312h78v-315q0 -58 33.5 -91.5t93.5 -33.5t93.5 33.5t33.5 91.5v315h78zM375 588v92h92v-92h-92zM95 588v92h92v-92h-92zM212 562l42 138h100l-78 -138h-64z" />
    <glyph glyph-name="alpha" unicode="&#x3b1;" horiz-adv-x="649" 
d="M493 496h78l-58 -295q11 -143 75 -143q15 0 26 5l13 -68q-26 -9 -50 -9q-39 0 -69 25.5t-45 72.5q-64 -98 -184 -98q-101 0 -169 74t-68 188t68 188t169 74q70 0 121 -35t73 -93zM281 58q67 0 113.5 53t46.5 137t-46.5 137t-113.5 53t-113 -53t-46 -137t46 -137t113 -53z
" />
    <glyph glyph-name="beta" unicode="&#x3b2;" horiz-adv-x="559" 
d="M302 -14q-46 0 -87.5 21t-60.5 54v-265h-78v707q0 104 59.5 157.5t140.5 53.5q85 0 136.5 -47.5t51.5 -117.5q0 -113 -113 -158q71 -21 115 -70t44 -121q0 -95 -61.5 -154.5t-146.5 -59.5zM227 349v66h23q60 0 100 35t40 91q0 48 -32.5 76.5t-81.5 28.5q-50 0 -86 -34
t-36 -98v-312q0 -72 41 -110t100 -38q58 0 97.5 39t39.5 104q0 72 -54 112t-127 40h-24z" />
    <glyph glyph-name="gamma" unicode="&#x3b3;" horiz-adv-x="504" 
d="M213 -204v216l-197 484h89l147 -391l147 391h89l-197 -484v-216h-78z" />
    <glyph glyph-name="delta" unicode="&#x3b4;" horiz-adv-x="574" 
d="M207 634l212 -197q34 -31 53.5 -54t36 -65t16.5 -94q0 -105 -70.5 -171.5t-167.5 -66.5q-99 0 -168.5 63t-69.5 175q0 100 69 166t176 66l-202 178v66h334v-66h-219zM287 56q71 0 117.5 47t46.5 121q0 73 -47.5 120.5t-116.5 47.5t-116.5 -47.5t-47.5 -120.5
q0 -74 46.5 -121t117.5 -47z" />
    <glyph glyph-name="epsilon" unicode="&#x3b5;" horiz-adv-x="471" 
d="M253 293v-60q-56 0 -90.5 -22.5t-34.5 -65.5q0 -42 28 -66.5t83 -24.5q47 0 79.5 20.5t32.5 59.5q0 15 -5 30l67 23q10 -23 10 -53q0 -65 -48.5 -106.5t-133.5 -41.5q-94 0 -142.5 45.5t-48.5 109.5q0 49 29 80.5t68 43.5q-86 33 -86 114q0 54 47 92.5t128 38.5
q82 0 127.5 -35.5t45.5 -96.5q0 -24 -11 -44l-62 24q3 10 3 21q0 31 -29.5 49t-73.5 18q-48 0 -74.5 -19t-26.5 -51q0 -83 118 -83z" />
    <glyph glyph-name="zeta" unicode="&#x3b6;" horiz-adv-x="470" 
d="M412 -113l-55 43q12 15 12 33q0 37 -54 37q-266 0 -266 239q0 214 242 399h-237v62h335v-62q-136 -100 -199 -191.5t-63 -191.5q0 -185 184 -185q63 0 99.5 -26.5t36.5 -77.5q0 -44 -35 -79z" />
    <glyph glyph-name="eta" unicode="&#x3b7;" horiz-adv-x="571" 
d="M495 337v-541h-78v527q0 57 -32.5 87t-86.5 30q-59 0 -101.5 -45.5t-42.5 -119.5v-275h-78v496h78v-87q27 47 70.5 74t96.5 27q73 0 123.5 -43.5t50.5 -129.5z" />
    <glyph glyph-name="theta" unicode="&#x3b8;" horiz-adv-x="624" 
d="M575 350q0 -170 -71.5 -267t-191.5 -97t-191.5 97t-71.5 267t71.5 267t191.5 97t191.5 -97t71.5 -267zM312 56q77 0 126.5 66.5t56.5 192.5h-366q7 -126 56.5 -192.5t126.5 -66.5zM312 644q-77 0 -126.5 -66.5t-56.5 -192.5h366q-7 126 -56.5 192.5t-126.5 66.5z" />
    <glyph glyph-name="iota" unicode="&#x3b9;" horiz-adv-x="288" 
d="M76 496h78v-372q0 -70 61 -70q17 0 37 6l7 -65q-31 -9 -66 -9q-117 0 -117 133v377z" />
    <glyph glyph-name="kappa" unicode="&#x3ba;" horiz-adv-x="495" 
d="M154 496v-219l189 219h91l-171 -196l208 -300h-93l-168 239l-56 -65v-174h-78v496h78z" />
    <glyph glyph-name="lambda" unicode="&#x3bb;" horiz-adv-x="495" 
d="M69 626l-12 70q26 11 52 11q48 0 79.5 -21.5t52.5 -73.5l248 -612h-85l-155 389l-154 -389h-89l200 494l-37 93q-11 27 -24 38t-36 11q-20 0 -40 -10z" />
    <glyph glyph-name="uni03BC" unicode="&#x3bc;" horiz-adv-x="571" 
d="M76 -204v700h78v-323q0 -57 32 -87t85 -30q61 0 103.5 45t42.5 117v278h78v-496h-78v87q-53 -101 -165 -101q-61 0 -100 32q2 -46 2 -75v-147h-78z" />
    <glyph glyph-name="nu" unicode="&#x3bd;" horiz-adv-x="494" 
d="M486 496l-200 -496h-78l-200 496h84l155 -406l155 406h84z" />
    <glyph glyph-name="xi" unicode="&#x3be;" horiz-adv-x="506" 
d="M129 209q0 -67 50 -103t139 -36q139 0 139 -102q0 -41 -39 -78l-51 40q12 15 12 33q0 37 -54 37q-128 0 -201 50t-73 155q0 127 136 179q-54 20 -83.5 63.5t-29.5 93.5q0 75 57 124t147 49q89 0 140.5 -40.5t51.5 -106.5q0 -27 -8 -51l-73 11q5 13 5 27q0 45 -31.5 67.5
t-84.5 22.5q-58 0 -92 -29.5t-34 -79.5q0 -54 38.5 -89.5t124.5 -35.5v-68q-83 0 -134.5 -32.5t-51.5 -100.5z" />
    <glyph glyph-name="omicron" unicode="&#x3bf;" horiz-adv-x="602" 
d="M560 248q0 -81 -39.5 -142t-97.5 -90.5t-122 -29.5t-122 29.5t-97.5 90.5t-39.5 142t39.5 142t97.5 90.5t122 29.5t122 -29.5t97.5 -90.5t39.5 -142zM301 56q76 0 127.5 54.5t51.5 137.5t-51.5 137.5t-127.5 54.5t-127.5 -54.5t-51.5 -137.5t51.5 -137.5t127.5 -54.5z
" />
    <glyph glyph-name="pi" unicode="&#x3c0;" horiz-adv-x="649" 
d="M212 434v-434h-78v434h-104v62h579v-62h-104v-308q0 -40 14.5 -56t49.5 -16q17 0 37 6l7 -65q-25 -9 -66 -9q-120 0 -120 125v323h-215z" />
    <glyph glyph-name="rho" unicode="&#x3c1;" horiz-adv-x="608" 
d="M76 -204v452q0 118 70.5 190t173.5 72q113 0 179.5 -70.5t66.5 -191.5q0 -118 -67.5 -190t-168.5 -72q-57 0 -105.5 25.5t-70.5 67.5v-283h-78zM320 438q-73 0 -119.5 -52.5t-46.5 -137.5t46.5 -137.5t119.5 -52.5t119.5 52.5t46.5 137.5t-46.5 137.5t-119.5 52.5z" />
    <glyph glyph-name="sigma1" unicode="&#x3c2;" horiz-adv-x="549" 
d="M371 -147l-47 47q29 23 29 45q0 35 -57 41q-109 11 -181.5 82t-72.5 180q0 113 74.5 187.5t179.5 74.5q159 0 215 -136l-60 -39q-49 105 -154 105q-76 0 -126.5 -52t-50.5 -136q0 -88 51.5 -136t135.5 -62q70 -12 97 -35.5t27 -67.5q0 -51 -60 -98z" />
    <glyph glyph-name="sigma" unicode="&#x3c3;" horiz-adv-x="633" 
d="M560 248q0 -81 -39.5 -142t-97.5 -90.5t-122 -29.5t-122 29.5t-97.5 90.5t-39.5 142q0 121 79.5 191.5t188.5 70.5h293v-70h-147q48 -30 76 -80t28 -112zM301 440q-76 0 -127.5 -54.5t-51.5 -137.5t51.5 -137.5t127.5 -54.5t127.5 54.5t51.5 137.5t-51.5 137.5
t-127.5 54.5z" />
    <glyph glyph-name="tau" unicode="&#x3c4;" horiz-adv-x="430" 
d="M21 428v68h374v-68h-148v-297q0 -41 12.5 -59t50.5 -18q17 0 37 6l7 -65q-26 -9 -66 -9q-53 0 -86 31t-33 102v309h-148z" />
    <glyph glyph-name="upsilon" unicode="&#x3c5;" horiz-adv-x="562" 
d="M486 496v-312q0 -95 -57.5 -146.5t-147.5 -51.5t-147.5 51.5t-57.5 146.5v312h78v-315q0 -58 33.5 -91.5t93.5 -33.5t93.5 33.5t33.5 91.5v315h78z" />
    <glyph glyph-name="phi" unicode="&#x3c6;" horiz-adv-x="698" 
d="M388 0v-204h-78v204h-23q-100 0 -172.5 68t-72.5 180q0 114 72.5 181t184.5 67h100q112 0 184.5 -67t72.5 -181q0 -112 -72.5 -180t-172.5 -68h-23zM122 248q0 -85 50 -130.5t122 -45.5h16v352h-16q-72 0 -122 -45.5t-50 -130.5zM576 248q0 85 -50 130.5t-122 45.5h-16
v-352h16q72 0 122 45.5t50 130.5z" />
    <glyph glyph-name="chi" unicode="&#x3c7;" horiz-adv-x="526" 
d="M194 444l84 -191l115 243h85l-161 -326l118 -268q11 -25 22 -35t30 -10q16 0 38 13l18 -64q-31 -17 -67 -17q-40 0 -65.5 19.5t-43.5 62.5l-93 214l-145 -289h-84l191 366l-106 243q-12 28 -38 28q-19 0 -39 -17l-27 57q38 30 81 30q34 0 54 -14t33 -45z" />
    <glyph glyph-name="psi" unicode="&#x3c8;" horiz-adv-x="666" 
d="M294 -204v190q-101 0 -159.5 58.5t-58.5 158.5v293h78v-296q0 -63 38 -103.5t102 -40.5v440h78v-440q64 0 102 40.5t38 103.5v296h78v-293q0 -100 -58.5 -158.5t-159.5 -58.5v-190h-78z" />
    <glyph glyph-name="omega" unicode="&#x3c9;" horiz-adv-x="790" 
d="M575 476l71 34q76 -141 76 -282q0 -110 -46 -176t-137 -66q-106 0 -144 118q-38 -118 -144 -118q-91 0 -137 66t-46 176q0 141 76 282l71 -34q-69 -131 -69 -261q0 -71 30 -115t85 -44q44 0 69.5 34.5t25.5 93.5v160h78v-160q0 -59 25.5 -93.5t69.5 -34.5q55 0 85 44
t30 115q0 130 -69 261z" />
    <glyph glyph-name="iotadieresis" unicode="&#x3ca;" horiz-adv-x="288" 
d="M148 588v92h92v-92h-92zM-10 588v92h92v-92h-92zM76 496h78v-372q0 -70 61 -70q17 0 37 6l7 -65q-31 -9 -66 -9q-117 0 -117 133v377z" />
    <glyph glyph-name="upsilondieresis" unicode="&#x3cb;" horiz-adv-x="562" 
d="M486 496v-312q0 -95 -57.5 -146.5t-147.5 -51.5t-147.5 51.5t-57.5 146.5v312h78v-315q0 -58 33.5 -91.5t93.5 -33.5t93.5 33.5t33.5 91.5v315h78zM314 588v92h92v-92h-92zM156 588v92h92v-92h-92z" />
    <glyph glyph-name="omicrontonos" unicode="&#x3cc;" horiz-adv-x="602" 
d="M560 248q0 -81 -39.5 -142t-97.5 -90.5t-122 -29.5t-122 29.5t-97.5 90.5t-39.5 142t39.5 142t97.5 90.5t122 29.5t122 -29.5t97.5 -90.5t39.5 -142zM301 56q76 0 127.5 54.5t51.5 137.5t-51.5 137.5t-127.5 54.5t-127.5 -54.5t-51.5 -137.5t51.5 -137.5t127.5 -54.5z
M266 562l44 138h107l-80 -138h-71z" />
    <glyph glyph-name="upsilontonos" unicode="&#x3cd;" horiz-adv-x="562" 
d="M486 496v-312q0 -95 -57.5 -146.5t-147.5 -51.5t-147.5 51.5t-57.5 146.5v312h78v-315q0 -58 33.5 -91.5t93.5 -33.5t93.5 33.5t33.5 91.5v315h78zM246 562l44 138h107l-80 -138h-71z" />
    <glyph glyph-name="omegatonos" unicode="&#x3ce;" horiz-adv-x="790" 
d="M575 476l71 34q76 -141 76 -282q0 -110 -46 -176t-137 -66q-106 0 -144 118q-38 -118 -144 -118q-91 0 -137 66t-46 176q0 141 76 282l71 -34q-69 -131 -69 -261q0 -71 30 -115t85 -44q44 0 69.5 34.5t25.5 93.5v160h78v-160q0 -59 25.5 -93.5t69.5 -34.5q55 0 85 44
t30 115q0 130 -69 261zM360 562l44 138h107l-80 -138h-71z" />
    <glyph glyph-name="uni0400" unicode="&#x400;" horiz-adv-x="597" 
d="M88 0v700h438v-74h-354v-227h326v-74h-326v-251h357v-74h-441zM300 904l64 -138h-71l-100 138h107z" />
    <glyph glyph-name="uni0401" unicode="&#x401;" horiz-adv-x="597" 
d="M88 0v700h438v-74h-354v-227h326v-74h-326v-251h357v-74h-441zM341 792v92h92v-92h-92zM183 792v92h92v-92h-92z" />
    <glyph glyph-name="uni0402" unicode="&#x402;" horiz-adv-x="748" 
d="M19 626v74h520v-74h-239v-220h164q109 0 172.5 -52.5t63.5 -150.5t-63 -154t-167 -56q-48 0 -87 12l12 70q38 -12 77 -12q65 0 106.5 35t41.5 105q0 133 -169 133h-151v-336h-84v626h-197z" />
    <glyph glyph-name="uni0403" unicode="&#x403;" horiz-adv-x="555" 
d="M88 0v700h448v-74h-364v-626h-84zM255 766l64 138h107l-100 -138h-71z" />
    <glyph glyph-name="uni0404" unicode="&#x404;" horiz-adv-x="739" 
d="M527 394v-74h-385q10 -120 79 -190t174 -70q78 0 131.5 41t91.5 119l63 -40q-46 -92 -114.5 -143t-173.5 -51q-148 0 -242.5 100t-94.5 264q0 162 98 263t242 101q202 0 280 -186l-67 -36q-38 78 -89 113t-124 35q-100 0 -170 -66t-84 -180h385z" />
    <glyph glyph-name="uni0405" unicode="&#x405;" horiz-adv-x="649" 
d="M168 532q0 -51 46.5 -83t144.5 -50q226 -42 226 -204q0 -89 -70.5 -149t-182.5 -60q-115 0 -188.5 61.5t-90.5 155.5l74 39q14 -90 68 -136t137 -46q78 0 123.5 37.5t45.5 91.5q0 59 -45.5 92t-139.5 50q-230 41 -230 201q0 80 66 131t168 51q92 0 159 -45.5t94 -122.5
l-68 -40q-22 65 -70 100.5t-115 35.5t-109.5 -29t-42.5 -81z" />
    <glyph glyph-name="uni0406" unicode="&#x406;" horiz-adv-x="260" 
d="M88 0v700h84v-700h-84z" />
    <glyph glyph-name="uni0407" unicode="&#x407;" horiz-adv-x="260" 
d="M88 0v700h84v-700h-84zM163 792v92h92v-92h-92zM5 792v92h92v-92h-92z" />
    <glyph glyph-name="uni0408" unicode="&#x408;" horiz-adv-x="537" 
d="M471 700v-502q0 -96 -56.5 -154t-148.5 -58q-96 0 -155.5 52t-59.5 157l84 -9q2 -66 38 -96t93 -30q53 0 87 36.5t34 102.5v501h84z" />
    <glyph glyph-name="uni0409" unicode="&#x409;" horiz-adv-x="1033" 
d="M276 626l-54 -489q-9 -78 -40.5 -111t-90.5 -33q-29 0 -53 6l15 80q17 -6 28 -6q51 0 58 64l61 563h360v-294h174q110 0 176.5 -53t66.5 -150t-66.5 -150t-176.5 -53h-258v626h-200zM560 336v-266h161q79 0 127.5 32t48.5 101t-48.5 101t-127.5 32h-161z" />
    <glyph glyph-name="uni040A" unicode="&#x40a;" horiz-adv-x="1031" 
d="M88 0v700h84v-306h314v306h84v-306h162q110 0 176.5 -51t66.5 -148q0 -96 -66 -145.5t-177 -49.5h-246v320h-314v-320h-84zM570 320v-250h149q176 0 176 125t-176 125h-149z" />
    <glyph glyph-name="uni040B" unicode="&#x40b;" horiz-adv-x="706" 
d="M550 0v285q0 54 -29.5 83.5t-81.5 29.5q-58 0 -98.5 -45.5t-40.5 -112.5v-240h-84v626h-197v74h520v-74h-239v-255q25 45 67 71t94 26q75 0 122 -44t47 -119v-305h-80z" />
    <glyph glyph-name="uni040C" unicode="&#x40c;" horiz-adv-x="619" 
d="M88 0v700h84v-319l58 64l242 255h105l-244 -259l264 -441h-98l-226 378l-101 -107v-271h-84zM254 766l64 138h107l-100 -138h-71z" />
    <glyph glyph-name="uni040D" unicode="&#x40d;" horiz-adv-x="708" 
d="M346 904l64 -138h-71l-100 138h107zM88 700v-700h89l333 527q24 40 30 55v-582h80v700h-89l-333 -527q-24 -40 -30 -55v582h-80z" />
    <glyph glyph-name="uni040E" unicode="&#x40e;" horiz-adv-x="516" 
d="M174 93l57 144l-218 463h86l170 -367l148 367h84l-257 -635q-32 -79 -99 -79q-34 0 -59 12l17 72q18 -10 31 -10q26 0 40 33zM306 876h64q0 -46 -29 -75t-74 -29t-74 29t-29 75h64q0 -44 39 -44t39 44z" />
    <glyph glyph-name="uni040F" unicode="&#x40f;" horiz-adv-x="670" 
d="M88 0v700h84v-626h326v626h84v-700h-207v-116h-80v116h-207z" />
    <glyph glyph-name="uni0410" unicode="&#x410;" horiz-adv-x="656" 
d="M6 0l278 700h88l278 -700h-86l-81 207h-310l-81 -207h-86zM307 549l-107 -272h255l-106 272q-14 36 -21 58z" />
    <glyph glyph-name="uni0411" unicode="&#x411;" horiz-adv-x="645" 
d="M172 336v-266h161q79 0 127.5 32t48.5 101t-48.5 101t-127.5 32h-161zM172 406h174q103 0 173 -53.5t70 -149.5t-70 -149.5t-173 -53.5h-258v700h419v-70h-335v-224z" />
    <glyph glyph-name="uni0412" unicode="&#x412;" horiz-adv-x="645" 
d="M88 0v700h256q99 0 159.5 -47.5t60.5 -121.5q0 -110 -122 -154q69 -23 108 -64.5t39 -111.5q0 -90 -71 -145.5t-172 -55.5h-258zM172 336v-266h161q79 0 127.5 32t48.5 101t-48.5 101t-127.5 32h-161zM172 630v-224h166q66 0 106 27.5t40 84.5t-40 84.5t-106 27.5h-166z
" />
    <glyph glyph-name="uni0413" unicode="&#x413;" horiz-adv-x="555" 
d="M88 0v700h448v-74h-364v-626h-84z" />
    <glyph glyph-name="uni0414" unicode="&#x414;" horiz-adv-x="677" 
d="M98 0v-116h-80v190h66q37 73 55 139.5t30 175.5l35 311h385v-626h66v-190h-80v116h-477zM505 74v552h-223l-28 -250q-12 -108 -29 -170t-49 -132h329z" />
    <glyph glyph-name="uni0415" unicode="&#x415;" horiz-adv-x="597" 
d="M88 0v700h438v-74h-354v-227h326v-74h-326v-251h357v-74h-441z" />
    <glyph glyph-name="uni0416" unicode="&#x416;" horiz-adv-x="964" 
d="M440 0v271l-101 109l-223 -380h-94l259 441l-240 259h105l248 -270q31 -35 46 -55v325h84v-325l46 55l248 270h105l-240 -259l259 -441h-94l-223 380l-101 -109v-271h-84z" />
    <glyph glyph-name="uni0417" unicode="&#x417;" horiz-adv-x="577" 
d="M70 244l77 -19q-3 -13 -3 -34q0 -58 41 -94.5t106 -36.5q70 0 108 37t38 106q0 70 -51.5 104.5t-137.5 34.5v68q86 0 123 35.5t37 89.5q0 49 -34.5 79t-90.5 30t-90 -30.5t-34 -83.5q0 -18 5 -31l-73 -11q-8 24 -8 51q0 73 57 124t144 51q95 0 150.5 -48t55.5 -121
q0 -53 -30 -98t-87 -63q66 -18 107 -64t41 -114q0 -101 -64 -160.5t-166 -59.5q-109 0 -170 59t-61 136q0 36 10 63z" />
    <glyph glyph-name="uni0418" unicode="&#x418;" horiz-adv-x="708" 
d="M88 0v700h80v-582l30 55l333 527h89v-700h-80v582l-30 -55l-333 -527h-89z" />
    <glyph glyph-name="uni0419" unicode="&#x419;" horiz-adv-x="708" 
d="M620 700v-700h-80v582l-30 -55l-333 -527h-89v700h80v-582l30 55l333 527h89zM393 876h64q0 -46 -29 -75t-74 -29t-74 29t-29 75h64q0 -44 39 -44t39 44z" />
    <glyph glyph-name="uni041A" unicode="&#x41a;" horiz-adv-x="619" 
d="M88 0v700h84v-319l58 64l242 255h105l-244 -259l264 -441h-98l-226 378l-101 -107v-271h-84z" />
    <glyph glyph-name="uni041B" unicode="&#x41b;" horiz-adv-x="673" 
d="M38 -2l15 80q17 -6 28 -6q51 0 58 64l61 564h385v-700h-84v626h-225l-54 -490q-9 -78 -40.5 -111t-90.5 -33q-29 0 -53 6z" />
    <glyph glyph-name="uni041C" unicode="&#x41c;" horiz-adv-x="860" 
d="M88 0v700h90l252 -630l252 630h90v-700h-80v540l-36 -98l-183 -442h-86l-183 442q-30 80 -36 98v-540h-80z" />
    <glyph glyph-name="uni041D" unicode="&#x41d;" horiz-adv-x="690" 
d="M88 0v700h84v-306h346v306h84v-700h-84v320h-346v-320h-84z" />
    <glyph glyph-name="uni041E" unicode="&#x41e;" horiz-adv-x="788" 
d="M732 350q0 -161 -97 -262.5t-241 -101.5t-241 101.5t-97 262.5t97 262.5t241 101.5t241 -101.5t97 -262.5zM394 60q109 0 180.5 80.5t71.5 209.5t-71.5 209.5t-180.5 80.5t-180.5 -80.5t-71.5 -209.5t71.5 -209.5t180.5 -80.5z" />
    <glyph glyph-name="uni041F" unicode="&#x41f;" horiz-adv-x="670" 
d="M88 0v700h494v-700h-84v626h-326v-626h-84z" />
    <glyph glyph-name="uni0420" unicode="&#x420;" horiz-adv-x="678" 
d="M88 0v700h294q111 0 176.5 -59.5t65.5 -158.5t-65.5 -158.5t-176.5 -59.5h-210v-264h-84zM172 626v-288h206q77 0 119.5 36.5t42.5 107.5t-42.5 107.5t-119.5 36.5h-206z" />
    <glyph glyph-name="uni0421" unicode="&#x421;" horiz-adv-x="748" 
d="M626 211l63 -46q-95 -179 -296 -179q-145 0 -241 103.5t-96 260.5q0 155 100 259.5t242 104.5q102 0 178.5 -48.5t113.5 -131.5l-65 -46q-72 152 -229 152q-107 0 -180.5 -83.5t-73.5 -206.5q0 -125 70.5 -207.5t182.5 -82.5q79 0 134.5 35.5t96.5 115.5z" />
    <glyph glyph-name="uni0422" unicode="&#x422;" horiz-adv-x="558" 
d="M19 626v74h520v-74h-218v-626h-84v626h-218z" />
    <glyph glyph-name="uni0423" unicode="&#x423;" horiz-adv-x="516" 
d="M174 93l57 144l-218 463h86l170 -367l148 367h84l-257 -635q-32 -79 -99 -79q-34 0 -59 12l17 72q18 -10 31 -10q26 0 40 33z" />
    <glyph glyph-name="uni0424" unicode="&#x424;" horiz-adv-x="766" 
d="M425 76v-76h-84v76h-8q-121 0 -202.5 75.5t-81.5 198.5t81.5 198.5t202.5 75.5h8v76h84v-76h8q121 0 202.5 -75.5t81.5 -198.5t-81.5 -198.5t-202.5 -75.5h-8zM425 550v-400h9q86 0 142.5 53.5t56.5 146.5t-56.5 146.5t-142.5 53.5h-9zM341 150v400h-9
q-86 0 -142.5 -53.5t-56.5 -146.5t56.5 -146.5t142.5 -53.5h9z" />
    <glyph glyph-name="uni0425" unicode="&#x425;" horiz-adv-x="577" 
d="M135 700l153 -258l159 258h93l-202 -319l235 -381h-95l-190 310l-189 -310h-96l237 376l-202 324h97z" />
    <glyph glyph-name="uni0426" unicode="&#x426;" horiz-adv-x="692" 
d="M88 0v700h84v-626h326v626h84v-626h66v-190h-80v116h-480z" />
    <glyph glyph-name="uni0427" unicode="&#x427;" horiz-adv-x="623" 
d="M451 469v231h84v-700h-84v329q-50 -93 -159 -93q-97 0 -156 63t-59 176v225h84v-230q0 -72 37.5 -116t104.5 -44q66 0 107 44.5t41 114.5z" />
    <glyph glyph-name="uni0428" unicode="&#x428;" horiz-adv-x="840" 
d="M88 0v700h84v-626h206v626h84v-626h206v626h84v-700h-664z" />
    <glyph glyph-name="uni0429" unicode="&#x429;" horiz-adv-x="862" 
d="M88 0v700h84v-626h206v626h84v-626h206v626h84v-626h66v-190h-80v116h-650z" />
    <glyph glyph-name="uni042A" unicode="&#x42a;" horiz-adv-x="703" 
d="M29 626v74h201v-294h174q110 0 176.5 -53t66.5 -150t-66.5 -150t-176.5 -53h-258v626h-117zM230 336v-266h161q79 0 127.5 32t48.5 101t-48.5 101t-127.5 32h-161z" />
    <glyph glyph-name="uni042B" unicode="&#x42b;" horiz-adv-x="865" 
d="M172 336v-266h161q79 0 127.5 32t48.5 101t-48.5 101t-127.5 32h-161zM172 406h174q110 0 176.5 -53t66.5 -150t-66.5 -150t-176.5 -53h-258v700h84v-294zM693 0v700h84v-700h-84z" />
    <glyph glyph-name="uni042C" unicode="&#x42c;" horiz-adv-x="645" 
d="M172 336v-266h161q79 0 127.5 32t48.5 101t-48.5 101t-127.5 32h-161zM172 406h174q110 0 176.5 -53t66.5 -150t-66.5 -150t-176.5 -53h-258v700h84v-294z" />
    <glyph glyph-name="uni042D" unicode="&#x42d;" horiz-adv-x="725" 
d="M198 320v74h385q-13 114 -75.5 180t-160.5 66q-69 0 -125.5 -37.5t-92.5 -108.5l-65 35q42 90 115.5 137.5t167.5 47.5q144 0 233 -100t89 -264t-87 -264t-232 -100q-104 0 -177.5 50.5t-114.5 138.5l65 44q72 -159 229 -159q101 0 162 69t69 191h-385z" />
    <glyph glyph-name="uni042E" unicode="&#x42e;" horiz-adv-x="982" 
d="M926 350q0 -161 -97 -262.5t-241 -101.5q-135 0 -230 90.5t-107 236.5h-79v-313h-84v700h84v-313h79q12 146 107 236.5t230 90.5q144 0 241 -101.5t97 -262.5zM588 60q109 0 180.5 80.5t71.5 209.5t-71.5 209.5t-180.5 80.5t-180.5 -80.5t-71.5 -209.5t71.5 -209.5
t180.5 -80.5z" />
    <glyph glyph-name="uni042F" unicode="&#x42f;" horiz-adv-x="640" 
d="M309 304l-172 -304h-93l175 309q-79 16 -125 68t-46 125q0 86 61.5 142t163.5 56h279v-700h-84v304h-159zM468 378v248h-180q-75 0 -115.5 -32t-40.5 -92t40.5 -92t115.5 -32h180z" />
    <glyph glyph-name="uni0430" unicode="&#x430;" horiz-adv-x="543" 
d="M496 0h-78q-30 36 -30 98q-23 -54 -67.5 -83t-101.5 -29q-75 0 -121 42.5t-46 108.5q0 68 47.5 109t123.5 53l165 27v22q0 96 -117 96q-56 0 -86.5 -22t-30.5 -55q0 -7 2 -15l-68 -23q-8 19 -8 40q0 58 52.5 99.5t138.5 41.5q96 0 145.5 -42.5t49.5 -119.5v-224
q0 -43 6 -68.5t24 -55.5zM228 56q75 0 117.5 56.5t42.5 136.5v15l-151 -26q-51 -9 -78 -34t-27 -63q0 -39 26 -62t70 -23z" />
    <glyph glyph-name="uni0431" unicode="&#x431;" horiz-adv-x="593" 
d="M436 714l22 -59q-43 -25 -97 -25q-102 0 -162.5 -68.5t-65.5 -192.5q28 53 76.5 85t105.5 32q100 0 164.5 -69.5t64.5 -177.5q0 -109 -68.5 -181t-173.5 -72q-121 0 -187 90t-66 245q0 119 50 221q40 81 110 119.5t151 38.5q44 0 76 14zM302 416q-71 0 -116.5 -51
t-45.5 -129t45.5 -129t116.5 -51t116.5 51t45.5 129t-45.5 129t-116.5 51z" />
    <glyph glyph-name="uni0432" unicode="&#x432;" horiz-adv-x="516" 
d="M76 0v496h211q71 0 113.5 -36.5t42.5 -89.5q0 -80 -84 -109q102 -29 102 -120q0 -62 -47.5 -101.5t-125.5 -39.5h-212zM154 432v-142h134q36 0 58.5 18.5t22.5 52.5t-22.5 52.5t-58.5 18.5h-134zM154 226v-158h140q40 0 64.5 21.5t24.5 57.5t-24.5 57.5t-64.5 21.5h-140z
" />
    <glyph glyph-name="uni0433" unicode="&#x433;" horiz-adv-x="415" 
d="M76 0v496h301v-68h-223v-428h-78z" />
    <glyph glyph-name="uni0434" unicode="&#x434;" horiz-adv-x="597" 
d="M545 68v-174h-70v106h-360v-106h-70v174h46q40 76 50 168l26 260h332v-428h46zM220 231q-9 -89 -45 -163h246v360h-182z" />
    <glyph glyph-name="uni0435" unicode="&#x435;" horiz-adv-x="574" 
d="M530 235h-410q4 -80 50 -131.5t121 -51.5q63 0 101.5 29.5t65.5 83.5l57 -34q-73 -145 -227 -145q-103 0 -174.5 74.5t-71.5 187.5t72 187.5t177 74.5q110 0 174.5 -69t64.5 -179v-27zM291 444q-65 0 -108 -39.5t-57 -105.5h326q-4 67 -52 106t-109 39z" />
    <glyph glyph-name="uni0436" unicode="&#x436;" horiz-adv-x="760" 
d="M419 496v-216l187 216h93l-179 -199l216 -297h-86l-178 242l-53 -59v-183h-78v183l-53 59l-178 -242h-86l216 297l-179 199h93l187 -216v216h78z" />
    <glyph glyph-name="uni0437" unicode="&#x437;" horiz-adv-x="486" 
d="M217 233v60q116 0 116 83q0 32 -25.5 51t-70.5 19q-43 0 -70.5 -19.5t-27.5 -50.5q0 -10 3 -21l-62 -24q-11 20 -11 44q0 61 45 98t123 37q80 0 125 -38t45 -93q0 -82 -84 -114q41 -13 72.5 -44.5t31.5 -79.5q0 -64 -49 -109.5t-140 -45.5q-86 0 -136 41t-50 106
q0 30 12 54l67 -23q-5 -15 -5 -30q0 -40 33 -60t83 -20q52 0 79.5 24.5t27.5 66.5t-37.5 65t-94.5 23z" />
    <glyph glyph-name="uni0438" unicode="&#x438;" horiz-adv-x="560" 
d="M154 496v-391l242 391h88v-496h-78v391l-242 -391h-88v496h78z" />
    <glyph glyph-name="uni0439" unicode="&#x439;" horiz-adv-x="560" 
d="M154 496v-391l242 391h88v-496h-78v391l-242 -391h-88v496h78zM319 672h64q0 -46 -29 -75t-74 -29t-74 29t-29 75h64q0 -44 39 -44t39 44z" />
    <glyph glyph-name="uni043A" unicode="&#x43a;" horiz-adv-x="495" 
d="M154 496v-219l189 219h91l-171 -196l208 -300h-93l-168 239l-56 -65v-174h-78v496h78z" />
    <glyph glyph-name="uni043B" unicode="&#x43b;" horiz-adv-x="544" 
d="M468 496v-496h-78v428h-196l-33 -346q-4 -44 -28.5 -66.5t-62.5 -22.5q-24 0 -50 7l11 68q13 -5 23 -5q27 0 30 37l38 396h346z" />
    <glyph glyph-name="uni043C" unicode="&#x43c;" horiz-adv-x="644" 
d="M362 0h-80l-128 346v-346h-78v496h86l160 -428l160 428h86v-496h-78v346z" />
    <glyph glyph-name="uni043D" unicode="&#x43d;" horiz-adv-x="550" 
d="M154 496v-200h242v200h78v-496h-78v228h-242v-228h-78v496h78z" />
    <glyph glyph-name="uni043E" unicode="&#x43e;" horiz-adv-x="602" 
d="M560 248q0 -81 -39.5 -142t-97.5 -90.5t-122 -29.5t-122 29.5t-97.5 90.5t-39.5 142t39.5 142t97.5 90.5t122 29.5t122 -29.5t97.5 -90.5t39.5 -142zM301 56q76 0 127.5 54.5t51.5 137.5t-51.5 137.5t-127.5 54.5t-127.5 -54.5t-51.5 -137.5t51.5 -137.5t127.5 -54.5z
" />
    <glyph glyph-name="uni043F" unicode="&#x43f;" horiz-adv-x="550" 
d="M474 496v-496h-78v428h-242v-428h-78v496h398z" />
    <glyph glyph-name="uni0440" unicode="&#x440;" horiz-adv-x="608" 
d="M76 -204v700h78v-89q23 45 71 74t107 29q100 0 167 -72t67 -190t-69 -190t-170 -72q-116 0 -173 93v-283h-78zM317 438q-73 0 -121 -52.5t-48 -137.5t48 -137.5t121 -52.5t121 52.5t48 137.5t-48 137.5t-121 52.5z" />
    <glyph glyph-name="uni0441" unicode="&#x441;" horiz-adv-x="557" 
d="M463 165l56 -36q-72 -143 -223 -143q-108 0 -181 74t-73 188q0 113 74.5 187.5t179.5 74.5q79 0 136 -36t84 -100l-59 -39q-49 105 -160 105q-76 0 -126.5 -52.5t-50.5 -139.5t49.5 -139.5t127.5 -52.5q59 0 98 27.5t68 81.5z" />
    <glyph glyph-name="uni0442" unicode="&#x442;" horiz-adv-x="438" 
d="M32 428v68h374v-68h-148v-428h-78v428h-148z" />
    <glyph glyph-name="uni0443" unicode="&#x443;" horiz-adv-x="493" 
d="M56 -201l12 70q20 -10 40 -10q23 0 36 11t24 38l37 94l-200 494h86l157 -389l155 389h84l-249 -613q-21 -52 -51.5 -73t-78.5 -21q-28 0 -52 10z" />
    <glyph glyph-name="uni0444" unicode="&#x444;" horiz-adv-x="898" 
d="M410 -204v276q-50 -86 -148 -86q-90 0 -155 74t-65 188q0 115 61.5 188.5t150.5 73.5q103 0 156 -87v277h78v-277q53 87 159 87q87 0 148 -73.5t61 -188.5q0 -114 -65 -188t-155 -74q-103 0 -148 86v-276h-78zM269 438q-67 0 -107 -50.5t-40 -139.5t40 -139.5t107 -50.5
t107 50.5t40 139.5t-40 139.5t-107 50.5zM629 438q-67 0 -107 -50.5t-40 -139.5t40 -139.5t107 -50.5t107 50.5t40 139.5t-40 139.5t-107 50.5z" />
    <glyph glyph-name="uni0445" unicode="&#x445;" horiz-adv-x="434" 
d="M108 496l109 -173l110 173h89l-154 -230l171 -266h-88l-128 202l-129 -202h-89l176 264l-156 232h89z" />
    <glyph glyph-name="uni0446" unicode="&#x446;" horiz-adv-x="572" 
d="M154 496v-428h242v428h78v-428h46v-174h-70v106h-374v496h78z" />
    <glyph glyph-name="uni0447" unicode="&#x447;" horiz-adv-x="552" 
d="M76 334v162h78v-165q0 -61 30.5 -92.5t84.5 -31.5q60 0 94.5 45t34.5 120v124h78v-496h-78v234q-18 -46 -57.5 -71.5t-92.5 -25.5q-74 0 -123 50t-49 147z" />
    <glyph glyph-name="uni0448" unicode="&#x448;" horiz-adv-x="752" 
d="M415 496v-428h183v428h78v-496h-600v496h78v-428h183v428h78z" />
    <glyph glyph-name="uni0449" unicode="&#x449;" horiz-adv-x="774" 
d="M76 0v496h78v-428h183v428h78v-428h183v428h78v-428h46v-174h-70v106h-576z" />
    <glyph glyph-name="uni044A" unicode="&#x44a;" horiz-adv-x="552" 
d="M18 428v68h177v-206h134q81 0 127 -42t46 -107q0 -63 -47.5 -102t-125.5 -39h-212v428h-99zM195 226v-158h140q40 0 64.5 21.5t24.5 57.5t-24.5 57.5t-64.5 21.5h-140z" />
    <glyph glyph-name="uni044B" unicode="&#x44b;" horiz-adv-x="705" 
d="M551 0v496h78v-496h-78zM288 290q81 0 127 -42t46 -107q0 -63 -47.5 -102t-125.5 -39h-212v496h78v-206h134zM154 226v-158h140q40 0 64.5 21.5t24.5 57.5t-24.5 57.5t-64.5 21.5h-140z" />
    <glyph glyph-name="uni044C" unicode="&#x44c;" horiz-adv-x="511" 
d="M288 290q81 0 127 -42t46 -107q0 -63 -47.5 -102t-125.5 -39h-212v496h78v-206h134zM154 226v-158h140q40 0 64.5 21.5t24.5 57.5t-24.5 57.5t-64.5 21.5h-140z" />
    <glyph glyph-name="uni044D" unicode="&#x44d;" horiz-adv-x="550" 
d="M164 213v70h264q-8 75 -51 116t-111 41q-108 0 -163 -107l-60 38q74 139 223 139q110 0 176 -72.5t66 -189.5q0 -115 -67.5 -188.5t-170.5 -73.5q-79 0 -139.5 40.5t-92.5 107.5l61 42q58 -120 171 -120q65 0 107.5 41t50.5 116h-264z" />
    <glyph glyph-name="uni044E" unicode="&#x44e;" horiz-adv-x="770" 
d="M728 248q0 -120 -76.5 -191t-176.5 -71q-93 0 -166 61t-85 167h-70v-214h-78v496h78v-214h70q12 106 85 167t166 61q100 0 176.5 -71t76.5 -191zM475 56q76 0 124.5 54.5t48.5 137.5t-48.5 137.5t-124.5 54.5t-124.5 -54.5t-48.5 -137.5t48.5 -137.5t124.5 -54.5z" />
    <glyph glyph-name="uni044F" unicode="&#x44f;" horiz-adv-x="499" 
d="M345 0v218h-89l-122 -218h-84l123 221q-54 10 -85.5 46.5t-31.5 89.5q0 61 43 100t117 39h207v-496h-78zM345 282v150h-133q-37 0 -59.5 -19.5t-22.5 -55.5t22.5 -55.5t59.5 -19.5h133z" />
    <glyph glyph-name="uni0450" unicode="&#x450;" horiz-adv-x="574" 
d="M530 235h-410q4 -80 50 -131.5t121 -51.5q63 0 101.5 29.5t65.5 83.5l57 -34q-73 -145 -227 -145q-103 0 -174.5 74.5t-71.5 187.5t72 187.5t177 74.5q110 0 174.5 -69t64.5 -179v-27zM291 444q-65 0 -108 -39.5t-57 -105.5h326q-4 67 -52 106t-109 39zM279 700l64 -138
h-71l-100 138h107z" />
    <glyph glyph-name="uni0451" unicode="&#x451;" horiz-adv-x="574" 
d="M530 235h-410q4 -80 50 -131.5t121 -51.5q63 0 101.5 29.5t65.5 83.5l57 -34q-73 -145 -227 -145q-103 0 -174.5 74.5t-71.5 187.5t72 187.5t177 74.5q110 0 174.5 -69t64.5 -179v-27zM291 444q-65 0 -108 -39.5t-57 -105.5h326q-4 67 -52 106t-109 39zM320 588v92h92
v-92h-92zM162 588v92h92v-92h-92z" />
    <glyph glyph-name="uni0452" unicode="&#x452;" horiz-adv-x="577" 
d="M10 568v64h66v68h78v-68h163v-64h-163v-159q24 46 70 73.5t99 27.5q75 0 126.5 -44.5t51.5 -130.5v-393q0 -153 -135 -153q-19 0 -48 8l10 70q19 -8 39 -8q31 0 43.5 16.5t12.5 54.5v391q0 57 -33.5 88t-87.5 31q-60 0 -104 -45.5t-44 -119.5v-275h-78v568h-66z" />
    <glyph glyph-name="uni0453" unicode="&#x453;" horiz-adv-x="415" 
d="M76 0v496h301v-68h-223v-428h-78zM162 562l64 138h107l-100 -138h-71z" />
    <glyph glyph-name="uni0454" unicode="&#x454;" horiz-adv-x="545" 
d="M386 283v-70h-264q9 -73 54 -115t112 -42q59 0 96.5 27.5t65.5 81.5l57 -35q-65 -144 -222 -144q-106 0 -174.5 73t-68.5 189t69 189t177 73q154 0 218 -134l-60 -38q-52 102 -158 102q-68 0 -112.5 -41.5t-53.5 -115.5h264z" />
    <glyph glyph-name="uni0455" unicode="&#x455;" horiz-adv-x="491" 
d="M148 379q0 -36 33.5 -56t98.5 -32q167 -32 167 -146q0 -67 -50 -113t-138 -46q-78 0 -132.5 40.5t-78.5 103.5l65 40q43 -116 146 -116q51 0 80.5 23.5t29.5 64.5q0 36 -30.5 56.5t-96.5 32.5q-74 14 -120 49.5t-46 95.5q0 61 50 97.5t121 36.5q143 0 193 -120l-60 -35
q-36 89 -132 89q-44 0 -72 -16.5t-28 -48.5z" />
    <glyph glyph-name="uni0456" unicode="&#x456;" horiz-adv-x="230" 
d="M76 0v496h78v-496h-78zM68 582v98h94v-98h-94z" />
    <glyph glyph-name="uni0457" unicode="&#x457;" horiz-adv-x="230" 
d="M76 0v496h78v-496h-78zM148 588v92h92v-92h-92zM-10 588v92h92v-92h-92z" />
    <glyph glyph-name="uni0458" unicode="&#x458;" horiz-adv-x="230" 
d="M-29 -203l10 70q19 -8 39 -8q31 0 43.5 16t12.5 54v567h78v-554q0 -153 -135 -153q-19 0 -48 8zM68 582v98h94v-98h-94z" />
    <glyph glyph-name="uni0459" unicode="&#x459;" horiz-adv-x="782" 
d="M559 290q81 0 127 -42t46 -107q0 -63 -47.5 -102t-125.5 -39h-212v428h-153l-33 -346q-4 -44 -28.5 -66.5t-62.5 -22.5q-24 0 -50 7l11 68q13 -5 23 -5q27 0 30 37l38 396h303v-206h134zM425 226v-158h140q40 0 64.5 21.5t24.5 57.5t-24.5 57.5t-64.5 21.5h-140z" />
    <glyph glyph-name="uni045A" unicode="&#x45a;" horiz-adv-x="809" 
d="M154 496v-200h220v200h78v-200h134q81 0 127 -41t46 -107t-46 -107t-127 -41h-212v228h-220v-228h-78v496h78zM452 228v-160h140q40 0 64.5 21t24.5 59t-24.5 59t-64.5 21h-140z" />
    <glyph glyph-name="uni045B" unicode="&#x45b;" horiz-adv-x="577" 
d="M10 568v64h66v68h78v-68h163v-64h-163v-159q24 46 70 73.5t99 27.5q75 0 126.5 -44.5t51.5 -130.5v-335h-78v321q0 57 -33.5 88t-87.5 31q-60 0 -104 -45.5t-44 -119.5v-275h-78v568h-66z" />
    <glyph glyph-name="uni045C" unicode="&#x45c;" horiz-adv-x="495" 
d="M192 562l64 138h107l-100 -138h-71zM154 496v-219l189 219h91l-171 -196l208 -300h-93l-168 239l-56 -65v-174h-78v496h78z" />
    <glyph glyph-name="uni045D" unicode="&#x45d;" horiz-adv-x="560" 
d="M154 496v-391l242 391h88v-496h-78v391l-242 -391h-88v496h78zM272 700l64 -138h-71l-100 138h107z" />
    <glyph glyph-name="uni045E" unicode="&#x45e;" horiz-adv-x="493" 
d="M56 -201l12 70q20 -10 40 -10q23 0 36 11t24 38l37 94l-200 494h86l157 -389l155 389h84l-249 -613q-21 -52 -51.5 -73t-78.5 -21q-28 0 -52 10zM286 672h64q0 -46 -29 -75t-74 -29t-74 29t-29 75h64q0 -44 39 -44t39 44z" />
    <glyph glyph-name="uni045F" unicode="&#x45f;" horiz-adv-x="550" 
d="M154 496v-428h242v428h78v-496h-164v-106h-70v106h-164v496h78z" />
    <glyph glyph-name="endash" unicode="&#x2013;" horiz-adv-x="517" 
d="M48 280v62h421v-62h-421z" />
    <glyph glyph-name="emdash" unicode="&#x2014;" horiz-adv-x="797" 
d="M48 280v62h701v-62h-701z" />
    <glyph glyph-name="quoteleft" unicode="&#x2018;" horiz-adv-x="196" 
d="M142 707l20 -15l-60 -113h37v-98h-94v98z" />
    <glyph glyph-name="quoteright" unicode="&#x2019;" horiz-adv-x="196" 
d="M54 474l-20 15l60 113h-37v98h94v-98z" />
    <glyph glyph-name="quotesinglbase" unicode="&#x201a;" horiz-adv-x="196" 
d="M54 -128l-20 15l60 113h-37v98h94v-98z" />
    <glyph glyph-name="quotedblleft" unicode="&#x201c;" horiz-adv-x="332" 
d="M142 707l20 -15l-60 -113h37v-98h-94v98zM278 707l20 -15l-60 -113h37v-98h-94v98z" />
    <glyph glyph-name="quotedblright" unicode="&#x201d;" horiz-adv-x="332" 
d="M190 474l-20 15l60 113h-37v98h94v-98zM54 474l-20 15l60 113h-37v98h94v-98z" />
    <glyph glyph-name="quotedblbase" unicode="&#x201e;" horiz-adv-x="332" 
d="M190 -128l-20 15l60 113h-37v98h94v-98zM54 -128l-20 15l60 113h-37v98h94v-98z" />
    <glyph glyph-name="dagger" unicode="&#x2020;" horiz-adv-x="456" 
d="M48 428v68h140v244h80v-244h140v-68h-140v-538h-80v538h-140z" />
    <glyph glyph-name="daggerdbl" unicode="&#x2021;" horiz-adv-x="456" 
d="M48 428v68h140v244h80v-244h140v-68h-140v-226h140v-68h-140v-244h-80v244h-140v68h140v226h-140z" />
    <glyph glyph-name="bullet" unicode="&#x2022;" horiz-adv-x="286" 
d="M52 275q0 37 27 64t64 27t64 -27t27 -64t-27 -64t-64 -27t-64 27t-27 64z" />
    <glyph glyph-name="ellipsis" unicode="&#x2026;" horiz-adv-x="550" 
d="M408 0v98h94v-98h-94zM228 0v98h94v-98h-94zM48 0v98h94v-98h-94z" />
    <glyph glyph-name="perthousand" unicode="&#x2030;" horiz-adv-x="1159" 
d="M493 161q0 74 48 124.5t122 50.5q88 0 137 -69q49 69 137 69q74 0 122 -50.5t48 -124.5t-48 -124.5t-122 -50.5q-88 0 -137 68q-49 -68 -137 -68q-74 0 -122 50.5t-48 124.5zM52 539q0 74 48 124.5t122 50.5t122 -50.5t48 -124.5t-48 -124.5t-122 -50.5t-122 50.5
t-48 124.5zM118 539q0 -51 28.5 -82t75.5 -31t75.5 31t28.5 82t-28.5 82t-75.5 31t-75.5 -31t-28.5 -82zM559 161q0 -51 28.5 -82t75.5 -31t75.5 31t28.5 82t-28.5 82t-75.5 31t-75.5 -31t-28.5 -82zM833 161q0 -51 28.5 -82t75.5 -31t75.5 31t28.5 82t-28.5 82t-75.5 31
t-75.5 -31t-28.5 -82zM252 0l-52 35l435 665l52 -35z" />
    <glyph glyph-name="guilsinglleft" unicode="&#x2039;" horiz-adv-x="333" 
d="M204 474h93l-152 -199l152 -199h-93l-156 199z" />
    <glyph glyph-name="guilsinglright" unicode="&#x203a;" horiz-adv-x="333" 
d="M36 474h93l156 -199l-156 -199h-93l152 199z" />
    <glyph glyph-name="fraction" unicode="&#x2044;" horiz-adv-x="527" 
d="M72 0l-52 35l435 665l52 -35z" />
    <glyph glyph-name="zerosuperior" unicode="&#x2070;" horiz-adv-x="384" 
d="M344 525q0 -81 -42.5 -131.5t-109.5 -50.5t-109.5 50.5t-42.5 131.5t42.5 131.5t109.5 50.5t109.5 -50.5t42.5 -131.5zM192 400q42 0 67 33t25 92t-25 92t-67 33t-67 -33t-25 -92t25 -92t67 -33z" />
    <glyph glyph-name="foursuperior" unicode="&#x2074;" horiz-adv-x="377" 
d="M57 416v52l165 232h62v-232h39v-52h-39v-66h-62v66h-165zM222 612l-105 -144h105v144z" />
    <glyph glyph-name="fivesuperior" unicode="&#x2075;" horiz-adv-x="356" 
d="M62 510l18 190h217v-50h-168l-13 -98q29 37 82 37q54 0 86 -33t32 -89q0 -54 -36 -89t-95 -35t-93 29t-34 69q0 15 4 27l57 -10q-3 -8 -3 -16q0 -24 19 -36.5t50 -12.5q33 0 52 20t19 53t-19 53t-50 20q-49 0 -76 -43z" />
    <glyph glyph-name="sixsuperior" unicode="&#x2076;" horiz-adv-x="357" 
d="M299 595l-53 10q4 11 4 18q0 14 -14 24t-38 10q-39 0 -60.5 -35t-23.5 -88q26 44 85 44q50 0 83 -32t33 -84t-36.5 -85.5t-90.5 -33.5q-59 0 -95.5 43t-36.5 118q0 65 20 115q16 41 49.5 64.5t72.5 23.5q45 0 75.5 -23.5t30.5 -63.5q0 -13 -5 -25zM188 532
q-29 0 -50 -19.5t-21 -51.5t21 -51.5t50 -19.5q30 0 50.5 19.5t20.5 51.5t-20.5 51.5t-50.5 19.5z" />
    <glyph glyph-name="sevensuperior" unicode="&#x2077;" horiz-adv-x="311" 
d="M278 653l-141 -303h-61l140 300h-164v50h226v-47z" />
    <glyph glyph-name="eightsuperior" unicode="&#x2078;" horiz-adv-x="340" 
d="M170 343q-54 0 -89.5 30t-35.5 77q0 59 55 88q-43 29 -43 75q0 41 32 67.5t81 26.5t81 -26.5t32 -67.5q0 -46 -43 -75q55 -29 55 -88q0 -47 -35.5 -77t-89.5 -30zM170 391q27 0 45 16.5t18 44.5q0 29 -18.5 45t-44.5 16t-44.5 -16t-18.5 -45q0 -28 18 -44.5t45 -16.5z
M114 610q0 -23 15.5 -37t40.5 -14t40.5 14t15.5 37t-16 37t-40 14t-40 -14t-16 -37z" />
    <glyph glyph-name="ninesuperior" unicode="&#x2079;" horiz-adv-x="340" 
d="M66 455l53 -10q-4 -11 -4 -18q0 -14 14 -24t38 -10q40 0 61.5 34t23.5 93q-10 -21 -32.5 -34.5t-50.5 -13.5q-49 0 -84 32.5t-35 83.5q0 52 36.5 85.5t90.5 33.5q61 0 96.5 -42.5t35.5 -118.5q0 -65 -20 -115q-16 -42 -48.5 -65t-71.5 -23q-45 0 -76.5 22.5t-31.5 59.5
q0 15 5 30zM177 518q29 0 50.5 19.5t21.5 51.5t-21.5 51.5t-50.5 19.5q-30 0 -50.5 -19.5t-20.5 -51.5t20.5 -51.5t50.5 -19.5z" />
    <glyph glyph-name="zeroinferior" unicode="&#x2080;" horiz-adv-x="384" 
d="M344 -29q0 -81 -42.5 -131.5t-109.5 -50.5t-109.5 50.5t-42.5 131.5t42.5 131.5t109.5 50.5t109.5 -50.5t42.5 -131.5zM192 -154q42 0 67 33t25 92t-25 92t-67 33t-67 -33t-25 -92t25 -92t67 -33z" />
    <glyph glyph-name="oneinferior" unicode="&#x2081;" horiz-adv-x="251" 
d="M46 50v53q60 0 79 43h56v-350h-60v273q-21 -19 -75 -19z" />
    <glyph glyph-name="twoinferior" unicode="&#x2082;" horiz-adv-x="339" 
d="M62 -162l129 126q43 42 43 87q0 20 -15 35t-42 15q-26 0 -42.5 -14.5t-16.5 -41.5q0 -12 4 -21l-54 -7q-6 14 -6 33q0 41 32 72t83 31q54 0 85.5 -28t31.5 -72q0 -61 -65 -125l-79 -78h148v-54h-236v42z" />
    <glyph glyph-name="threeinferior" unicode="&#x2083;" horiz-adv-x="361" 
d="M60 -77l53 -12q-3 -9 -3 -19q0 -24 19 -37.5t49 -13.5q66 0 66 61q0 29 -26 44t-68 15v45q76 0 76 57q0 19 -15.5 30.5t-38.5 11.5q-24 0 -40.5 -13.5t-16.5 -35.5q0 -6 2 -16l-49 -6q-5 14 -5 31q0 37 30.5 62.5t78.5 25.5q51 0 82 -24.5t31 -60.5q0 -54 -52 -79
q30 -9 49.5 -32.5t19.5 -56.5q0 -51 -35.5 -81t-88.5 -30q-57 0 -91.5 30.5t-34.5 69.5q0 20 8 34z" />
    <glyph glyph-name="fourinferior" unicode="&#x2084;" horiz-adv-x="377" 
d="M57 -138v52l165 232h62v-232h39v-52h-39v-66h-62v66h-165zM222 58l-105 -144h105v144z" />
    <glyph glyph-name="fiveinferior" unicode="&#x2085;" horiz-adv-x="356" 
d="M62 -44l18 190h217v-50h-168l-13 -98q29 37 82 37q54 0 86 -33t32 -89q0 -54 -36 -89t-95 -35t-93 29t-34 69q0 15 4 27l57 -10q-3 -8 -3 -16q0 -24 19 -36.5t50 -12.5q33 0 52 20t19 53t-19 53t-50 20q-49 0 -76 -43z" />
    <glyph glyph-name="sixinferior" unicode="&#x2086;" horiz-adv-x="357" 
d="M299 41l-53 10q4 11 4 18q0 14 -14 24t-38 10q-39 0 -60.5 -35t-23.5 -88q26 44 85 44q50 0 83 -32t33 -84t-36.5 -85.5t-90.5 -33.5q-59 0 -95.5 43t-36.5 118q0 65 20 115q16 41 49.5 64.5t72.5 23.5q45 0 75.5 -23.5t30.5 -63.5q0 -13 -5 -25zM188 -22
q-29 0 -50 -19.5t-21 -51.5t21 -51.5t50 -19.5q30 0 50.5 19.5t20.5 51.5t-20.5 51.5t-50.5 19.5z" />
    <glyph glyph-name="seveninferior" unicode="&#x2087;" horiz-adv-x="311" 
d="M278 99l-141 -303h-61l140 300h-164v50h226v-47z" />
    <glyph glyph-name="eightinferior" unicode="&#x2088;" horiz-adv-x="340" 
d="M170 -211q-54 0 -89.5 30t-35.5 77q0 59 55 88q-43 29 -43 75q0 41 32 67.5t81 26.5t81 -26.5t32 -67.5q0 -46 -43 -75q55 -29 55 -88q0 -47 -35.5 -77t-89.5 -30zM170 -163q27 0 45 16.5t18 44.5q0 29 -18.5 45t-44.5 16t-44.5 -16t-18.5 -45q0 -28 18 -44.5t45 -16.5z
M114 56q0 -23 15.5 -37t40.5 -14t40.5 14t15.5 37t-16 37t-40 14t-40 -14t-16 -37z" />
    <glyph glyph-name="nineinferior" unicode="&#x2089;" horiz-adv-x="340" 
d="M66 -99l53 -10q-4 -11 -4 -18q0 -14 14 -24t38 -10q40 0 61.5 34t23.5 93q-10 -21 -32.5 -34.5t-50.5 -13.5q-49 0 -84 32.5t-35 83.5q0 52 36.5 85.5t90.5 33.5q61 0 96.5 -42.5t35.5 -118.5q0 -65 -20 -115q-16 -42 -48.5 -65t-71.5 -23q-45 0 -76.5 22.5t-31.5 59.5
q0 15 5 30zM177 -36q29 0 50.5 19.5t21.5 51.5t-21.5 51.5t-50.5 19.5q-30 0 -50.5 -19.5t-20.5 -51.5t20.5 -51.5t50.5 -19.5z" />
    <glyph glyph-name="Euro" unicode="&#x20ac;" horiz-adv-x="759" 
d="M42 394l28 62h57q26 117 109.5 187.5t192.5 70.5q214 0 273 -190l-73 -28q-45 144 -200 144q-81 0 -137.5 -48t-77.5 -136h286l-28 -62h-268q-2 -28 -2 -44t2 -44h296l-28 -62h-259q21 -87 77 -135.5t137 -48.5q79 0 126.5 39.5t74.5 122.5l75 -26q-30 -99 -101 -154.5
t-175 -55.5q-111 0 -192.5 69t-107.5 189h-85l28 62h48q-2 28 -2 44t2 44h-76z" />
    <glyph glyph-name="trademark" unicode="&#x2122;" horiz-adv-x="848" 
d="M38 650v50h298v-50h-120v-350h-58v350h-120zM390 300v400h56l146 -339l146 339h56v-400h-52v291l-121 -291h-58l-121 291v-291h-52z" />
    <glyph glyph-name="Omega" unicode="&#x2126;" horiz-adv-x="788" 
d="M711 74v-74h-257v88q77 32 134.5 107.5t57.5 182.5q0 113 -70.5 187.5t-181.5 74.5t-181.5 -74.5t-70.5 -187.5q0 -107 57.5 -182.5t134.5 -107.5v-88h-257v74h157q-72 41 -125 125.5t-53 183.5q0 143 97 237t241 94t241 -94t97 -237q0 -99 -53 -183.5t-125 -125.5h157z
" />
    <glyph glyph-name="onethird" unicode="&#x2153;" horiz-adv-x="777" 
d="M482 127l53 -12q-3 -9 -3 -19q0 -24 19 -37.5t49 -13.5q66 0 66 61q0 29 -26 44t-68 15v45q76 0 76 57q0 19 -15.5 30.5t-38.5 11.5q-24 0 -40.5 -13.5t-16.5 -35.5q0 -6 2 -16l-49 -6q-5 14 -5 31q0 37 30.5 62.5t78.5 25.5q51 0 82 -24.5t31 -60.5q0 -54 -52 -79
q30 -9 49.5 -32.5t19.5 -56.5q0 -51 -35.5 -81t-88.5 -30q-57 0 -91.5 30.5t-34.5 69.5q0 20 8 34zM174 0l-52 35l435 665l52 -35zM46 604v53q60 0 79 43h56v-350h-60v273q-21 -19 -75 -19z" />
    <glyph glyph-name="twothirds" unicode="&#x2154;" horiz-adv-x="852" 
d="M557 127l53 -12q-3 -9 -3 -19q0 -24 19 -37.5t49 -13.5q66 0 66 61q0 29 -26 44t-68 15v45q76 0 76 57q0 19 -15.5 30.5t-38.5 11.5q-24 0 -40.5 -13.5t-16.5 -35.5q0 -6 2 -16l-49 -6q-5 14 -5 31q0 37 30.5 62.5t78.5 25.5q51 0 82 -24.5t31 -60.5q0 -54 -52 -79
q30 -9 49.5 -32.5t19.5 -56.5q0 -51 -35.5 -81t-88.5 -30q-57 0 -91.5 30.5t-34.5 69.5q0 20 8 34zM250 0l-52 35l435 665l52 -35zM60 392l129 126q43 42 43 87q0 20 -15 35t-42 15q-26 0 -42.5 -14.5t-16.5 -41.5q0 -12 4 -21l-54 -7q-6 13 -6 33q0 41 32 72t83 31
q54 0 85.5 -28t31.5 -72q0 -61 -65 -125l-79 -78h148v-54h-236v42z" />
    <glyph glyph-name="oneeighth" unicode="&#x215b;" horiz-adv-x="784" 
d="M46 604v53q60 0 79 43h56v-350h-60v273q-21 -19 -75 -19zM175 0l-52 35l435 665l52 -35zM597 -7q-54 0 -89.5 30t-35.5 77q0 59 55 88q-43 29 -43 75q0 41 32 67.5t81 26.5t81 -26.5t32 -67.5q0 -46 -43 -75q55 -29 55 -88q0 -47 -35.5 -77t-89.5 -30zM597 41
q27 0 45 16.5t18 44.5q0 29 -18.5 45t-44.5 16t-44.5 -16t-18.5 -45q0 -28 18 -44.5t45 -16.5zM541 260q0 -23 15.5 -37t40.5 -14t40.5 14t15.5 37t-16 37t-40 14t-40 -14t-16 -37z" />
    <glyph glyph-name="threeeighths" unicode="&#x215c;" horiz-adv-x="844" 
d="M656 -7q-54 0 -89.5 30t-35.5 77q0 59 55 88q-43 29 -43 75q0 41 32 67.5t81 26.5t81 -26.5t32 -67.5q0 -46 -43 -75q55 -29 55 -88q0 -47 -35.5 -77t-89.5 -30zM656 41q27 0 45 16.5t18 44.5q0 29 -18.5 45t-44.5 16t-44.5 -16t-18.5 -45q0 -28 18 -44.5t45 -16.5z
M600 260q0 -23 15.5 -37t40.5 -14t40.5 14t15.5 37t-16 37t-40 14t-40 -14t-16 -37zM60 477l53 -12q-3 -9 -3 -19q0 -24 19 -37.5t49 -13.5q66 0 66 61q0 29 -26 44t-68 15v45q76 0 76 57q0 19 -15.5 30.5t-38.5 11.5q-24 0 -40.5 -13.5t-16.5 -35.5q0 -6 2 -16l-49 -6
q-5 14 -5 31q0 37 30.5 62.5t78.5 25.5q51 0 82 -24.5t31 -60.5q0 -54 -52 -79q30 -9 49.5 -32.5t19.5 -56.5q0 -51 -35.5 -81t-88.5 -30q-57 0 -91.5 30.5t-34.5 69.5q0 20 8 34zM229 0l-52 35l435 665l52 -35z" />
    <glyph glyph-name="fiveeighths" unicode="&#x215d;" horiz-adv-x="844" 
d="M229 0l-52 35l435 665l52 -35zM657 -7q-54 0 -89.5 30t-35.5 77q0 59 55 88q-43 29 -43 75q0 41 32 67.5t81 26.5t81 -26.5t32 -67.5q0 -46 -43 -75q55 -29 55 -88q0 -47 -35.5 -77t-89.5 -30zM657 41q27 0 45 16.5t18 44.5q0 29 -18.5 45t-44.5 16t-44.5 -16t-18.5 -45
q0 -28 18 -44.5t45 -16.5zM601 260q0 -23 15.5 -37t40.5 -14t40.5 14t15.5 37t-16 37t-40 14t-40 -14t-16 -37zM55 510l18 190h217v-50h-168l-13 -98q29 37 82 37q54 0 86 -33t32 -89q0 -54 -36 -89t-95 -35t-93 29t-34 69q0 15 4 27l57 -10q-3 -8 -3 -16q0 -24 19 -36.5
t50 -12.5q33 0 52 20t19 53t-19 53t-50 20q-49 0 -76 -43z" />
    <glyph glyph-name="seveneighths" unicode="&#x215e;" horiz-adv-x="786" 
d="M167 0l-52 35l435 665l52 -35zM599 -7q-54 0 -89.5 30t-35.5 77q0 59 55 88q-43 29 -43 75q0 41 32 67.5t81 26.5t81 -26.5t32 -67.5q0 -46 -43 -75q55 -29 55 -88q0 -47 -35.5 -77t-89.5 -30zM599 41q27 0 45 16.5t18 44.5q0 29 -18.5 45t-44.5 16t-44.5 -16t-18.5 -45
q0 -28 18 -44.5t45 -16.5zM543 260q0 -23 15.5 -37t40.5 -14t40.5 14t15.5 37t-16 37t-40 14t-40 -14t-16 -37zM289 653l-141 -303h-61l140 300h-164v50h226v-47z" />
    <glyph glyph-name="arrowleft" unicode="&#x2190;" horiz-adv-x="559" 
d="M305 155l-47 -46l-202 202l202 202l47 -46l-125 -125h329v-62h-329z" />
    <glyph glyph-name="arrowup" unicode="&#x2191;" horiz-adv-x="496" 
d="M92 348l-46 47l202 202l202 -202l-46 -47l-125 125v-329h-62v329z" />
    <glyph glyph-name="arrowright" unicode="&#x2192;" horiz-adv-x="559" 
d="M301 109l-47 46l125 125h-329v62h329l-125 125l47 46l202 -202z" />
    <glyph glyph-name="arrowdown" unicode="&#x2193;" horiz-adv-x="496" 
d="M46 346l46 47l125 -125v329h62v-329l125 125l46 -47l-202 -202z" />
    <glyph glyph-name="arrowboth" unicode="&#x2194;" horiz-adv-x="766" 
d="M508 109l-47 46l125 125h-406l125 -125l-47 -46l-202 202l202 202l47 -46l-125 -125h406l-125 125l47 46l202 -202z" />
    <glyph glyph-name="arrowupdn" unicode="&#x2195;" horiz-adv-x="496" 
d="M92 428l-46 47l202 202l202 -202l-46 -47l-125 125v-406l125 125l46 -47l-202 -202l-202 202l46 47l125 -125v406z" />
    <glyph glyph-name="uni2196" unicode="&#x2196;" horiz-adv-x="518" 
d="M159 185h-66v286h286v-66h-176l233 -232l-44 -44l-233 232v-176z" />
    <glyph glyph-name="uni2197" unicode="&#x2197;" horiz-adv-x="518" 
d="M425 185h-66v176l-233 -232l-44 44l233 232h-176v66h286v-286z" />
    <glyph glyph-name="uni2198" unicode="&#x2198;" horiz-adv-x="518" 
d="M359 415h66v-286h-286v66h176l-233 232l44 44l233 -232v176z" />
    <glyph glyph-name="uni2199" unicode="&#x2199;" horiz-adv-x="518" 
d="M93 415h66v-176l233 232l44 -44l-233 -232h176v-66h-286v286z" />
    <glyph glyph-name="partialdiff" unicode="&#x2202;" horiz-adv-x="585" 
d="M536 285q0 -128 -70.5 -213.5t-191.5 -85.5q-89 0 -157 60t-68 168q0 104 68 176t179 72q55 0 95.5 -22.5t62.5 -60.5q-3 67 -23 124.5t-65.5 99t-109.5 41.5q-45 0 -73 -20t-28 -47q0 -13 6 -27l-66 -28q-13 24 -13 52q0 56 50.5 98t129.5 42q92 0 155 -58t91 -152.5
t28 -218.5zM283 56q70 0 119.5 51.5t49.5 130.5q0 73 -45 113.5t-110 40.5q-74 0 -121 -53t-47 -127t46.5 -115t107.5 -41z" />
    <glyph glyph-name="Delta" unicode="&#x2206;" horiz-adv-x="656" 
d="M6 0l278 700h88l278 -700h-644zM307 549l-188 -479h417l-187 479l-21 58q-7 -22 -21 -58z" />
    <glyph glyph-name="product" unicode="&#x220f;" horiz-adv-x="672" 
d="M88 -204v904h496v-904h-84v830h-328v-830h-84z" />
    <glyph glyph-name="summation" unicode="&#x2211;" horiz-adv-x="569" 
d="M257 290l-213 336v74h475v-74h-383l214 -336l-227 -336h408v-74h-495v74z" />
    <glyph glyph-name="minus" unicode="&#x2212;" horiz-adv-x="506" 
d="M48 334v62h410v-62h-410z" />
    <glyph glyph-name="radical" unicode="&#x221a;" horiz-adv-x="594" 
d="M312 0h-78l-104 294h-98v62h160l83 -246l219 590h78z" />
    <glyph glyph-name="infinity" unicode="&#x221e;" horiz-adv-x="774" 
d="M52 300q0 69 44 114t114 45q56 0 97.5 -28t79.5 -77q39 49 79.5 77t97.5 28q70 0 114 -45t44 -114t-44 -114t-114 -45q-57 0 -98 27.5t-79 76.5q-81 -104 -177 -104q-70 0 -114 45t-44 114zM128 300q0 -38 25.5 -64.5t66.5 -26.5q36 0 64.5 23t61.5 68q-34 45 -62 68
t-64 23q-41 0 -66.5 -26.5t-25.5 -64.5zM554 391q-36 0 -64 -23t-62 -68q34 -45 62 -68t64 -23q41 0 66.5 26.5t25.5 64.5t-25.5 64.5t-66.5 26.5z" />
    <glyph glyph-name="integral" unicode="&#x222b;" horiz-adv-x="307" 
d="M179 594v-668q0 -70 -34 -107t-98 -37q-33 0 -53 7l12 66q15 -5 31 -5q32 0 48 18t16 59v668q0 71 40 113t113 42q28 0 48 -7l-12 -66q-15 5 -33 5q-78 0 -78 -88z" />
    <glyph glyph-name="approxequal" unicode="&#x2248;" horiz-adv-x="447" 
d="M148 269q-12 0 -20.5 -8t-8.5 -19q0 -12 7 -26l-66 -12q-12 17 -12 42q0 42 28.5 66t68.5 24q39 0 66.5 -17t47.5 -33.5t40 -16.5q12 0 20.5 8t8.5 19q0 12 -7 26l66 12q12 -17 12 -42q0 -42 -28.5 -66t-68.5 -24q-39 0 -66.5 17t-47.5 33.5t-40 16.5zM148 429
q-12 0 -20.5 -8t-8.5 -19q0 -12 7 -26l-66 -12q-12 17 -12 42q0 42 28.5 66t68.5 24q39 0 66.5 -17t47.5 -33.5t40 -16.5q12 0 20.5 8t8.5 19q0 12 -7 26l66 12q12 -17 12 -42q0 -42 -28.5 -66t-68.5 -24q-39 0 -66.5 17t-47.5 33.5t-40 16.5z" />
    <glyph glyph-name="notequal" unicode="&#x2260;" horiz-adv-x="506" 
d="M48 414v62h244l81 140l52 -31l-63 -109h96v-62h-132l-76 -128h208v-62h-244l-81 -140l-52 31l63 109h-96v62h132l76 128h-208z" />
    <glyph glyph-name="lessequal" unicode="&#x2264;" horiz-adv-x="506" 
d="M48 352v76l410 201v-80l-334 -159l334 -159v-80zM48 0v62h410v-62h-410z" />
    <glyph glyph-name="greaterequal" unicode="&#x2265;" horiz-adv-x="506" 
d="M458 428v-76l-410 -201v80l334 159l-334 159v80zM48 0v62h410v-62h-410z" />
    <glyph glyph-name="lozenge" unicode="&#x25ca;" horiz-adv-x="580" 
d="M552 350l-218 -350h-88l-218 350l218 350h88zM290 65l176 285l-176 284l-176 -284z" />
    <glyph glyph-name="apple" unicode="&#xf8ff;" horiz-adv-x="780" 
d="M686 617v-595q0 -9 -6.5 -15.5t-15.5 -6.5q-3 0 -7 1l-267 77l-267 -77q-4 -1 -7 -1q-9 0 -15.5 6.5t-6.5 15.5v595q0 17 16 22l270 78q6 2 10 2t10 -2l270 -78q16 -5 16 -22zM368 366v303l-230 -67q6 -94 71.5 -161t158.5 -75zM412 669v-303q93 8 158.5 75t71.5 161z
M137 463v-412l231 67v204q-73 6 -134 43.5t-97 97.5zM643 51v412q-37 -60 -97.5 -97.5t-133.5 -43.5v-204z" />
    <glyph glyph-name="a.alt" horiz-adv-x="599" 
d="M523 496v-496h-78v89q-51 -103 -167 -103q-104 0 -170 73.5t-66 188.5q0 113 68 187.5t163 74.5q129 0 172 -100v86h78zM287 58q71 0 117.5 52.5t46.5 137.5t-46.5 137.5t-117.5 52.5q-72 0 -118.5 -52.5t-46.5 -137.5t46.5 -137.5t118.5 -52.5z" />
    <glyph glyph-name="aacute.alt" horiz-adv-x="599" 
d="M523 496v-496h-78v89q-51 -103 -167 -103q-104 0 -170 73.5t-66 188.5q0 113 68 187.5t163 74.5q129 0 172 -100v86h78zM287 58q71 0 117.5 52.5t46.5 137.5t-46.5 137.5t-117.5 52.5q-72 0 -118.5 -52.5t-46.5 -137.5t46.5 -137.5t118.5 -52.5zM234 562l64 138h107
l-100 -138h-71z" />
    <glyph glyph-name="acircumflex.alt" horiz-adv-x="599" 
d="M523 496v-496h-78v89q-51 -103 -167 -103q-104 0 -170 73.5t-66 188.5q0 113 68 187.5t163 74.5q129 0 172 -100v86h78zM287 58q71 0 117.5 52.5t46.5 137.5t-46.5 137.5t-117.5 52.5q-72 0 -118.5 -52.5t-46.5 -137.5t46.5 -137.5t118.5 -52.5zM165 562l100 138h68
l100 -138h-68l-66 68l-66 -68h-68z" />
    <glyph glyph-name="adieresis.alt" horiz-adv-x="599" 
d="M523 496v-496h-78v89q-51 -103 -167 -103q-104 0 -170 73.5t-66 188.5q0 113 68 187.5t163 74.5q129 0 172 -100v86h78zM287 58q71 0 117.5 52.5t46.5 137.5t-46.5 137.5t-117.5 52.5q-72 0 -118.5 -52.5t-46.5 -137.5t46.5 -137.5t118.5 -52.5zM332 588v92h92v-92h-92z
M174 588v92h92v-92h-92z" />
    <glyph glyph-name="atilde.alt" horiz-adv-x="599" 
d="M523 496v-496h-78v89q-51 -103 -167 -103q-104 0 -170 73.5t-66 188.5q0 113 68 187.5t163 74.5q129 0 172 -100v86h78zM287 58q71 0 117.5 52.5t46.5 137.5t-46.5 137.5t-117.5 52.5q-72 0 -118.5 -52.5t-46.5 -137.5t46.5 -137.5t118.5 -52.5zM217 628q-12 0 -20.5 -8
t-8.5 -19q0 -12 7 -26l-60 -12q-12 18 -12 46q0 37 27 58.5t63 21.5q31 0 54 -10.5t34.5 -23t27 -23t32.5 -10.5q12 0 20.5 8t8.5 19q0 12 -7 26l60 12q12 -18 12 -46q0 -38 -27 -59t-63 -21q-31 0 -54 10.5t-34.5 23t-27 23t-32.5 10.5z" />
    <glyph glyph-name="agrave.alt" horiz-adv-x="599" 
d="M523 496v-496h-78v89q-51 -103 -167 -103q-104 0 -170 73.5t-66 188.5q0 113 68 187.5t163 74.5q129 0 172 -100v86h78zM287 58q71 0 117.5 52.5t46.5 137.5t-46.5 137.5t-117.5 52.5q-72 0 -118.5 -52.5t-46.5 -137.5t46.5 -137.5t118.5 -52.5zM281 700l64 -138h-71
l-100 138h107z" />
    <glyph glyph-name="abreve.alt" horiz-adv-x="599" 
d="M523 496v-496h-78v89q-51 -103 -167 -103q-104 0 -170 73.5t-66 188.5q0 113 68 187.5t163 74.5q129 0 172 -100v86h78zM287 58q71 0 117.5 52.5t46.5 137.5t-46.5 137.5t-117.5 52.5q-72 0 -118.5 -52.5t-46.5 -137.5t46.5 -137.5t118.5 -52.5zM338 672h64
q0 -46 -29 -75t-74 -29t-74 29t-29 75h64q0 -44 39 -44t39 44z" />
    <glyph glyph-name="aogonek.alt" horiz-adv-x="599" 
d="M381 -105q0 64 64 105v89q-51 -103 -167 -103q-104 0 -170 73.5t-66 188.5q0 113 68 187.5t163 74.5q129 0 172 -100v86h78v-496q-71 -38 -71 -83q0 -21 13 -33t36 -12q5 0 19 2l9 -66q-21 -6 -45 -6q-42 0 -72.5 24.5t-30.5 68.5zM287 58q71 0 117.5 52.5t46.5 137.5
t-46.5 137.5t-117.5 52.5q-72 0 -118.5 -52.5t-46.5 -137.5t46.5 -137.5t118.5 -52.5z" />
    <glyph glyph-name="amacron.alt" horiz-adv-x="599" 
d="M523 496v-496h-78v89q-51 -103 -167 -103q-104 0 -170 73.5t-66 188.5q0 113 68 187.5t163 74.5q129 0 172 -100v86h78zM287 58q71 0 117.5 52.5t46.5 137.5t-46.5 137.5t-117.5 52.5q-72 0 -118.5 -52.5t-46.5 -137.5t46.5 -137.5t118.5 -52.5zM179 600v70h220v-70h-220
z" />
    <glyph glyph-name="aring.alt" horiz-adv-x="599" 
d="M523 496v-496h-78v89q-51 -103 -167 -103q-104 0 -170 73.5t-66 188.5q0 113 68 187.5t163 74.5q129 0 172 -100v86h78zM287 58q71 0 117.5 52.5t46.5 137.5t-46.5 137.5t-117.5 52.5q-72 0 -118.5 -52.5t-46.5 -137.5t46.5 -137.5t118.5 -52.5zM240 635q0 -20 13 -33.5
t33 -13.5t33 13.5t13 33.5t-13 33.5t-33 13.5t-33 -13.5t-13 -33.5zM190 635q0 40 28 67.5t68 27.5t68 -27.5t28 -67.5t-27 -67.5t-69 -27.5t-69 27.5t-27 67.5z" />
    <glyph glyph-name="ae.alt" horiz-adv-x="983" 
d="M523 496v-77q26 41 74 66t103 25q110 0 174.5 -69t64.5 -179v-27h-410q4 -80 50 -131.5t121 -51.5q63 0 101.5 29.5t65.5 83.5l57 -34q-73 -145 -227 -145q-115 0 -174 90v-76h-78v89q-51 -103 -167 -103q-104 0 -170 73.5t-66 188.5q0 113 68 187.5t163 74.5
q129 0 172 -100v86h78zM287 58q71 0 117.5 52.5t46.5 137.5t-46.5 137.5t-117.5 52.5q-72 0 -118.5 -52.5t-46.5 -137.5t46.5 -137.5t118.5 -52.5zM700 444q-65 0 -108 -39.5t-57 -105.5h326q-4 67 -52 106t-109 39z" />
    <glyph glyph-name="aeacute.alt" horiz-adv-x="983" 
d="M523 496v-77q26 41 74 66t103 25q110 0 174.5 -69t64.5 -179v-27h-410q4 -80 50 -131.5t121 -51.5q63 0 101.5 29.5t65.5 83.5l57 -34q-73 -145 -227 -145q-115 0 -174 90v-76h-78v89q-51 -103 -167 -103q-104 0 -170 73.5t-66 188.5q0 113 68 187.5t163 74.5
q129 0 172 -100v86h78zM287 58q71 0 117.5 52.5t46.5 137.5t-46.5 137.5t-117.5 52.5q-72 0 -118.5 -52.5t-46.5 -137.5t46.5 -137.5t118.5 -52.5zM700 444q-65 0 -108 -39.5t-57 -105.5h326q-4 67 -52 106t-109 39zM448 562l64 138h107l-100 -138h-71z" />
    <glyph glyph-name="alpha.alt" horiz-adv-x="638" 
d="M287 58q72 0 118.5 52.5t46.5 137.5t-46.5 137.5t-118.5 52.5t-118.5 -52.5t-46.5 -137.5t46.5 -137.5t118.5 -52.5zM594 63l13 -68q-26 -9 -50 -9q-51 0 -78 28t-33 75q-59 -103 -168 -103q-104 0 -170 73.5t-66 188.5q0 113 68 187.5t163 74.5q125 0 173 -104v90h78
v-377q0 -61 44 -61q15 0 26 5z" />
    <glyph glyph-name="alphatonos.alt" horiz-adv-x="638" 
d="M287 58q72 0 118.5 52.5t46.5 137.5t-46.5 137.5t-118.5 52.5t-118.5 -52.5t-46.5 -137.5t46.5 -137.5t118.5 -52.5zM594 63l13 -68q-26 -9 -50 -9q-51 0 -78 28t-33 75q-59 -103 -168 -103q-104 0 -170 73.5t-66 188.5q0 113 68 187.5t163 74.5q125 0 173 -104v90h78
v-377q0 -61 44 -61q15 0 26 5zM250 562l44 138h107l-80 -138h-71z" />
    <glyph glyph-name="delta.alt" horiz-adv-x="586" 
d="M354 460q183 -52 183 -234q0 -109 -72.5 -174.5t-171.5 -65.5t-171.5 64.5t-72.5 175.5q0 79 46 137.5t118 77.5q-57 16 -91 52t-34 82q0 61 54.5 100t143.5 39q98 0 149.5 -34.5t51.5 -90.5q0 -29 -17 -56l-67 25q8 19 8 32q0 23 -34 40.5t-91 17.5q-58 0 -90 -21
t-32 -52q0 -34 41 -59t149 -56zM293 56q71 0 117.5 47t46.5 121q0 73 -47.5 120.5t-116.5 47.5t-116.5 -47.5t-47.5 -120.5q0 -74 46.5 -121t117.5 -47z" />
    <glyph glyph-name="zero.slash" horiz-adv-x="716" 
d="M662 350q0 -162 -85 -263t-219 -101t-219 101t-85 263t85 263t219 101t219 -101t85 -263zM138 350q0 -128 56 -206l273 464q-47 32 -109 32q-98 0 -159 -78t-61 -212zM358 60q98 0 159 78t61 212q0 128 -56 206l-273 -464q47 -32 109 -32z" />
    <glyph glyph-name="zerosuperior.slash" horiz-adv-x="384" 
d="M344 525q0 -81 -42.5 -131.5t-109.5 -50.5t-109.5 50.5t-42.5 131.5t42.5 131.5t109.5 50.5t109.5 -50.5t42.5 -131.5zM100 525q0 -55 21 -86l102 206q-15 5 -31 5q-42 0 -67 -33t-25 -92zM192 400q42 0 67 33t25 92q0 55 -21 86l-102 -206q15 -5 31 -5z" />
    <glyph glyph-name="zeroinferior.slash" horiz-adv-x="384" 
d="M344 -29q0 -81 -42.5 -131.5t-109.5 -50.5t-109.5 50.5t-42.5 131.5t42.5 131.5t109.5 50.5t109.5 -50.5t42.5 -131.5zM100 -29q0 -55 21 -86l102 206q-15 5 -31 5q-42 0 -67 -33t-25 -92zM192 -154q42 0 67 33t25 92q0 55 -21 86l-102 -206q15 -5 31 -5z" />
    <glyph glyph-name="zero.posn" horiz-adv-x="656" 
d="M606 282q0 -137 -81.5 -216.5t-196.5 -79.5t-196.5 79.5t-81.5 216.5t81.5 216.5t196.5 79.5t196.5 -79.5t81.5 -216.5zM328 56q85 0 141.5 59t56.5 167t-56.5 167t-141.5 59t-141.5 -59t-56.5 -167t56.5 -167t141.5 -59z" />
    <glyph glyph-name="one.posn" horiz-adv-x="339" 
d="M38 408v68q57 0 88.5 21t52.5 67h72v-564h-80v454q-28 -27 -57.5 -36.5t-75.5 -9.5z" />
    <glyph glyph-name="two.posn" horiz-adv-x="515" 
d="M69 51l222 197q50 45 67 79t17 78q0 45 -30 74t-84 29q-55 0 -86.5 -30t-31.5 -78q0 -22 11 -53l-72 -12q-15 32 -15 69q0 75 57.5 124.5t136.5 49.5q92 0 142 -46.5t50 -120.5q0 -59 -25.5 -108.5t-87.5 -103.5l-149 -129h268v-70h-390v51z" />
    <glyph glyph-name="three.posn" horiz-adv-x="574" 
d="M68 164l71 -19q-4 -14 -4 -34q0 -58 38 -94.5t105 -36.5t106 32.5t39 93.5q0 124 -182 124v66q76 0 118 32t42 82q0 48 -35 73t-92 25q-58 0 -93 -32t-35 -83q0 -19 5 -32l-71 -11q-8 24 -8 51q0 74 57 125.5t145 51.5q95 0 149 -42.5t54 -115.5q0 -51 -28.5 -90
t-80.5 -61q58 -14 96.5 -54.5t38.5 -105.5q0 -93 -63 -146t-161 -53q-102 0 -162 57.5t-60 137.5q0 36 11 59z" />
    <glyph glyph-name="four.posn" horiz-adv-x="586" 
d="M55 68v70l325 426h80v-426h83v-70h-83v-144h-80v144h-325zM380 454l-241 -316h241v316z" />
    <glyph glyph-name="five.posn" horiz-adv-x="596" 
d="M65 230l36 334h386v-68h-319l-27 -196q62 77 166 77q105 0 164.5 -61t59.5 -169q0 -104 -67.5 -170.5t-173.5 -66.5q-95 0 -159 50t-64 129q0 23 6 45l70 -17q-2 -10 -2 -24q0 -53 43.5 -83t105.5 -30q75 0 118 43.5t43 123.5t-43 122t-117 42q-52 0 -92.5 -27t-63.5 -73
z" />
    <glyph glyph-name="six.posn" horiz-adv-x="581" 
d="M492 452l-75 16q5 16 5 34q0 39 -32 60.5t-84 21.5q-76 0 -121.5 -68.5t-54.5 -187.5q58 90 170 90q94 0 156.5 -57t62.5 -156q0 -97 -65.5 -158t-164.5 -61q-109 0 -174 75.5t-65 224.5q0 53 8.5 103.5t28 99t48.5 85t73.5 58.5t98.5 22q80 0 136.5 -40.5t56.5 -108.5
q0 -28 -8 -53zM289 348q-61 0 -105.5 -40t-44.5 -106t44.5 -106t105.5 -40t105.5 40t44.5 106t-44.5 106t-105.5 40z" />
    <glyph glyph-name="seven.posn" horiz-adv-x="523" 
d="M456 500l-217 -576h-79l215 570h-331v70h412v-64z" />
    <glyph glyph-name="eight.posn" horiz-adv-x="576" 
d="M288 -14q-100 0 -162 52.5t-62 140.5q0 58 31 100.5t79 64.5q-88 50 -88 144q0 74 58.5 120t143.5 46t143.5 -46t58.5 -120q0 -94 -88 -144q48 -22 79 -64.5t31 -100.5q0 -88 -62 -140.5t-162 -52.5zM288 56q64 0 104 33.5t40 93.5t-40 93.5t-104 33.5t-104 -33.5
t-40 -93.5t40 -93.5t104 -33.5zM160 482q0 -52 37 -80t91 -28t91 28t37 80t-37 80t-91 28t-91 -28t-37 -80z" />
    <glyph glyph-name="nine.posn" horiz-adv-x="581" 
d="M91 112l75 -16q-5 -16 -5 -34q0 -39 32 -60.5t84 -21.5q79 0 123.5 68.5t52.5 187.5q-54 -90 -170 -90q-88 0 -153.5 59t-65.5 154q0 97 65.5 158t164.5 61q112 0 175.5 -75t63.5 -225q0 -53 -8.5 -103.5t-28 -99t-48.5 -85t-73.5 -58.5t-98.5 -22q-79 0 -136 43t-57 112
q0 28 8 47zM294 216q61 0 105.5 40t44.5 106t-44.5 106t-105.5 40t-105.5 -40t-44.5 -106t44.5 -106t105.5 -40z" />
    <glyph glyph-name="zero.posn.slash" horiz-adv-x="656" 
d="M606 282q0 -137 -81.5 -216.5t-196.5 -79.5t-196.5 79.5t-81.5 216.5t81.5 216.5t196.5 79.5t196.5 -79.5t81.5 -216.5zM328 56q85 0 141.5 59t56.5 167q0 93 -45 152l-252 -353q43 -25 99 -25zM130 282q0 -93 44 -153l253 354q-47 25 -99 25q-85 0 -141.5 -59
t-56.5 -167z" />
    <glyph glyph-name="zero.tn" 
d="M585 350q0 -165 -77 -264.5t-203 -99.5t-203 99.5t-77 264.5t77 264.5t203 99.5t203 -99.5t77 -264.5zM305 60q87 0 141.5 79t54.5 211t-54.5 211t-141.5 79t-141.5 -79t-54.5 -211t54.5 -211t141.5 -79z" />
    <glyph glyph-name="one.tn" 
d="M535 74v-74h-440v74h183v513q-69 -67 -173 -67v72q116 0 181 108h76v-626h173z" />
    <glyph glyph-name="two.tn" 
d="M81 55l270 271q55 55 76 95t21 88q0 60 -40.5 97.5t-103.5 37.5q-60 0 -100 -39t-40 -101q0 -24 8 -45l-74 -12q-12 31 -12 66q0 80 62.5 140.5t158.5 60.5q100 0 161.5 -55t61.5 -139q0 -63 -27.5 -119.5t-96.5 -125.5l-200 -201h327v-74h-452v55z" />
    <glyph glyph-name="three.tn" 
d="M78 244l77 -19q-4 -14 -4 -34q0 -57 44 -94t110 -37q71 0 111.5 37.5t40.5 106.5q0 70 -53.5 104t-141.5 34v68q86 0 124.5 35.5t38.5 89.5q0 49 -36.5 79t-93.5 30q-54 0 -92 -32t-38 -83q0 -17 5 -30l-72 -11q-8 24 -8 51q0 73 59 124t147 51q96 0 153.5 -48t57.5 -121
q0 -53 -30 -98t-87 -63q68 -17 109.5 -62t41.5 -113q0 -102 -67.5 -162.5t-168.5 -60.5q-106 0 -172 60.5t-66 138.5q0 34 11 59z" />
    <glyph glyph-name="four.tn" 
d="M54 140v74l339 486h84v-486h79v-74h-79v-140h-84v140h-339zM393 576l-253 -362h253v362z" />
    <glyph glyph-name="five.tn" 
d="M76 322l33 378h402v-74h-335l-20 -236q29 42 74.5 65t95.5 23q107 0 168.5 -67.5t61.5 -176.5q0 -108 -69.5 -178t-181.5 -70q-104 0 -168.5 54t-64.5 133q0 29 9 50l77 -18q-4 -14 -4 -28q0 -57 42 -87t109 -30q74 0 120.5 46.5t46.5 127.5t-45.5 127.5t-116.5 46.5
q-54 0 -98 -30.5t-68 -74.5z" />
    <glyph glyph-name="six.tn" 
d="M519 496l-79 16q8 21 8 36q0 41 -33 66.5t-90 25.5q-81 0 -131.5 -80.5t-55.5 -211.5q29 52 81 81t109 29q97 0 162.5 -66t65.5 -167q0 -99 -70.5 -169t-175.5 -70q-118 0 -187.5 85.5t-69.5 237.5q0 126 41 230q33 83 94 129t136 46q93 0 148.5 -46t55.5 -121
q0 -25 -9 -51zM310 384q-67 0 -115 -44t-48 -118t48 -118t115 -44t114.5 44t47.5 118t-47.5 118t-114.5 44z" />
    <glyph glyph-name="seven.tn" 
d="M531 632l-283 -632h-82l280 626h-367v74h452v-68z" />
    <glyph glyph-name="eight.tn" 
d="M305 -14q-101 0 -167.5 57.5t-66.5 150.5q0 61 31.5 107.5t84.5 73.5q-44 24 -69 66t-25 92q0 79 61 130t151 51t151 -51t61 -130q0 -50 -25 -92t-69 -66q53 -27 84.5 -73.5t31.5 -107.5q0 -93 -66.5 -150.5t-167.5 -57.5zM305 54q68 0 110 39.5t42 103.5q0 63 -44.5 103
t-107.5 40t-107.5 -40t-44.5 -103q0 -64 42 -103.5t110 -39.5zM171 526q0 -55 38 -88.5t96 -33.5t96 33.5t38 88.5q0 59 -39 91.5t-95 32.5t-95 -32.5t-39 -91.5z" />
    <glyph glyph-name="nine.tn" 
d="M89 204l79 -16q-8 -21 -8 -36q0 -39 33 -65.5t95 -26.5q178 0 178 293q-22 -51 -72 -81t-104 -30q-99 0 -165.5 66t-66.5 167q0 98 68 168.5t174 70.5q127 0 193 -94q57 -82 57 -213q0 -166 -35 -259q-29 -77 -88 -119.5t-139 -42.5q-89 0 -148.5 46.5t-59.5 120.5
q0 30 9 51zM298 316q65 0 111.5 44.5t46.5 117.5t-46.5 117.5t-111.5 44.5t-110.5 -44.5t-45.5 -117.5t45.5 -117.5t110.5 -44.5z" />
    <glyph glyph-name="zero.tn.slash" 
d="M585 350q0 -165 -77 -264.5t-203 -99.5t-203 99.5t-77 264.5t77 264.5t203 99.5t203 -99.5t77 -264.5zM305 60q87 0 141.5 79t54.5 211q0 114 -42 189l-259 -441q46 -38 105 -38zM109 350q0 -114 42 -189l259 441q-46 38 -105 38q-87 0 -141.5 -79t-54.5 -211z" />
    <glyph glyph-name="zero.tosn" 
d="M583 282q0 -137 -81.5 -216.5t-196.5 -79.5t-196.5 79.5t-81.5 216.5t81.5 216.5t196.5 79.5t196.5 -79.5t81.5 -216.5zM305 56q85 0 141.5 59t56.5 167t-56.5 167t-141.5 59t-141.5 -59t-56.5 -167t56.5 -167t141.5 -59z" />
    <glyph glyph-name="one.tosn" 
d="M120 0v70h170v384q-47 -46 -153 -46v68q120 0 161 88h72v-494h150v-70h-400z" />
    <glyph glyph-name="two.tosn" 
d="M123 51l222 197q50 45 67 79t17 78q0 45 -30 74t-84 29q-55 0 -86.5 -30t-31.5 -78q0 -22 11 -53l-72 -12q-15 32 -15 69q0 75 57.5 124.5t136.5 49.5q92 0 142 -46.5t50 -120.5q0 -59 -25.5 -108.5t-87.5 -103.5l-149 -129h268v-70h-390v51z" />
    <glyph glyph-name="three.tosn" 
d="M94 164l71 -19q-4 -14 -4 -34q0 -58 38 -94.5t105 -36.5t106 32.5t39 93.5q0 124 -182 124v66q76 0 118 32t42 82q0 48 -35 73t-92 25q-58 0 -93 -32t-35 -83q0 -19 5 -32l-71 -11q-8 24 -8 51q0 74 57 125.5t145 51.5q95 0 149 -42.5t54 -115.5q0 -51 -28.5 -90
t-80.5 -61q58 -14 96.5 -54.5t38.5 -105.5q0 -93 -63 -146t-161 -53q-102 0 -162 57.5t-60 137.5q0 36 11 59z" />
    <glyph glyph-name="four.tosn" 
d="M67 68v70l325 426h80v-426h83v-70h-83v-144h-80v144h-325zM392 454l-241 -316h241v316z" />
    <glyph glyph-name="five.tosn" 
d="M83 230l36 334h386v-68h-319l-27 -196q62 77 166 77q105 0 164.5 -61t59.5 -169q0 -104 -67.5 -170.5t-173.5 -66.5q-95 0 -159 50t-64 129q0 23 6 45l70 -17q-2 -10 -2 -24q0 -53 43.5 -83t105.5 -30q75 0 118 43.5t43 123.5t-43 122t-117 42q-52 0 -92.5 -27t-63.5 -73
z" />
    <glyph glyph-name="six.tosn" 
d="M521 452l-75 16q5 16 5 34q0 39 -32 60.5t-84 21.5q-76 0 -121.5 -68.5t-54.5 -187.5q59 90 170 90q94 0 156.5 -57t62.5 -156q0 -97 -65.5 -158t-164.5 -61q-109 0 -174 75.5t-65 224.5q0 53 8.5 103.5t28 99t48.5 85t73.5 58.5t98.5 22q80 0 136.5 -40.5t56.5 -108.5
q0 -28 -8 -53zM318 348q-61 0 -105.5 -40t-44.5 -106t44.5 -106t105.5 -40t105.5 40t44.5 106t-44.5 106t-105.5 40z" />
    <glyph glyph-name="seven.tosn" 
d="M502 500l-217 -576h-79l215 570h-331v70h412v-64z" />
    <glyph glyph-name="eight.tosn" 
d="M305 -14q-100 0 -162 52.5t-62 140.5q0 58 31 100.5t79 64.5q-88 50 -88 144q0 74 58.5 120t143.5 46t143.5 -46t58.5 -120q0 -94 -88 -144q48 -22 79 -64.5t31 -100.5q0 -88 -62 -140.5t-162 -52.5zM305 56q64 0 104 33.5t40 93.5t-40 93.5t-104 33.5t-104 -33.5
t-40 -93.5t40 -93.5t104 -33.5zM177 482q0 -52 37 -80t91 -28t91 28t37 80t-37 80t-91 28t-91 -28t-37 -80z" />
    <glyph glyph-name="nine.tosn" 
d="M100 112l75 -16q-5 -16 -5 -34q0 -39 32 -60.5t84 -21.5q79 0 123.5 68.5t52.5 187.5q-54 -90 -170 -90q-88 0 -153.5 59t-65.5 154q0 97 65.5 158t164.5 61q112 0 175.5 -75t63.5 -225q0 -53 -8.5 -103.5t-28 -99t-48.5 -85t-73.5 -58.5t-98.5 -22q-79 0 -136 43
t-57 112q0 28 8 47zM303 216q61 0 105.5 40t44.5 106t-44.5 106t-105.5 40t-105.5 -40t-44.5 -106t44.5 -106t105.5 -40z" />
    <glyph glyph-name="zero.tosn.slash" 
d="M583 282q0 -137 -81.5 -216.5t-196.5 -79.5t-196.5 79.5t-81.5 216.5t81.5 216.5t196.5 79.5t196.5 -79.5t81.5 -216.5zM305 56q85 0 141.5 59t56.5 167q0 93 -45 152l-252 -353q43 -25 99 -25zM107 282q0 -93 44 -153l253 354q-47 25 -99 25q-85 0 -141.5 -59
t-56.5 -167z" />
    <glyph glyph-name="at.case" horiz-adv-x="949" 
d="M640 37l36 -58q-48 -33 -100 -47.5t-128 -14.5q-72 0 -139.5 24.5t-125.5 73.5t-93.5 132.5t-35.5 190.5q0 187 125 316t316 129q80 0 149.5 -22.5t125 -66.5t87.5 -117t32 -167q0 -136 -71.5 -225t-170.5 -89q-40 0 -62 20t-22 58q0 12 1 18l2 12q-20 -47 -65.5 -77.5
t-95.5 -30.5q-74 0 -122 56t-48 151q0 143 76 224.5t173 81.5q95 0 124 -82l10 66h72l-55 -378q-1 -8 -1 -16q0 -37 36 -37q53 0 100 65t47 178q0 141 -87.5 226.5t-244.5 85.5q-146 0 -252.5 -108.5t-106.5 -270.5q0 -87 27.5 -156t74 -112t105.5 -65t126 -22q105 0 181 54
zM414 162q72 0 125.5 77.5t53.5 177.5q0 63 -28 94.5t-76 31.5q-71 0 -124.5 -64t-53.5 -172q0 -74 30.5 -109.5t72.5 -35.5z" />
    <glyph glyph-name="exclamdown.case" horiz-adv-x="268" 
d="M176 224v-223h-84v223l11 289h62zM180 701v-100h-92v100h92z" />
    <glyph glyph-name="questiondown.case" horiz-adv-x="536" 
d="M235 505h86v-22q0 -71 -92 -148q-56 -47 -74.5 -79.5t-18.5 -81.5q0 -51 37.5 -84.5t98.5 -33.5q57 0 95.5 33.5t38.5 97.5q0 20 -5 42l73 13q12 -28 12 -69q0 -75 -61 -131t-153 -56q-100 0 -159 52t-59 132q0 63 27 108.5t98 105.5q31 27 43.5 53.5t12.5 67.5zM323 700
v-100h-92v100h92z" />
    <glyph glyph-name="bullet.case" horiz-adv-x="286" 
d="M52 350q0 38 27 64.5t64 26.5t64 -26.5t27 -64.5t-27 -64.5t-64 -26.5t-64 26.5t-27 64.5z" />
    <glyph glyph-name="braceleft.case" horiz-adv-x="368" 
d="M58 315v70q38 0 56.5 20.5t18.5 72.5v117q0 96 36 138t114 42h31v-70h-32q-71 0 -71 -87v-145q0 -55 -15.5 -80.5t-53.5 -42.5q38 -17 53.5 -42.5t15.5 -80.5v-145q0 -87 71 -87h32v-70h-31q-78 0 -114 42t-36 138v117q0 52 -18.5 72.5t-56.5 20.5z" />
    <glyph glyph-name="braceright.case" horiz-adv-x="368" 
d="M310 385v-70q-38 0 -56.5 -20.5t-18.5 -72.5v-117q0 -96 -36 -138t-114 -42h-31v70h32q71 0 71 87v145q0 55 15.5 80.5t53.5 42.5q-38 17 -53.5 42.5t-15.5 80.5v145q0 87 -71 87h-32v70h31q78 0 114 -42t36 -138v-117q0 -52 18.5 -72.5t56.5 -20.5z" />
    <glyph glyph-name="bracketleft.case" horiz-adv-x="323" 
d="M88 -75v850h181v-70h-103v-710h103v-70h-181z" />
    <glyph glyph-name="bracketright.case" horiz-adv-x="323" 
d="M235 775v-850h-181v70h103v710h-103v70h181z" />
    <glyph glyph-name="parenleft.case" horiz-adv-x="350" 
d="M258 -74h-76q-106 182 -106 424t106 424h76q-98 -186 -98 -424t98 -424z" />
    <glyph glyph-name="parenright.case" horiz-adv-x="350" 
d="M168 -74h-76q98 186 98 424t-98 424h76q106 -182 106 -424t-106 -424z" />
    <glyph glyph-name="guillemotleft.case" horiz-adv-x="505" 
d="M376 549h93l-152 -199l152 -199h-93l-156 199zM204 549h93l-152 -199l152 -199h-93l-156 199z" />
    <glyph glyph-name="guillemotright.case" horiz-adv-x="505" 
d="M36 549h93l156 -199l-156 -199h-93l152 199zM208 549h93l156 -199l-156 -199h-93l152 199z" />
    <glyph glyph-name="guilsinglleft.case" horiz-adv-x="333" 
d="M204 549h93l-152 -199l152 -199h-93l-156 199z" />
    <glyph glyph-name="guilsinglright.case" horiz-adv-x="333" 
d="M36 549h93l156 -199l-156 -199h-93l152 199z" />
    </font>
</defs>
</svg>
